<svg width="104" height="104" viewBox="0 0 104 104" fill="none" xmlns="http://www.w3.org/2000/svg">
<g filter="url(#filter0_d_53_8811)">
<rect x="20" y="16" width="64" height="64" rx="32" fill="white"/>
<path d="M52 28C40.96 28 32 36.96 32 48C32 59.04 40.96 68 52 68C63.04 68 72 59.04 72 48C72 36.96 63.04 28 52 28ZM52 64C43.18 64 36 56.82 36 48C36 39.18 43.18 32 52 32C60.82 32 68 39.18 68 48C68 56.82 60.82 64 52 64ZM47 57L61 48L47 39V57Z" fill="#1D5A99"/>
</g>
<defs>
<filter id="filter0_d_53_8811" x="0" y="0" width="104" height="104" filterUnits="userSpaceOnUse" color-interpolation-filters="sRGB">
<feFlood flood-opacity="0" result="BackgroundImageFix"/>
<feColorMatrix in="SourceAlpha" type="matrix" values="0 0 0 0 0 0 0 0 0 0 0 0 0 0 0 0 0 0 127 0" result="hardAlpha"/>
<feOffset dy="4"/>
<feGaussianBlur stdDeviation="10"/>
<feComposite in2="hardAlpha" operator="out"/>
<feColorMatrix type="matrix" values="0 0 0 0 0 0 0 0 0 0 0 0 0 0 0 0 0 0 0.35 0"/>
<feBlend mode="normal" in2="BackgroundImageFix" result="effect1_dropShadow_53_8811"/>
<feBlend mode="normal" in="SourceGraphic" in2="effect1_dropShadow_53_8811" result="shape"/>
</filter>
</defs>
</svg>
