<svg width="29" height="28" viewBox="0 0 29 28" fill="none" xmlns="http://www.w3.org/2000/svg">
<path d="M14.5938 24.75C8.66375 24.75 3.84375 19.93 3.84375 14C3.84375 8.07 8.66375 3.25 14.5938 3.25C20.5237 3.25 25.3438 8.07 25.3438 14C25.3438 19.93 20.5237 24.75 14.5938 24.75ZM14.5938 4.75C9.49375 4.75 5.34375 8.9 5.34375 14C5.34375 19.1 9.49375 23.25 14.5938 23.25C19.6937 23.25 23.8438 19.1 23.8438 14C23.8438 8.9 19.6937 4.75 14.5938 4.75Z" fill="white"/>
<path d="M17.0938 14.75H11.0938C10.6838 14.75 10.3438 14.41 10.3438 14C10.3438 13.59 10.6838 13.25 11.0938 13.25H17.0938C17.5037 13.25 17.8438 13.59 17.8438 14C17.8438 14.41 17.5037 14.75 17.0938 14.75Z" fill="white"/>
<path d="M15.0912 17.7475C14.9012 17.7475 14.7113 17.6775 14.5613 17.5275C14.2713 17.2375 14.2713 16.7575 14.5613 16.4675L17.0312 13.9975L14.5613 11.5275C14.2713 11.2375 14.2713 10.7575 14.5613 10.4675C14.8512 10.1775 15.3312 10.1775 15.6212 10.4675L18.6213 13.4675C18.9113 13.7575 18.9113 14.2375 18.6213 14.5275L15.6212 17.5275C15.4712 17.6775 15.2812 17.7475 15.0912 17.7475Z" fill="white"/>
</svg>
