<svg width="18" height="18" viewBox="0 0 18 18" fill="none" xmlns="http://www.w3.org/2000/svg">
<path d="M12.7539 11.2578H11.9639L11.6839 10.9878C12.6639 9.84781 13.2539 8.36781 13.2539 6.75781C13.2539 3.16781 10.3439 0.257812 6.75391 0.257812C3.16391 0.257812 0.253906 3.16781 0.253906 6.75781C0.253906 10.3478 3.16391 13.2578 6.75391 13.2578C8.36391 13.2578 9.84391 12.6678 10.9839 11.6878L11.2539 11.9678V12.7578L16.2539 17.7478L17.7439 16.2578L12.7539 11.2578ZM6.75391 11.2578C4.26391 11.2578 2.25391 9.24781 2.25391 6.75781C2.25391 4.26781 4.26391 2.25781 6.75391 2.25781C9.24391 2.25781 11.2539 4.26781 11.2539 6.75781C11.2539 9.24781 9.24391 11.2578 6.75391 11.2578Z" fill="#D2DEEB"/>
</svg>
