<svg width="68" height="60" viewBox="0 0 68 60" fill="none" xmlns="http://www.w3.org/2000/svg">
<path d="M65.4554 59.8148H2.54456C1.13846 59.8148 0 58.8134 0 57.5765V2.23827C0 1.00142 1.13846 0 2.54456 0H65.4554C66.8615 0 68 1.00142 68 2.23827V57.5765C68 58.8134 66.8615 59.8148 65.4554 59.8148Z" fill="#AA1F23"/>
<path d="M32.9492 25.857C32.9492 25.7294 32.9492 25.5999 32.9492 25.4723C32.9492 25.4409 32.9548 25.4168 32.9788 25.3946C33.0472 25.3281 33.1138 25.2596 33.1822 25.1931C33.2377 25.1376 33.2932 25.0802 33.3487 25.0248C33.4134 24.96 33.4781 24.8953 33.5429 24.8306C33.5595 24.8139 33.5798 24.8047 33.6039 24.8047C33.8665 24.8047 34.131 24.8047 34.3936 24.8047C34.4158 24.8047 34.4324 24.8102 34.449 24.825C34.462 24.838 34.4768 24.8509 34.4897 24.8639C34.6229 24.997 34.756 25.1283 34.8873 25.2615C34.9317 25.3059 34.9724 25.3502 35.0168 25.3928C35.0427 25.4168 35.0501 25.4446 35.0501 25.4779C35.0501 25.5981 35.0501 25.7164 35.0501 25.8366C35.0501 25.9642 35.0464 26.0937 35.0519 26.2213C35.0538 26.2786 35.0316 26.3193 34.9928 26.3563C34.9373 26.4099 34.8836 26.4654 34.83 26.519C34.7801 26.569 34.7301 26.6171 34.6802 26.667C34.6395 26.7077 34.5988 26.7502 34.5582 26.7909C34.5267 26.8223 34.4934 26.8538 34.4601 26.8852C34.4398 26.9037 34.4158 26.9055 34.3899 26.9055C34.2419 26.9055 34.0921 26.9055 33.9442 26.9055C33.8332 26.9055 33.7222 26.9055 33.6113 26.9055C33.578 26.9055 33.5521 26.8963 33.5281 26.8723C33.3487 26.691 33.1674 26.5098 32.9862 26.3304C32.9603 26.3064 32.9511 26.2786 32.9511 26.2435C32.9492 26.114 32.9492 25.9864 32.9492 25.857Z" fill="#D0B46C"/>
<path d="M31.8412 25.0411C31.6988 25.0411 31.5564 25.0429 31.414 25.0448C31.39 25.0448 31.3715 25.0374 31.353 25.0189C31.3031 24.969 31.2531 24.919 31.2032 24.8691C31.1958 24.8617 31.1884 24.8524 31.1792 24.8469C31.1551 24.8303 31.1366 24.8358 31.1237 24.8617C31.1163 24.8783 31.1107 24.895 31.107 24.9116C31.083 25.0004 31.059 25.0892 31.0349 25.1761C31.0294 25.1964 31.0238 25.2168 31.0201 25.239C31.009 25.3129 31.0016 25.3869 30.9868 25.459C30.9646 25.5681 30.9646 25.6791 30.9628 25.7901C30.9609 25.8733 30.9591 25.9565 30.9646 26.0397C30.9702 26.11 30.972 26.1803 30.985 26.2506C31.0016 26.3504 31.0146 26.4503 31.0349 26.5483C31.0534 26.6352 31.083 26.7203 31.107 26.8054C31.1107 26.8183 31.1144 26.8313 31.12 26.8442C31.1348 26.8867 31.157 26.8923 31.1921 26.8627C31.194 26.8627 31.194 26.8608 31.1958 26.8608C31.2383 26.8165 31.2827 26.7739 31.3253 26.7295C31.3585 26.6944 31.3937 26.6611 31.4492 26.6759C31.4547 26.6778 31.4584 26.6759 31.464 26.6759C31.5527 26.6759 31.6433 26.6759 31.7321 26.6759C31.8116 26.6759 31.8912 26.6759 31.9707 26.6759C31.9855 26.6759 32.0003 26.6704 32.0151 26.6889C32.0077 26.6981 32.0021 26.7092 31.9929 26.7184C31.9485 26.7628 31.9023 26.8054 31.8579 26.8516C31.7728 26.9367 31.6877 27.0217 31.6027 27.1087C31.5823 27.1308 31.5583 27.1401 31.5287 27.1401C31.4603 27.1382 31.39 27.1401 31.3216 27.1401C31.2624 27.1401 31.2494 27.1604 31.2735 27.2141C31.2753 27.2159 31.2753 27.2178 31.2772 27.2215C31.3234 27.3028 31.3659 27.3861 31.414 27.4637C31.4677 27.5488 31.525 27.632 31.586 27.7115C31.6396 27.7818 31.7007 27.8484 31.758 27.9168C31.8301 28.0056 31.9189 28.0796 32.004 28.1572C32.0465 28.1961 32.0927 28.2312 32.139 28.2663C32.2185 28.3237 32.2962 28.3829 32.3794 28.4365C32.4571 28.4864 32.5403 28.529 32.6217 28.577C32.6346 28.5844 32.6475 28.5937 32.6605 28.5992C32.6919 28.6122 32.7123 28.5992 32.7178 28.5659C32.7178 28.5604 32.7178 28.5567 32.7178 28.5511C32.7178 28.4809 32.7197 28.4124 32.716 28.344C32.7141 28.3126 32.7234 28.2904 32.7456 28.27C32.7659 28.2534 32.7844 28.2349 32.8029 28.2164C32.8417 28.1776 32.8787 28.1387 32.9157 28.0999C32.9804 28.0352 33.0452 27.9705 33.1099 27.9057C33.1265 27.8891 33.145 27.8687 33.1746 27.8613C33.1765 27.8743 33.182 27.8872 33.182 27.8983C33.182 27.9557 33.1783 28.0111 33.1802 28.0685C33.1802 28.1961 33.182 28.3237 33.1839 28.4494C33.1839 28.4716 33.1783 28.4901 33.1635 28.5049C33.1358 28.5345 33.1062 28.5641 33.0766 28.5955C33.047 28.627 33.0156 28.6566 32.9897 28.688C32.9712 28.712 32.9749 28.7287 33.0026 28.7379C33.0526 28.7564 33.1006 28.7768 33.1524 28.7879C33.2393 28.8082 33.3244 28.8378 33.4132 28.847C33.4261 28.8489 33.4409 28.8507 33.4539 28.8563C33.5741 28.8914 33.698 28.8988 33.82 28.9025C33.9661 28.9062 34.1141 28.9118 34.262 28.897C34.3231 28.8914 34.3859 28.8877 34.4451 28.8766C34.5487 28.8581 34.6522 28.8378 34.7558 28.8119C34.8372 28.7916 34.9148 28.7657 34.9944 28.7398C35.0258 28.7287 35.0295 28.7157 35.0129 28.6898C35.0055 28.6806 34.9962 28.6714 34.987 28.6621C34.9389 28.6122 34.889 28.5641 34.8409 28.5142C34.8261 28.4994 34.8187 28.4809 34.8187 28.4605C34.8187 28.2737 34.8187 28.0851 34.8187 27.8965C34.8187 27.8854 34.8224 27.8761 34.8242 27.8576C34.8446 27.8724 34.8594 27.8798 34.8723 27.8928C34.9148 27.9353 34.9574 27.9778 34.9999 28.0204C35.0794 28.0999 35.1571 28.1794 35.2385 28.2571C35.2662 28.2848 35.2829 28.3126 35.281 28.3533C35.2773 28.4198 35.2792 28.4864 35.2792 28.553C35.2792 28.6029 35.3069 28.6196 35.3513 28.5955C35.3938 28.5733 35.4364 28.5511 35.477 28.5253C35.5436 28.4846 35.6102 28.4457 35.6749 28.4013C35.76 28.344 35.8451 28.2848 35.9246 28.2201C36.0097 28.1498 36.091 28.074 36.1687 27.9963C36.2408 27.9242 36.3074 27.8484 36.3721 27.7689C36.4572 27.6635 36.5349 27.5525 36.6033 27.4341C36.6255 27.3953 36.6514 27.3565 36.6717 27.3176C36.6921 27.2788 36.7143 27.24 36.7291 27.1993C36.7457 27.1586 36.7309 27.1438 36.6884 27.1419C36.6162 27.1419 36.5441 27.1401 36.472 27.1419C36.4387 27.1419 36.4147 27.1308 36.3925 27.1087C36.263 26.9773 36.1317 26.846 36.0004 26.7147C35.993 26.7073 35.9875 26.6981 35.9764 26.6833C35.9986 26.6815 36.0134 26.6796 36.0282 26.6796C36.1484 26.6796 36.2704 26.6796 36.3906 26.6796C36.4443 26.6796 36.4997 26.6852 36.5534 26.6778C36.6033 26.6722 36.6347 26.6907 36.6643 26.724C36.705 26.7702 36.7494 26.8128 36.7956 26.8553C36.8437 26.8997 36.8604 26.896 36.8807 26.8331C36.9029 26.761 36.9177 26.687 36.9417 26.6167C36.9695 26.5391 36.9769 26.4595 36.9917 26.3819C37.0065 26.3005 37.0157 26.2173 37.0231 26.1359C37.0305 26.0693 37.036 26.0009 37.036 25.9325C37.036 25.8344 37.0324 25.7364 37.0287 25.6384C37.0268 25.5996 37.0231 25.5607 37.0176 25.5219C37.012 25.4831 37.0065 25.4442 36.9991 25.4073C36.9861 25.3314 36.975 25.2556 36.9621 25.1798C36.9565 25.1483 36.9436 25.1206 36.9343 25.0892C36.914 25.0189 36.8918 24.9468 36.8715 24.8765C36.8696 24.8728 36.8696 24.8691 36.8678 24.8654C36.8585 24.845 36.8437 24.8413 36.8252 24.8524C36.8104 24.8598 36.7993 24.8709 36.7864 24.882C36.7494 24.9172 36.7124 24.9542 36.6773 24.9911C36.6126 25.0577 36.631 25.0503 36.5386 25.0503C36.3925 25.0485 36.2464 25.0503 36.1003 25.0503C36.0707 25.0503 36.0429 25.0522 36.0134 25.0522C36.0041 25.0522 35.993 25.0466 35.9764 25.0429C35.9912 25.0263 35.9986 25.017 36.0097 25.0078C36.0282 24.9893 36.0485 24.9708 36.067 24.9523C36.1095 24.9098 36.1502 24.8654 36.1946 24.8229C36.2445 24.7748 36.2945 24.7267 36.3425 24.6768C36.361 24.6583 36.3795 24.6379 36.398 24.6194C36.4184 24.5972 36.4424 24.5861 36.4757 24.588C36.5293 24.5898 36.5811 24.588 36.6347 24.588C36.6569 24.588 36.6773 24.5898 36.6995 24.5898C36.7365 24.588 36.7494 24.5695 36.7365 24.5344C36.7328 24.5233 36.7272 24.5122 36.7198 24.5011C36.6921 24.453 36.6662 24.4049 36.6384 24.3568C36.5959 24.2865 36.5534 24.2163 36.509 24.1497C36.4369 24.0406 36.3555 23.937 36.2667 23.8409C36.1632 23.728 36.0559 23.6171 35.9338 23.5228C35.8562 23.4617 35.7822 23.397 35.6971 23.3471C35.625 23.3045 35.5547 23.2565 35.4826 23.2139C35.4401 23.188 35.3957 23.1677 35.3531 23.1436C35.3328 23.1326 35.3125 23.1178 35.2903 23.1307C35.2681 23.1436 35.2718 23.1677 35.2718 23.188C35.2718 23.2602 35.2718 23.3341 35.2718 23.4081C35.2718 23.4303 35.2644 23.4488 35.2477 23.4654C35.1238 23.5893 35.0018 23.7132 34.8779 23.839C34.8631 23.8538 34.8483 23.8686 34.8205 23.8704C34.8187 23.8575 34.8187 23.8464 34.8187 23.8353C34.8187 23.6522 34.8187 23.4673 34.8187 23.2842C34.8187 23.2602 34.8261 23.2398 34.8409 23.2232C34.8612 23.201 34.8834 23.1788 34.9037 23.1584C34.9333 23.1289 34.9648 23.0993 34.9944 23.0678C35.024 23.0364 35.0166 23.0049 34.9777 22.992C34.9315 22.9772 34.8853 22.9587 34.839 22.9476C34.7447 22.9236 34.6504 22.9032 34.5561 22.8829C34.5283 22.8773 34.5006 22.8755 34.4747 22.8699C34.3637 22.8459 34.2509 22.8367 34.1381 22.8348C34.0142 22.833 33.8922 22.8274 33.7682 22.8404C33.7183 22.8459 33.6665 22.8441 33.6185 22.8533C33.4908 22.8773 33.3595 22.894 33.2338 22.9291C33.1617 22.9495 33.0895 22.9717 33.0174 22.9938C32.9823 23.0049 32.9767 23.0364 33.0045 23.066C33.0415 23.1048 33.0803 23.1418 33.1191 23.1806C33.1358 23.1973 33.1487 23.2139 33.1654 23.2306C33.182 23.2472 33.1876 23.2657 33.1857 23.2897C33.1839 23.3156 33.182 23.3397 33.182 23.3656C33.182 23.5228 33.182 23.6781 33.182 23.8353C33.182 23.8482 33.1802 23.8612 33.1802 23.8778C33.158 23.8741 33.1432 23.863 33.1321 23.8501C33.0895 23.8076 33.047 23.765 33.0045 23.7225C32.9176 23.6356 32.8325 23.5505 32.7437 23.4636C32.7252 23.4451 32.7178 23.4247 32.7178 23.3989C32.7178 23.3304 32.7178 23.262 32.7197 23.1954C32.7197 23.1862 32.7197 23.1751 32.7178 23.1658C32.7123 23.1381 32.6938 23.127 32.6679 23.1418C32.6013 23.1769 32.5347 23.2121 32.47 23.2509C32.3572 23.3175 32.2462 23.3878 32.1464 23.471C32.0761 23.5283 32.0058 23.5856 31.9392 23.6467C31.8764 23.7058 31.8153 23.7669 31.7562 23.8316C31.7099 23.8815 31.6655 23.9333 31.6249 23.987C31.5694 24.0591 31.5157 24.1312 31.4658 24.207C31.4251 24.2681 31.3881 24.3328 31.3493 24.3957C31.3253 24.4382 31.3012 24.4807 31.279 24.5251C31.2735 24.5344 31.2698 24.5455 31.2679 24.5566C31.2642 24.5787 31.2753 24.5935 31.2975 24.5972C31.3068 24.5991 31.3179 24.5991 31.3271 24.5991C31.3937 24.5991 31.4603 24.6009 31.5268 24.5991C31.562 24.5972 31.5879 24.6102 31.6101 24.6342C31.6378 24.6657 31.6674 24.6953 31.697 24.7248C31.7414 24.7692 31.7876 24.8136 31.832 24.858C31.8856 24.9116 31.9392 24.9634 31.9929 25.017C32.0021 25.0263 32.0114 25.0392 32.0262 25.0559C32.0058 25.0596 31.9929 25.0633 31.9799 25.0633C31.93 25.0429 31.8856 25.0411 31.8412 25.0411ZM32.1445 25.0744C32.1519 25.0725 32.1593 25.0725 32.1667 25.0725C32.2573 25.0744 32.3479 25.0762 32.4386 25.0762C32.5329 25.0762 32.6272 25.0744 32.7215 25.0725C32.8288 25.0725 32.936 25.0725 33.0433 25.0725C33.0729 25.0725 33.1043 25.0744 33.1339 25.0762C33.1469 25.0762 33.1617 25.0744 33.1746 25.0725C33.1931 25.0707 33.2042 25.0596 33.2079 25.0411C33.2097 25.0263 33.2134 25.0115 33.2134 24.9967C33.2134 24.6786 33.2134 24.3587 33.2134 24.0406C33.2134 24.0221 33.2153 24.0036 33.2153 23.987C33.2356 23.9796 33.2412 23.9925 33.2504 24.0017C33.2745 24.0276 33.2985 24.0535 33.3244 24.0776C33.4113 24.1645 33.5001 24.2496 33.587 24.3365C33.6924 24.4419 33.796 24.5473 33.8996 24.6527C33.9199 24.6731 33.9384 24.6916 33.9587 24.7119C33.9883 24.7396 34.0105 24.7415 34.0401 24.7119C34.0808 24.6731 34.1178 24.6342 34.1585 24.5935C34.2158 24.5362 34.275 24.4789 34.3323 24.4197C34.3859 24.3661 34.4396 24.3106 34.495 24.257C34.5413 24.2107 34.5875 24.1645 34.6337 24.1183C34.6726 24.0794 34.7114 24.0387 34.7503 23.9999C34.7577 23.9925 34.7687 23.9851 34.7854 23.9722C34.7872 23.9962 34.7891 24.011 34.7891 24.0239C34.7891 24.2847 34.7891 24.5455 34.7891 24.8062C34.7891 24.8691 34.7891 24.932 34.7891 24.9948C34.7891 25.0078 34.7891 25.0226 34.7928 25.0355C34.7983 25.0596 34.8076 25.067 34.8316 25.0688C34.8427 25.0688 34.8538 25.0688 34.8649 25.0688C35.1867 25.0688 35.5103 25.0688 35.8321 25.0688C35.8432 25.0688 35.8562 25.0707 35.8747 25.0744C35.8654 25.0892 35.8617 25.0984 35.8543 25.104C35.723 25.2353 35.5917 25.3647 35.4604 25.496C35.355 25.6014 35.2496 25.705 35.1442 25.8104C35.1127 25.8418 35.1146 25.8696 35.1479 25.901C35.1959 25.9473 35.2422 25.9953 35.2903 26.0416C35.3254 26.0767 35.3624 26.1119 35.3975 26.1488C35.4937 26.245 35.5899 26.3412 35.686 26.4373C35.7378 26.4891 35.7896 26.5391 35.8414 26.5908C35.8506 26.6001 35.8673 26.6093 35.858 26.6334C35.8469 26.6334 35.8358 26.6352 35.8247 26.6352C35.5029 26.6352 35.1793 26.6352 34.8575 26.6352C34.8501 26.6352 34.8427 26.6352 34.8353 26.6352C34.8076 26.6371 34.7946 26.6482 34.7909 26.6778C34.7891 26.687 34.7891 26.6981 34.7891 26.7073C34.7891 27.0143 34.7891 27.3195 34.7891 27.6265C34.7891 27.6524 34.7909 27.6764 34.7891 27.7023C34.7891 27.7115 34.7835 27.7208 34.7798 27.7319C34.7706 27.7263 34.7632 27.7245 34.7595 27.7208C34.7003 27.6616 34.6411 27.6006 34.582 27.5414C34.5024 27.46 34.4229 27.3805 34.3434 27.2991C34.2694 27.2252 34.1936 27.1512 34.1178 27.0772C34.0937 27.055 34.0715 27.031 34.0494 27.0069C34.0124 26.9681 33.9846 26.97 33.9476 27.0088C33.8866 27.0717 33.8237 27.1345 33.7609 27.1956C33.7072 27.2492 33.6536 27.3047 33.5981 27.3583C33.5519 27.4027 33.5075 27.4489 33.4613 27.4933C33.391 27.5636 33.3207 27.6357 33.2523 27.706C33.243 27.7152 33.2356 27.7226 33.2264 27.73C33.206 27.7171 33.2116 27.7004 33.2116 27.6875C33.2116 27.5747 33.2116 27.46 33.2116 27.3472C33.2116 27.1364 33.2116 26.9256 33.2116 26.7166C33.2116 26.711 33.2116 26.7073 33.2116 26.7018C33.2097 26.65 33.1986 26.6371 33.1469 26.6371C32.8935 26.6371 32.6401 26.6371 32.3868 26.6371C32.3165 26.6371 32.2462 26.6371 32.176 26.6371C32.1649 26.6371 32.1538 26.6352 32.1445 26.6352C32.1334 26.6167 32.1445 26.6075 32.1538 26.5964C32.1926 26.5575 32.2296 26.5206 32.2684 26.4817C32.335 26.4151 32.3997 26.3504 32.4663 26.2838C32.5828 26.1673 32.6993 26.0508 32.8158 25.9343C32.8269 25.9232 32.8399 25.9121 32.8528 25.901C32.8824 25.8751 32.8824 25.84 32.8565 25.8123C32.7567 25.7124 32.6549 25.6144 32.5551 25.5145C32.4719 25.4313 32.3886 25.3462 32.3054 25.263C32.2536 25.2112 32.2 25.1613 32.1482 25.1114C32.1445 25.1077 32.139 25.1021 32.1353 25.0966C32.1297 25.0855 32.1316 25.0762 32.1445 25.0744Z" fill="#D0B46C"/>
<path d="M38.5404 31.0638H29.4656V18.2719C29.4656 17.6986 29.0014 17.2344 28.4281 17.2344C27.8548 17.2344 27.3906 17.6986 27.3906 18.2719V39.5338C27.3906 40.1071 27.8548 40.5713 28.4281 40.5713C29.0014 40.5713 29.4656 40.1071 29.4656 39.5338V33.1388H38.5404V39.5338C38.5404 40.1071 39.0045 40.5713 39.5778 40.5713C40.1511 40.5713 40.6153 40.1071 40.6153 39.5338V18.2719C40.6153 17.6986 40.1511 17.2344 39.5778 17.2344C39.0045 17.2344 38.5404 17.6986 38.5404 18.2719V31.0638V31.0638Z" fill="#D0B46C"/>
<path d="M21.4258 12.6316V39.5341C21.4258 40.1074 21.89 40.5716 22.4633 40.5716C23.0366 40.5716 23.5008 40.1074 23.5008 39.5341V14.7047C23.5008 14.0981 23.9927 13.6044 24.6011 13.6044H31.8654C32.4719 13.6044 32.9657 14.0963 32.9657 14.7047V19.6148C32.9657 20.1807 33.4262 20.6356 33.9903 20.6338C33.9995 20.6338 34.0069 20.6338 34.0162 20.6338C34.5802 20.6338 35.0388 20.1788 35.0388 19.6148V14.7047C35.0388 14.0981 35.5308 13.6044 36.1392 13.6044H43.4035C44.01 13.6044 44.5038 14.0963 44.5038 14.7047V39.5341C44.5038 40.1074 44.968 40.5716 45.5413 40.5716C46.1146 40.5716 46.5788 40.1074 46.5788 39.5341V12.6316C46.5788 12.025 46.0869 11.5312 45.4784 11.5312H22.5261C21.9177 11.5312 21.4258 12.0232 21.4258 12.6316Z" fill="#D0B46C"/>
<path d="M8.71021 47.5204C8.71206 47.2412 8.61774 46.9804 8.44021 46.764C8.34034 46.6401 8.21828 46.5384 8.08143 46.4533C8.15171 46.396 8.21828 46.3331 8.27192 46.261C8.40507 46.0909 8.47164 45.88 8.4698 45.6544C8.47164 45.4122 8.39397 45.1884 8.24233 45.0108C8.09623 44.8389 7.90204 44.7131 7.67273 44.6299C7.44526 44.5467 7.19559 44.5078 6.93114 44.5078H5.52193H5.19275H5.00781V44.9313V46.3794V46.6179V48.4229V48.6226V48.6615V48.8464H7.166C7.43971 48.8464 7.69862 48.7909 7.92979 48.6781C8.1591 48.5653 8.34959 48.4081 8.49199 48.2102C8.63624 48.0068 8.71206 47.7701 8.71021 47.5204ZM7.50628 45.9596C7.45265 46.0372 7.38608 46.0909 7.28991 46.1315C7.18635 46.1722 7.06984 46.1944 6.93299 46.1944H5.70872V45.1163H6.93299C7.06984 45.1163 7.18635 45.1384 7.28806 45.1791C7.38423 45.218 7.45265 45.2734 7.50443 45.3493C7.55252 45.4195 7.58211 45.5139 7.58211 45.6526C7.58396 45.795 7.55437 45.8911 7.50628 45.9596ZM7.63389 48.0493C7.50443 48.1788 7.36388 48.2361 7.16785 48.238H5.70872V46.8029H7.16785C7.36388 46.8047 7.50443 46.8639 7.63389 46.9933C7.75595 47.1191 7.82067 47.28 7.82252 47.5204C7.82067 47.7608 7.75595 47.9236 7.63389 48.0493Z" fill="#D0B46C"/>
<path d="M10.9276 44.5078L10.8777 44.6169L8.97656 48.8464H9.62199L11.0497 45.6655L12.5292 48.8464H13.4372L11.4898 44.5078H10.9276Z" fill="#D0B46C"/>
<path d="M19.9609 45.1163H20.1459H21.3886V48.8464H22.2356V45.1163H23.6633V44.5078H19.9609V45.1163Z" fill="#D0B46C"/>
<path d="M28.9227 47.2615L26.4723 44.5078H25.8047V48.8464H26.4131V45.8412L29.0632 48.8464H29.3462H29.5311V44.5078H28.9227V47.2615Z" fill="#D0B46C"/>
<path d="M59.0878 44.5078L59.0397 44.6169L57.1367 48.8464H57.7821L59.2117 45.6655L60.6893 48.8464H61.5973L59.65 44.5078H59.0878Z" fill="#D0B46C"/>
<path d="M38.7401 44.5078L38.6902 44.6169L36.7891 48.8464H37.4326L38.8622 45.6655L40.3398 48.8464H41.2497L39.3023 44.5078H38.7401Z" fill="#D0B46C"/>
<path d="M45.1279 44.5078V47.2615L42.6775 44.5078H42.0117V48.8464H42.6202V45.8412L45.2684 48.8464H45.5514H45.7382V44.5078H45.1279Z" fill="#D0B46C"/>
<path d="M17.5758 45.537C17.376 45.1986 17.106 44.9268 16.7731 44.727C16.4384 44.5236 16.0648 44.4219 15.6672 44.4219C15.2715 44.4219 14.8998 44.5236 14.565 44.727C14.2321 44.9268 13.964 45.2005 13.7643 45.537C13.5608 45.8792 13.4591 46.2601 13.461 46.6707C13.461 47.0812 13.5627 47.4622 13.7661 47.8025C13.9658 48.1391 14.2358 48.4109 14.5687 48.6088C14.8646 48.7882 15.1901 48.8862 15.5341 48.9084V48.3018C15.3288 48.2815 15.1494 48.2186 14.9867 48.1058C14.7888 47.9671 14.6353 47.7785 14.5188 47.5288C14.4041 47.281 14.345 46.9962 14.345 46.6688C14.345 46.3415 14.4041 46.0567 14.5206 45.8089C14.6371 45.5592 14.7925 45.3706 14.9904 45.2337C15.1846 45.0987 15.4046 45.0322 15.6672 45.0303C16.0741 45.0414 16.3718 45.1857 16.6197 45.4871C16.8656 45.7904 16.9914 46.1751 16.9932 46.6688C16.9932 46.9962 16.934 47.281 16.8212 47.5288C16.7066 47.7785 16.5531 47.9652 16.3552 48.1058C16.2313 48.1909 16.0963 48.2482 15.9483 48.2815V48.8936C16.2424 48.8585 16.5216 48.7642 16.7787 48.6088C17.1097 48.4091 17.3779 48.1372 17.5795 47.8006C17.7829 47.4604 17.8846 47.0776 17.8846 46.6688C17.8791 46.262 17.7773 45.8792 17.5758 45.537Z" fill="#D0B46C"/>
<path d="M47.4759 45.9614V44.5078H47.291H46.6289V45.9614H47.4759Z" fill="#D0B46C"/>
<path d="M50.5699 46.9822V46.8879V44.5078H49.7229V46.3738H47.4759H46.6289V46.4718V48.8464H47.4759V46.9822H49.7229H50.5699Z" fill="#D0B46C"/>
<path d="M49.7227 47.3906V48.8442H49.9076H50.5697V47.3906H49.7227Z" fill="#D0B46C"/>
<path d="M53.3118 45.9614V44.5078H53.1269H52.4648V45.9614H53.3118Z" fill="#D0B46C"/>
<path d="M56.4058 46.9822V46.8879V44.5078H55.5588V46.3738H53.3118H52.4648V46.4718V48.8464H53.3118V46.9822H55.5588H56.4058Z" fill="#D0B46C"/>
<path d="M55.5586 47.3906V48.8442H55.7435H56.4056V47.3906H55.5586Z" fill="#D0B46C"/>
<path d="M24.3242 48.81H24.511H25.1712V46.4281L24.3242 45.668V48.81Z" fill="#D0B46C"/>
<path d="M24.3242 44.4688V44.7924V44.9533V45.0901L25.1712 45.8465V45.7818V45.6264V44.4688H24.3242Z" fill="#D0B46C"/>
<path d="M62.1445 48.847H62.9915V46.4281L62.1445 45.668V48.847Z" fill="#D0B46C"/>
<path d="M62.1445 44.4688V44.7924V44.9533V45.0901L62.9915 45.8465V45.7818V45.6264V44.4688H62.1445Z" fill="#D0B46C"/>
<path d="M33.8362 47.6184L32.3937 44.5078H31.6133V48.8464H32.2217V46.1815L33.4645 48.8464H33.9398L34.1691 48.3489L33.8362 47.6184Z" fill="#D0B46C"/>
<path d="M35.2465 44.5078L34.0703 47.0988L34.405 47.8293L35.1799 46.1408V48.8464H36.0306V44.5078H35.2465Z" fill="#D0B46C"/>
</svg>
