<svg width="68" height="61" viewBox="0 0 68 61" fill="none" xmlns="http://www.w3.org/2000/svg">
<path d="M65.4554 60.1293H2.54456C1.35242 60.1293 0.5 59.2934 0.5 58.391V3.05272C0.5 2.15034 1.35242 1.31445 2.54456 1.31445H65.4554C66.6476 1.31445 67.5 2.15034 67.5 3.05272V58.391C67.5 59.2934 66.6476 60.1293 65.4554 60.1293Z" stroke="#AA1F23"/>
<path d="M32.9492 26.6714C32.9492 26.5438 32.9492 26.4144 32.9492 26.2868C32.9492 26.2553 32.9548 26.2313 32.9788 26.2091C33.0472 26.1425 33.1138 26.0741 33.1822 26.0075C33.2377 25.952 33.2932 25.8947 33.3487 25.8392C33.4134 25.7745 33.4781 25.7098 33.5429 25.645C33.5595 25.6284 33.5798 25.6191 33.6039 25.6191C33.8665 25.6191 34.131 25.6191 34.3936 25.6191C34.4158 25.6191 34.4324 25.6247 34.449 25.6395C34.462 25.6524 34.4768 25.6654 34.4897 25.6783C34.6229 25.8115 34.756 25.9428 34.8873 26.0759C34.9317 26.1203 34.9724 26.1647 35.0168 26.2072C35.0427 26.2313 35.0501 26.259 35.0501 26.2923C35.0501 26.4125 35.0501 26.5309 35.0501 26.6511C35.0501 26.7787 35.0464 26.9081 35.0519 27.0357C35.0538 27.0931 35.0316 27.1338 34.9928 27.1707C34.9373 27.2244 34.8836 27.2799 34.83 27.3335C34.7801 27.3834 34.7301 27.4315 34.6802 27.4814C34.6395 27.5221 34.5988 27.5647 34.5582 27.6053C34.5267 27.6368 34.4934 27.6682 34.4601 27.6997C34.4398 27.7182 34.4158 27.72 34.3899 27.72C34.2419 27.72 34.0921 27.72 33.9442 27.72C33.8332 27.72 33.7222 27.72 33.6113 27.72C33.578 27.72 33.5521 27.7108 33.5281 27.6867C33.3487 27.5055 33.1674 27.3242 32.9862 27.1449C32.9603 27.1208 32.9511 27.0931 32.9511 27.0579C32.9492 26.9285 32.9492 26.8009 32.9492 26.6714Z" fill="#AA1F23"/>
<path d="M31.8412 25.8555C31.6988 25.8555 31.5564 25.8574 31.414 25.8592C31.39 25.8592 31.3715 25.8518 31.353 25.8333C31.3031 25.7834 31.2531 25.7335 31.2032 25.6835C31.1958 25.6761 31.1884 25.6669 31.1792 25.6614C31.1551 25.6447 31.1366 25.6503 31.1237 25.6761C31.1163 25.6928 31.1107 25.7094 31.107 25.7261C31.083 25.8148 31.059 25.9036 31.0349 25.9905C31.0294 26.0109 31.0238 26.0312 31.0201 26.0534C31.009 26.1274 31.0016 26.2014 30.9868 26.2735C30.9646 26.3826 30.9646 26.4936 30.9628 26.6045C30.9609 26.6877 30.9591 26.771 30.9646 26.8542C30.9702 26.9245 30.972 26.9947 30.985 27.065C31.0016 27.1649 31.0146 27.2647 31.0349 27.3628C31.0534 27.4497 31.083 27.5347 31.107 27.6198C31.1107 27.6328 31.1144 27.6457 31.12 27.6586C31.1348 27.7012 31.157 27.7067 31.1921 27.6771C31.194 27.6771 31.194 27.6753 31.1958 27.6753C31.2383 27.6309 31.2827 27.5884 31.3253 27.544C31.3585 27.5089 31.3937 27.4756 31.4492 27.4904C31.4547 27.4922 31.4584 27.4904 31.464 27.4904C31.5527 27.4904 31.6433 27.4904 31.7321 27.4904C31.8116 27.4904 31.8912 27.4904 31.9707 27.4904C31.9855 27.4904 32.0003 27.4848 32.0151 27.5033C32.0077 27.5126 32.0021 27.5236 31.9929 27.5329C31.9485 27.5773 31.9023 27.6198 31.8579 27.666C31.7728 27.7511 31.6877 27.8362 31.6027 27.9231C31.5823 27.9453 31.5583 27.9545 31.5287 27.9545C31.4603 27.9527 31.39 27.9545 31.3216 27.9545C31.2624 27.9545 31.2494 27.9749 31.2735 28.0285C31.2753 28.0304 31.2753 28.0322 31.2772 28.0359C31.3234 28.1173 31.3659 28.2005 31.414 28.2782C31.4677 28.3633 31.525 28.4465 31.586 28.526C31.6396 28.5963 31.7007 28.6628 31.758 28.7313C31.8301 28.82 31.9189 28.894 32.004 28.9717C32.0465 29.0105 32.0927 29.0457 32.139 29.0808C32.2185 29.1381 32.2962 29.1973 32.3794 29.2509C32.4571 29.3009 32.5403 29.3434 32.6217 29.3915C32.6346 29.3989 32.6475 29.4081 32.6605 29.4137C32.6919 29.4266 32.7123 29.4137 32.7178 29.3804C32.7178 29.3748 32.7178 29.3711 32.7178 29.3656C32.7178 29.2953 32.7197 29.2269 32.716 29.1585C32.7141 29.127 32.7234 29.1048 32.7456 29.0845C32.7659 29.0679 32.7844 29.0494 32.8029 29.0309C32.8417 28.992 32.8787 28.9532 32.9157 28.9144C32.9804 28.8496 33.0452 28.7849 33.1099 28.7202C33.1265 28.7035 33.145 28.6832 33.1746 28.6758C33.1765 28.6887 33.182 28.7017 33.182 28.7128C33.182 28.7701 33.1783 28.8256 33.1802 28.8829C33.1802 29.0105 33.182 29.1381 33.1839 29.2639C33.1839 29.2861 33.1783 29.3046 33.1635 29.3194C33.1358 29.349 33.1062 29.3785 33.0766 29.41C33.047 29.4414 33.0156 29.471 32.9897 29.5025C32.9712 29.5265 32.9749 29.5431 33.0026 29.5524C33.0526 29.5709 33.1006 29.5912 33.1524 29.6023C33.2393 29.6227 33.3244 29.6522 33.4132 29.6615C33.4261 29.6633 33.4409 29.6652 33.4539 29.6707C33.5741 29.7059 33.698 29.7133 33.82 29.717C33.9661 29.7207 34.1141 29.7262 34.262 29.7114C34.3231 29.7059 34.3859 29.7022 34.4451 29.6911C34.5487 29.6726 34.6522 29.6522 34.7558 29.6264C34.8372 29.606 34.9148 29.5801 34.9944 29.5542C35.0258 29.5431 35.0295 29.5302 35.0129 29.5043C35.0055 29.4951 34.9962 29.4858 34.987 29.4766C34.9389 29.4266 34.889 29.3785 34.8409 29.3286C34.8261 29.3138 34.8187 29.2953 34.8187 29.275C34.8187 29.0882 34.8187 28.8996 34.8187 28.7109C34.8187 28.6998 34.8224 28.6906 34.8242 28.6721C34.8446 28.6869 34.8594 28.6943 34.8723 28.7072C34.9148 28.7498 34.9574 28.7923 34.9999 28.8348C35.0794 28.9144 35.1571 28.9939 35.2385 29.0716C35.2662 29.0993 35.2829 29.127 35.281 29.1677C35.2773 29.2343 35.2792 29.3009 35.2792 29.3674C35.2792 29.4174 35.3069 29.434 35.3513 29.41C35.3938 29.3878 35.4364 29.3656 35.477 29.3397C35.5436 29.299 35.6102 29.2602 35.6749 29.2158C35.76 29.1585 35.8451 29.0993 35.9246 29.0346C36.0097 28.9643 36.091 28.8885 36.1687 28.8108C36.2408 28.7387 36.3074 28.6628 36.3721 28.5833C36.4572 28.4779 36.5349 28.367 36.6033 28.2486C36.6255 28.2098 36.6514 28.1709 36.6717 28.1321C36.6921 28.0932 36.7143 28.0544 36.7291 28.0137C36.7457 27.973 36.7309 27.9582 36.6884 27.9564C36.6162 27.9564 36.5441 27.9545 36.472 27.9564C36.4387 27.9564 36.4147 27.9453 36.3925 27.9231C36.263 27.7918 36.1317 27.6605 36.0004 27.5292C35.993 27.5218 35.9875 27.5126 35.9764 27.4978C35.9986 27.4959 36.0134 27.4941 36.0282 27.4941C36.1484 27.4941 36.2704 27.4941 36.3906 27.4941C36.4443 27.4941 36.4997 27.4996 36.5534 27.4922C36.6033 27.4867 36.6347 27.5052 36.6643 27.5384C36.705 27.5847 36.7494 27.6272 36.7956 27.6697C36.8437 27.7141 36.8604 27.7104 36.8807 27.6476C36.9029 27.5754 36.9177 27.5015 36.9417 27.4312C36.9695 27.3535 36.9769 27.274 36.9917 27.1963C37.0065 27.1149 37.0157 27.0317 37.0231 26.9503C37.0305 26.8838 37.036 26.8153 37.036 26.7469C37.036 26.6489 37.0324 26.5509 37.0287 26.4529C37.0268 26.414 37.0231 26.3752 37.0176 26.3364C37.012 26.2975 37.0065 26.2587 36.9991 26.2217C36.9861 26.1459 36.975 26.0701 36.9621 25.9942C36.9565 25.9628 36.9436 25.9351 36.9343 25.9036C36.914 25.8333 36.8918 25.7612 36.8715 25.6909C36.8696 25.6872 36.8696 25.6835 36.8678 25.6798C36.8585 25.6595 36.8437 25.6558 36.8252 25.6669C36.8104 25.6743 36.7993 25.6854 36.7864 25.6965C36.7494 25.7316 36.7124 25.7686 36.6773 25.8056C36.6126 25.8722 36.631 25.8648 36.5386 25.8648C36.3925 25.8629 36.2464 25.8648 36.1003 25.8648C36.0707 25.8648 36.0429 25.8666 36.0134 25.8666C36.0041 25.8666 35.993 25.8611 35.9764 25.8574C35.9912 25.8407 35.9986 25.8315 36.0097 25.8222C36.0282 25.8037 36.0485 25.7853 36.067 25.7668C36.1095 25.7242 36.1502 25.6798 36.1946 25.6373C36.2445 25.5892 36.2945 25.5411 36.3425 25.4912C36.361 25.4727 36.3795 25.4524 36.398 25.4339C36.4184 25.4117 36.4424 25.4006 36.4757 25.4024C36.5293 25.4043 36.5811 25.4024 36.6347 25.4024C36.6569 25.4024 36.6773 25.4043 36.6995 25.4043C36.7365 25.4024 36.7494 25.3839 36.7365 25.3488C36.7328 25.3377 36.7272 25.3266 36.7198 25.3155C36.6921 25.2674 36.6662 25.2194 36.6384 25.1713C36.5959 25.101 36.5534 25.0307 36.509 24.9641C36.4369 24.855 36.3555 24.7515 36.2667 24.6553C36.1632 24.5425 36.0559 24.4315 35.9338 24.3372C35.8562 24.2762 35.7822 24.2115 35.6971 24.1615C35.625 24.119 35.5547 24.0709 35.4826 24.0284C35.4401 24.0025 35.3957 23.9821 35.3531 23.9581C35.3328 23.947 35.3125 23.9322 35.2903 23.9452C35.2681 23.9581 35.2718 23.9821 35.2718 24.0025C35.2718 24.0746 35.2718 24.1486 35.2718 24.2226C35.2718 24.2447 35.2644 24.2632 35.2477 24.2799C35.1238 24.4038 35.0018 24.5277 34.8779 24.6535C34.8631 24.6683 34.8483 24.683 34.8205 24.6849C34.8187 24.6719 34.8187 24.6609 34.8187 24.6498C34.8187 24.4667 34.8187 24.2817 34.8187 24.0987C34.8187 24.0746 34.8261 24.0543 34.8409 24.0376C34.8612 24.0154 34.8834 23.9932 34.9037 23.9729C34.9333 23.9433 34.9648 23.9137 34.9944 23.8823C35.024 23.8508 35.0166 23.8194 34.9777 23.8065C34.9315 23.7917 34.8853 23.7732 34.839 23.7621C34.7447 23.738 34.6504 23.7177 34.5561 23.6973C34.5283 23.6918 34.5006 23.6899 34.4747 23.6844C34.3637 23.6604 34.2509 23.6511 34.1381 23.6493C34.0142 23.6474 33.8922 23.6419 33.7682 23.6548C33.7183 23.6604 33.6665 23.6585 33.6185 23.6678C33.4908 23.6918 33.3595 23.7084 33.2338 23.7436C33.1617 23.7639 33.0895 23.7861 33.0174 23.8083C32.9823 23.8194 32.9767 23.8508 33.0045 23.8804C33.0415 23.9193 33.0803 23.9563 33.1191 23.9951C33.1358 24.0117 33.1487 24.0284 33.1654 24.045C33.182 24.0617 33.1876 24.0802 33.1857 24.1042C33.1839 24.1301 33.182 24.1541 33.182 24.18C33.182 24.3372 33.182 24.4926 33.182 24.6498C33.182 24.6627 33.1802 24.6756 33.1802 24.6923C33.158 24.6886 33.1432 24.6775 33.1321 24.6646C33.0895 24.622 33.047 24.5795 33.0045 24.5369C32.9176 24.45 32.8325 24.365 32.7437 24.278C32.7252 24.2595 32.7178 24.2392 32.7178 24.2133C32.7178 24.1449 32.7178 24.0765 32.7197 24.0099C32.7197 24.0006 32.7197 23.9895 32.7178 23.9803C32.7123 23.9526 32.6938 23.9415 32.6679 23.9562C32.6013 23.9914 32.5347 24.0265 32.47 24.0654C32.3572 24.1319 32.2462 24.2022 32.1464 24.2854C32.0761 24.3428 32.0058 24.4001 31.9392 24.4611C31.8764 24.5203 31.8153 24.5813 31.7562 24.6461C31.7099 24.696 31.6655 24.7478 31.6249 24.8014C31.5694 24.8735 31.5157 24.9457 31.4658 25.0215C31.4251 25.0825 31.3881 25.1472 31.3493 25.2101C31.3253 25.2526 31.3012 25.2952 31.279 25.3396C31.2735 25.3488 31.2698 25.3599 31.2679 25.371C31.2642 25.3932 31.2753 25.408 31.2975 25.4117C31.3068 25.4135 31.3179 25.4135 31.3271 25.4135C31.3937 25.4135 31.4603 25.4154 31.5268 25.4135C31.562 25.4117 31.5879 25.4246 31.6101 25.4487C31.6378 25.4801 31.6674 25.5097 31.697 25.5393C31.7414 25.5837 31.7876 25.6281 31.832 25.6724C31.8856 25.7261 31.9392 25.7779 31.9929 25.8315C32.0021 25.8407 32.0114 25.8537 32.0262 25.8703C32.0058 25.874 31.9929 25.8777 31.9799 25.8777C31.93 25.8574 31.8856 25.8555 31.8412 25.8555ZM32.1445 25.8888C32.1519 25.887 32.1593 25.887 32.1667 25.887C32.2573 25.8888 32.3479 25.8907 32.4386 25.8907C32.5329 25.8907 32.6272 25.8888 32.7215 25.887C32.8288 25.887 32.936 25.887 33.0433 25.887C33.0729 25.887 33.1043 25.8888 33.1339 25.8907C33.1469 25.8907 33.1617 25.8888 33.1746 25.887C33.1931 25.8851 33.2042 25.874 33.2079 25.8555C33.2097 25.8407 33.2134 25.8259 33.2134 25.8111C33.2134 25.4931 33.2134 25.1731 33.2134 24.855C33.2134 24.8365 33.2153 24.818 33.2153 24.8014C33.2356 24.794 33.2412 24.807 33.2504 24.8162C33.2745 24.8421 33.2985 24.868 33.3244 24.892C33.4113 24.9789 33.5001 25.064 33.587 25.1509C33.6924 25.2563 33.796 25.3618 33.8996 25.4672C33.9199 25.4875 33.9384 25.506 33.9587 25.5263C33.9883 25.5541 34.0105 25.5559 34.0401 25.5263C34.0808 25.4875 34.1178 25.4487 34.1585 25.408C34.2158 25.3507 34.275 25.2933 34.3323 25.2342C34.3859 25.1805 34.4396 25.125 34.495 25.0714C34.5413 25.0252 34.5875 24.9789 34.6337 24.9327C34.6726 24.8939 34.7114 24.8532 34.7503 24.8143C34.7577 24.807 34.7687 24.7996 34.7854 24.7866C34.7872 24.8107 34.7891 24.8254 34.7891 24.8384C34.7891 25.0991 34.7891 25.3599 34.7891 25.6207C34.7891 25.6835 34.7891 25.7464 34.7891 25.8093C34.7891 25.8222 34.7891 25.837 34.7928 25.85C34.7983 25.874 34.8076 25.8814 34.8316 25.8833C34.8427 25.8833 34.8538 25.8833 34.8649 25.8833C35.1867 25.8833 35.5103 25.8833 35.8321 25.8833C35.8432 25.8833 35.8562 25.8851 35.8747 25.8888C35.8654 25.9036 35.8617 25.9129 35.8543 25.9184C35.723 26.0497 35.5917 26.1792 35.4604 26.3105C35.355 26.4159 35.2496 26.5195 35.1442 26.6249C35.1127 26.6563 35.1146 26.684 35.1479 26.7155C35.1959 26.7617 35.2422 26.8098 35.2903 26.856C35.3254 26.8912 35.3624 26.9263 35.3975 26.9633C35.4937 27.0595 35.5899 27.1556 35.686 27.2518C35.7378 27.3036 35.7896 27.3535 35.8414 27.4053C35.8506 27.4145 35.8673 27.4238 35.858 27.4478C35.8469 27.4478 35.8358 27.4497 35.8247 27.4497C35.5029 27.4497 35.1793 27.4497 34.8575 27.4497C34.8501 27.4497 34.8427 27.4497 34.8353 27.4497C34.8076 27.4515 34.7946 27.4626 34.7909 27.4922C34.7891 27.5015 34.7891 27.5125 34.7891 27.5218C34.7891 27.8288 34.7891 28.1339 34.7891 28.4409C34.7891 28.4668 34.7909 28.4909 34.7891 28.5167C34.7891 28.526 34.7835 28.5352 34.7798 28.5463C34.7706 28.5408 34.7632 28.5389 34.7595 28.5352C34.7003 28.4761 34.6411 28.415 34.582 28.3559C34.5024 28.2745 34.4229 28.195 34.3434 28.1136C34.2694 28.0396 34.1936 27.9656 34.1178 27.8917C34.0937 27.8695 34.0715 27.8454 34.0494 27.8214C34.0124 27.7826 33.9846 27.7844 33.9476 27.8232C33.8866 27.8861 33.8237 27.949 33.7609 28.01C33.7072 28.0637 33.6536 28.1191 33.5981 28.1728C33.5519 28.2172 33.5075 28.2634 33.4613 28.3078C33.391 28.378 33.3207 28.4502 33.2523 28.5204C33.243 28.5297 33.2356 28.5371 33.2264 28.5445C33.206 28.5315 33.2116 28.5149 33.2116 28.502C33.2116 28.3891 33.2116 28.2745 33.2116 28.1617C33.2116 27.9508 33.2116 27.74 33.2116 27.531C33.2116 27.5255 33.2116 27.5218 33.2116 27.5162C33.2097 27.4645 33.1986 27.4515 33.1469 27.4515C32.8935 27.4515 32.6401 27.4515 32.3868 27.4515C32.3165 27.4515 32.2462 27.4515 32.176 27.4515C32.1649 27.4515 32.1538 27.4497 32.1445 27.4497C32.1334 27.4312 32.1445 27.4219 32.1538 27.4108C32.1926 27.372 32.2296 27.335 32.2684 27.2962C32.335 27.2296 32.3997 27.1649 32.4663 27.0983C32.5828 26.9818 32.6993 26.8653 32.8158 26.7488C32.8269 26.7377 32.8399 26.7266 32.8528 26.7155C32.8824 26.6896 32.8824 26.6545 32.8565 26.6267C32.7567 26.5268 32.6549 26.4288 32.5551 26.329C32.4719 26.2457 32.3886 26.1607 32.3054 26.0775C32.2536 26.0257 32.2 25.9757 32.1482 25.9258C32.1445 25.9221 32.139 25.9166 32.1353 25.911C32.1297 25.8999 32.1316 25.8907 32.1445 25.8888Z" fill="#AA1F23"/>
<path d="M38.5404 31.8783H29.4656V19.0863C29.4656 18.513 29.0014 18.0488 28.4281 18.0488C27.8548 18.0488 27.3906 18.513 27.3906 19.0863V40.3483C27.3906 40.9216 27.8548 41.3858 28.4281 41.3858C29.0014 41.3858 29.4656 40.9216 29.4656 40.3483V33.9532H38.5404V40.3483C38.5404 40.9216 39.0045 41.3858 39.5778 41.3858C40.1511 41.3858 40.6153 40.9216 40.6153 40.3483V19.0863C40.6153 18.513 40.1511 18.0488 39.5778 18.0488C39.0045 18.0488 38.5404 18.513 38.5404 19.0863V31.8783V31.8783Z" fill="#AA1F23"/>
<path d="M21.4258 13.4461V40.3486C21.4258 40.9219 21.89 41.386 22.4633 41.386C23.0366 41.386 23.5008 40.9219 23.5008 40.3486V15.5192C23.5008 14.9126 23.9927 14.4188 24.6011 14.4188H31.8654C32.4719 14.4188 32.9657 14.9108 32.9657 15.5192V20.4292C32.9657 20.9951 33.4262 21.4501 33.9903 21.4482C33.9995 21.4482 34.0069 21.4482 34.0162 21.4482C34.5802 21.4482 35.0388 20.9933 35.0388 20.4292V15.5192C35.0388 14.9126 35.5308 14.4188 36.1392 14.4188H43.4035C44.01 14.4188 44.5038 14.9108 44.5038 15.5192V40.3486C44.5038 40.9219 44.968 41.386 45.5413 41.386C46.1146 41.386 46.5788 40.9219 46.5788 40.3486V13.4461C46.5788 12.8395 46.0869 12.3457 45.4784 12.3457H22.5261C21.9177 12.3457 21.4258 12.8376 21.4258 13.4461Z" fill="#AA1F23"/>
<path d="M8.71021 48.3349C8.71206 48.0556 8.61774 47.7949 8.44021 47.5785C8.34034 47.4546 8.21828 47.3529 8.08143 47.2678C8.15171 47.2105 8.21828 47.1476 8.27192 47.0755C8.40507 46.9053 8.47164 46.6945 8.4698 46.4689C8.47164 46.2266 8.39397 46.0028 8.24233 45.8253C8.09623 45.6533 7.90204 45.5275 7.67273 45.4443C7.44526 45.3611 7.19559 45.3223 6.93114 45.3223H5.52193H5.19275H5.00781V45.7458V47.1938V47.4324V49.2373V49.4371V49.4759V49.6608H7.166C7.43971 49.6608 7.69862 49.6054 7.92979 49.4926C8.1591 49.3797 8.34959 49.2226 8.49199 49.0247C8.63624 48.8212 8.71206 48.5845 8.71021 48.3349ZM7.50628 46.774C7.45265 46.8517 7.38608 46.9053 7.28991 46.946C7.18635 46.9867 7.06984 47.0089 6.93299 47.0089H5.70872V45.9307H6.93299C7.06984 45.9307 7.18635 45.9529 7.28806 45.9936C7.38423 46.0324 7.45265 46.0879 7.50443 46.1637C7.55252 46.234 7.58211 46.3283 7.58211 46.467C7.58396 46.6094 7.55437 46.7056 7.50628 46.774ZM7.63389 48.8638C7.50443 48.9932 7.36388 49.0506 7.16785 49.0524H5.70872V47.6173H7.16785C7.36388 47.6192 7.50443 47.6783 7.63389 47.8078C7.75595 47.9336 7.82067 48.0944 7.82252 48.3349C7.82067 48.5753 7.75595 48.738 7.63389 48.8638Z" fill="#AA1F23"/>
<path d="M10.9276 45.3223L10.8777 45.4314L8.97656 49.6608H9.62199L11.0497 46.48L12.5292 49.6608H13.4372L11.4898 45.3223H10.9276Z" fill="#AA1F23"/>
<path d="M19.9609 45.9307H20.1459H21.3886V49.6608H22.2356V45.9307H23.6633V45.3223H19.9609V45.9307Z" fill="#AA1F23"/>
<path d="M28.9227 48.076L26.4723 45.3223H25.8047V49.6608H26.4131V46.6557L29.0632 49.6608H29.3462H29.5311V45.3223H28.9227V48.076Z" fill="#AA1F23"/>
<path d="M59.0878 45.3223L59.0397 45.4314L57.1367 49.6608H57.7821L59.2117 46.48L60.6893 49.6608H61.5973L59.65 45.3223H59.0878Z" fill="#AA1F23"/>
<path d="M38.7401 45.3223L38.6902 45.4314L36.7891 49.6608H37.4326L38.8622 46.48L40.3398 49.6608H41.2497L39.3023 45.3223H38.7401Z" fill="#AA1F23"/>
<path d="M45.1279 45.3223V48.076L42.6775 45.3223H42.0117V49.6608H42.6202V46.6557L45.2684 49.6608H45.5514H45.7382V45.3223H45.1279Z" fill="#AA1F23"/>
<path d="M17.5758 46.3515C17.376 46.0131 17.106 45.7412 16.7731 45.5415C16.4384 45.338 16.0648 45.2363 15.6672 45.2363C15.2715 45.2363 14.8998 45.338 14.565 45.5415C14.2321 45.7412 13.964 46.0149 13.7643 46.3515C13.5608 46.6936 13.4591 47.0746 13.461 47.4851C13.461 47.8957 13.5627 48.2767 13.7661 48.6169C13.9658 48.9535 14.2358 49.2254 14.5687 49.4233C14.8646 49.6027 15.1901 49.7007 15.5341 49.7229V49.1163C15.3288 49.0959 15.1494 49.0331 14.9867 48.9202C14.7888 48.7815 14.6353 48.5929 14.5188 48.3432C14.4041 48.0954 14.345 47.8106 14.345 47.4833C14.345 47.156 14.4041 46.8712 14.5206 46.6233C14.6371 46.3737 14.7925 46.1851 14.9904 46.0482C15.1846 45.9132 15.4046 45.8466 15.6672 45.8448C16.0741 45.8559 16.3718 46.0001 16.6197 46.3016C16.8656 46.6049 16.9914 46.9895 16.9932 47.4833C16.9932 47.8106 16.934 48.0954 16.8212 48.3432C16.7066 48.5929 16.5531 48.7797 16.3552 48.9202C16.2313 49.0053 16.0963 49.0626 15.9483 49.0959V49.7081C16.2424 49.6729 16.5216 49.5786 16.7787 49.4233C17.1097 49.2235 17.3779 48.9517 17.5795 48.6151C17.7829 48.2748 17.8846 47.892 17.8846 47.4833C17.8791 47.0764 17.7773 46.6936 17.5758 46.3515Z" fill="#AA1F23"/>
<path d="M47.4759 46.7759V45.3223H47.291H46.6289V46.7759H47.4759Z" fill="#AA1F23"/>
<path d="M50.5699 47.7967V47.7024V45.3223H49.7229V47.1883H47.4759H46.6289V47.2863V49.6608H47.4759V47.7967H49.7229H50.5699Z" fill="#AA1F23"/>
<path d="M49.7227 48.2051V49.6587H49.9076H50.5697V48.2051H49.7227Z" fill="#AA1F23"/>
<path d="M53.3118 46.7759V45.3223H53.1269H52.4648V46.7759H53.3118Z" fill="#AA1F23"/>
<path d="M56.4058 47.7967V47.7024V45.3223H55.5588V47.1883H53.3118H52.4648V47.2863V49.6608H53.3118V47.7967H55.5588H56.4058Z" fill="#AA1F23"/>
<path d="M55.5586 48.2051V49.6587H55.7435H56.4056V48.2051H55.5586Z" fill="#AA1F23"/>
<path d="M24.3242 49.6245H24.511H25.1712V47.2425L24.3242 46.4824V49.6245Z" fill="#AA1F23"/>
<path d="M24.3242 45.2832V45.6068V45.7677V45.9046L25.1712 46.661V46.5963V46.4409V45.2832H24.3242Z" fill="#AA1F23"/>
<path d="M62.1445 49.6615H62.9915V47.2425L62.1445 46.4824V49.6615Z" fill="#AA1F23"/>
<path d="M62.1445 45.2832V45.6068V45.7677V45.9046L62.9915 46.661V46.5963V46.4409V45.2832H62.1445Z" fill="#AA1F23"/>
<path d="M33.8362 48.4329L32.3937 45.3223H31.6133V49.6608H32.2217V46.9959L33.4645 49.6608H33.9398L34.1691 49.1634L33.8362 48.4329Z" fill="#AA1F23"/>
<path d="M35.2465 45.3223L34.0703 47.9132L34.405 48.6437L35.1799 46.9552V49.6608H36.0306V45.3223H35.2465Z" fill="#AA1F23"/>
</svg>
