<svg width="225" height="51" viewBox="0 0 225 51" fill="none" xmlns="http://www.w3.org/2000/svg">
<path d="M0.383523 39L5.21307 9.90909H25.071L24.1051 15.6193H11.2784L10.3125 21.5852H21.875L20.9091 27.3097H9.34659L7.41477 39H0.383523ZM36.5661 28.5455H42.2479L44.3075 31.6278L46.8928 35.2642L50.9837 41.2727H44.62L41.7649 37.196L40.1456 34.2983L36.5661 28.5455ZM53.5831 24.9091C53.0528 28.0436 52.0111 30.6903 50.4581 32.8494C48.9145 34.9991 47.0348 36.6278 44.8189 37.7358C42.6125 38.8438 40.2403 39.3977 37.7024 39.3977C35.0225 39.3977 32.7024 38.8011 30.7422 37.608C28.782 36.4148 27.3568 34.6771 26.4666 32.3949C25.5859 30.1127 25.4155 27.3428 25.9553 24.0852C26.4666 20.9508 27.4941 18.2992 29.0376 16.1307C30.5907 13.9621 32.4799 12.3191 34.7053 11.2017C36.9401 10.0748 39.3359 9.51136 41.8928 9.51136C44.5537 9.51136 46.8596 10.1127 48.8104 11.3153C50.7706 12.518 52.1911 14.2652 53.0717 16.5568C53.9524 18.8485 54.1229 21.6326 53.5831 24.9091ZM46.5518 24.0852C46.8454 22.2576 46.8454 20.7188 46.5518 19.4688C46.2678 18.2188 45.709 17.2765 44.8757 16.642C44.0424 15.9981 42.9581 15.6761 41.6229 15.6761C40.1456 15.6761 38.8104 16.0407 37.6172 16.7699C36.4335 17.4896 35.4439 18.5407 34.6484 19.9233C33.853 21.2964 33.299 22.9583 32.9865 24.9091C32.6645 26.7557 32.6551 28.2945 32.9581 29.5256C33.2706 30.7566 33.853 31.6847 34.7053 32.3097C35.5575 32.9252 36.6418 33.233 37.9581 33.233C39.4259 33.233 40.7469 32.8778 41.9212 32.1676C43.0954 31.4574 44.0755 30.4205 44.8615 29.0568C45.657 27.6932 46.2204 26.036 46.5518 24.0852ZM60.0355 39H52.4787L67.1236 9.90909H76.4844L81.4702 39H73.9134L70.7173 17.2386H70.4901L60.0355 39ZM60.9446 27.5511H76.7401L75.831 32.892H60.0355L60.9446 27.5511Z" fill="#FCFBFB"/>
<path d="M74.2017 39V9.90909H94.0597V15.6193H81.233V21.5852H92.7955V27.3097H81.233V39H74.2017ZM125.058 24.4545C125.058 27.6553 124.442 30.3684 123.211 32.5938C121.98 34.8191 120.313 36.5095 118.211 37.6648C116.118 38.8201 113.77 39.3977 111.165 39.3977C108.552 39.3977 106.199 38.8153 104.106 37.6506C102.013 36.4858 100.351 34.7955 99.12 32.5795C97.8984 30.3542 97.2876 27.6458 97.2876 24.4545C97.2876 21.2538 97.8984 18.5407 99.12 16.3153C100.351 14.09 102.013 12.3996 104.106 11.2443C106.199 10.089 108.552 9.51136 111.165 9.51136C113.77 9.51136 116.118 10.089 118.211 11.2443C120.313 12.3996 121.98 14.09 123.211 16.3153C124.442 18.5407 125.058 21.2538 125.058 24.4545ZM117.87 24.4545C117.87 22.5606 117.6 20.9602 117.06 19.6534C116.53 18.3466 115.763 17.357 114.759 16.6847C113.765 16.0123 112.567 15.6761 111.165 15.6761C109.773 15.6761 108.576 16.0123 107.572 16.6847C106.568 17.357 105.796 18.3466 105.256 19.6534C104.726 20.9602 104.461 22.5606 104.461 24.4545C104.461 26.3485 104.726 27.9489 105.256 29.2557C105.796 30.5625 106.568 31.5521 107.572 32.2244C108.576 32.8968 109.773 33.233 111.165 33.233C112.567 33.233 113.765 32.8968 114.759 32.2244C115.763 31.5521 116.53 30.5625 117.06 29.2557C117.6 27.9489 117.87 26.3485 117.87 24.4545ZM129.163 39V9.90909H141.18C143.358 9.90909 145.237 10.3021 146.819 11.0881C148.41 11.8646 149.636 12.982 150.498 14.4403C151.36 15.8892 151.79 17.608 151.79 19.5966C151.79 21.6136 151.35 23.3277 150.469 24.7386C149.589 26.1402 148.339 27.2102 146.719 27.9489C145.1 28.678 143.183 29.0426 140.967 29.0426H133.367V23.5028H139.66C140.72 23.5028 141.606 23.3655 142.316 23.0909C143.036 22.8068 143.58 22.3807 143.95 21.8125C144.319 21.2348 144.504 20.4962 144.504 19.5966C144.504 18.697 144.319 17.9536 143.95 17.3665C143.58 16.7699 143.036 16.3248 142.316 16.0312C141.596 15.7282 140.711 15.5767 139.66 15.5767H136.194V39H129.163ZM145.54 25.7045L152.785 39H145.114L138.012 25.7045H145.54ZM173.246 9.90909H180.263V28.6733C180.263 30.8419 179.747 32.7311 178.715 34.3409C177.683 35.9413 176.244 37.1818 174.397 38.0625C172.55 38.9337 170.406 39.3693 167.962 39.3693C165.491 39.3693 163.332 38.9337 161.485 38.0625C159.638 37.1818 158.204 35.9413 157.181 34.3409C156.158 32.7311 155.647 30.8419 155.647 28.6733V9.90909H162.678V28.0625C162.678 29.0663 162.896 29.9612 163.332 30.7472C163.777 31.5331 164.397 32.1487 165.192 32.5938C165.988 33.0388 166.911 33.2614 167.962 33.2614C169.013 33.2614 169.932 33.0388 170.718 32.5938C171.513 32.1487 172.134 31.5331 172.579 30.7472C173.024 29.9612 173.246 29.0663 173.246 28.0625V9.90909ZM184.67 9.90909H193.378L200.764 27.9205H201.105L208.491 9.90909H217.199V39H210.352V21.1307H210.111L203.122 38.8153H198.747L191.759 21.0312H191.517V39H184.67V9.90909Z" fill="#FCFBFB"/>
<rect y="44" width="225" height="7" fill="white"/>
</svg>
