<svg width="486" height="22" viewBox="0 0 486 22" fill="none" xmlns="http://www.w3.org/2000/svg">
<path d="M221.238 10.9817L220.757 8.12825L218.291 6.14865L217.748 3.09762L215.429 1.26892L212.629 0.244141L209.62 1.31557L206.611 0.244141L203.811 1.26892L201.489 3.09762L200.946 6.14865L198.48 8.12825L198 10.9817L198.48 13.8352L200.946 15.8148L201.489 18.8658L203.809 20.6945L206.609 21.7193L209.618 20.6479L212.627 21.7193L215.406 20.7014L215.427 20.6932L217.723 18.9029L218.29 15.8134L220.756 13.8338L221.238 10.9817ZM220.956 10.9817L220.5 13.6939L218.035 15.6721L217.468 18.7602L215.288 20.4599L212.626 21.434L209.618 20.3625L206.611 21.434L203.948 20.4599L201.744 18.7232L201.201 15.6735L198.735 13.6953L198.279 10.9831L198.735 8.27093L201.199 6.29269L201.742 3.24304L203.948 1.50489L206.609 0.530856L209.617 1.60228L212.624 0.530856L215.287 1.50489L217.491 3.24166L218.034 6.29132L220.5 8.26955L220.956 10.9817Z" fill="url(#paint0_linear_205_3627)"/>
<path d="M217.723 8.8069L215.519 7.69157L215.619 5.29081L213.571 4.37165L211.722 3.11914L209.619 4.40458L207.515 3.11914L205.666 4.37165L203.618 5.29081L203.718 7.69157L201.514 8.8069L201.713 10.9786L201.514 13.1516L203.718 14.2669L203.618 16.6677L205.666 17.5868L207.515 18.8394L209.619 17.5539L211.722 18.8394L213.57 17.5882L215.563 16.75L215.517 14.2683L217.725 13.1516L217.526 10.9799L217.723 8.8069ZM217.172 10.9799L217.354 12.9568L215.162 14.0653L215.207 16.5305L213.414 17.285L213.398 17.2919L211.714 18.4333L209.62 17.1547L207.526 18.4333L205.843 17.2933L203.979 16.4564L204.079 14.0666L201.885 12.9568L202.065 10.9799L201.883 9.00307L204.078 7.89323L203.977 5.50344L205.842 4.66661L207.525 3.52659L209.619 4.80517L211.712 3.52659L213.395 4.66661L215.26 5.50344L215.159 7.89323L217.354 9.00307L217.172 10.9799Z" fill="url(#paint1_linear_205_3627)"/>
<path d="M133.238 10.9817L132.757 8.12825L130.291 6.14865L129.748 3.09762L127.429 1.26892L124.629 0.244141L121.62 1.31557L118.611 0.244141L115.811 1.26892L113.489 3.09762L112.946 6.14865L110.48 8.12825L110 10.9817L110.48 13.8352L112.946 15.8148L113.489 18.8658L115.809 20.6945L118.609 21.7193L121.618 20.6479L124.627 21.7193L127.406 20.7014L127.427 20.6932L129.723 18.9029L130.29 15.8134L132.756 13.8338L133.238 10.9817ZM132.956 10.9817L132.5 13.6939L130.035 15.6721L129.468 18.7602L127.288 20.4599L124.626 21.434L121.618 20.3625L118.611 21.434L115.948 20.4599L113.744 18.7232L113.201 15.6735L110.735 13.6953L110.279 10.9831L110.735 8.27093L113.199 6.29269L113.742 3.24304L115.948 1.50489L118.609 0.530856L121.617 1.60228L124.624 0.530856L127.287 1.50489L129.491 3.24166L130.034 6.29132L132.5 8.26955L132.956 10.9817Z" fill="url(#paint2_linear_205_3627)"/>
<path d="M129.723 8.8069L127.519 7.69157L127.619 5.29081L125.571 4.37165L123.722 3.11914L121.619 4.40458L119.515 3.11914L117.666 4.37165L115.618 5.29081L115.718 7.69157L113.514 8.8069L113.713 10.9786L113.514 13.1516L115.718 14.2669L115.618 16.6677L117.666 17.5868L119.515 18.8394L121.619 17.5539L123.722 18.8394L125.57 17.5882L127.563 16.75L127.517 14.2683L129.725 13.1516L129.526 10.9799L129.723 8.8069ZM129.172 10.9799L129.354 12.9568L127.162 14.0653L127.207 16.5305L125.414 17.285L125.398 17.2919L123.714 18.4333L121.62 17.1547L119.526 18.4333L117.843 17.2933L115.979 16.4564L116.079 14.0666L113.885 12.9568L114.065 10.9799L113.883 9.00307L116.078 7.89323L115.977 5.50344L117.842 4.66661L119.525 3.52659L121.619 4.80517L123.712 3.52659L125.395 4.66661L127.26 5.50344L127.159 7.89323L129.354 9.00307L129.172 10.9799Z" fill="url(#paint3_linear_205_3627)"/>
<path d="M309.238 10.9817L308.757 8.12825L306.291 6.14865L305.748 3.09762L303.429 1.26892L300.629 0.244141L297.62 1.31557L294.611 0.244141L291.811 1.26892L289.489 3.09762L288.946 6.14865L286.48 8.12825L286 10.9817L286.48 13.8352L288.946 15.8148L289.489 18.8658L291.809 20.6945L294.609 21.7193L297.618 20.6479L300.627 21.7193L303.406 20.7014L303.427 20.6932L305.723 18.9029L306.29 15.8134L308.756 13.8338L309.238 10.9817ZM308.956 10.9817L308.5 13.6939L306.035 15.6721L305.468 18.7602L303.288 20.4599L300.626 21.434L297.618 20.3625L294.611 21.434L291.948 20.4599L289.744 18.7232L289.201 15.6735L286.735 13.6953L286.279 10.9831L286.735 8.27093L289.199 6.29269L289.742 3.24304L291.948 1.50489L294.609 0.530856L297.617 1.60228L300.624 0.530856L303.287 1.50489L305.491 3.24166L306.034 6.29132L308.5 8.26955L308.956 10.9817Z" fill="url(#paint4_linear_205_3627)"/>
<path d="M305.723 8.8069L303.519 7.69157L303.619 5.29081L301.571 4.37165L299.722 3.11914L297.619 4.40458L295.515 3.11914L293.666 4.37165L291.618 5.29081L291.718 7.69157L289.514 8.8069L289.713 10.9786L289.514 13.1516L291.718 14.2669L291.618 16.6677L293.666 17.5868L295.515 18.8394L297.619 17.5539L299.722 18.8394L301.57 17.5882L303.563 16.75L303.517 14.2683L305.725 13.1516L305.526 10.9799L305.723 8.8069ZM305.172 10.9799L305.354 12.9568L303.162 14.0653L303.207 16.5305L301.414 17.285L301.398 17.2919L299.714 18.4333L297.62 17.1547L295.526 18.4333L293.843 17.2933L291.979 16.4564L292.079 14.0666L289.885 12.9568L290.065 10.9799L289.883 9.00307L292.078 7.89323L291.977 5.50344L293.842 4.66661L295.525 3.52659L297.619 4.80517L299.712 3.52659L301.395 4.66661L303.26 5.50344L303.159 7.89323L305.354 9.00307L305.172 10.9799Z" fill="url(#paint5_linear_205_3627)"/>
<path d="M353.238 10.9817L352.757 8.12825L350.291 6.14865L349.748 3.09762L347.429 1.26892L344.629 0.244141L341.62 1.31557L338.611 0.244141L335.811 1.26892L333.489 3.09762L332.946 6.14865L330.48 8.12825L330 10.9817L330.48 13.8352L332.946 15.8148L333.489 18.8658L335.809 20.6945L338.609 21.7193L341.618 20.6479L344.627 21.7193L347.406 20.7014L347.427 20.6932L349.723 18.9029L350.29 15.8134L352.756 13.8338L353.238 10.9817ZM352.956 10.9817L352.5 13.6939L350.035 15.6721L349.468 18.7602L347.288 20.4599L344.626 21.434L341.618 20.3625L338.611 21.434L335.948 20.4599L333.744 18.7232L333.201 15.6735L330.735 13.6953L330.279 10.9831L330.735 8.27093L333.199 6.29269L333.742 3.24304L335.948 1.50489L338.609 0.530856L341.617 1.60228L344.624 0.530856L347.287 1.50489L349.491 3.24166L350.034 6.29132L352.5 8.26955L352.956 10.9817Z" fill="url(#paint6_linear_205_3627)"/>
<path d="M349.723 8.8069L347.519 7.69157L347.619 5.29081L345.571 4.37165L343.722 3.11914L341.619 4.40458L339.515 3.11914L337.666 4.37165L335.618 5.29081L335.718 7.69157L333.514 8.8069L333.713 10.9786L333.514 13.1516L335.718 14.2669L335.618 16.6677L337.666 17.5868L339.515 18.8394L341.619 17.5539L343.722 18.8394L345.57 17.5882L347.563 16.75L347.517 14.2683L349.725 13.1516L349.526 10.9799L349.723 8.8069ZM349.172 10.9799L349.354 12.9568L347.162 14.0653L347.207 16.5305L345.414 17.285L345.398 17.2919L343.714 18.4333L341.62 17.1547L339.526 18.4333L337.843 17.2933L335.979 16.4564L336.079 14.0666L333.885 12.9568L334.065 10.9799L333.883 9.00307L336.078 7.89323L335.977 5.50344L337.842 4.66661L339.525 3.52659L341.619 4.80517L343.712 3.52659L345.395 4.66661L347.26 5.50344L347.159 7.89323L349.354 9.00307L349.172 10.9799Z" fill="url(#paint7_linear_205_3627)"/>
<path d="M397.238 10.9817L396.757 8.12825L394.291 6.14865L393.748 3.09762L391.429 1.26892L388.629 0.244141L385.62 1.31557L382.611 0.244141L379.811 1.26892L377.489 3.09762L376.946 6.14865L374.48 8.12825L374 10.9817L374.48 13.8352L376.946 15.8148L377.489 18.8658L379.809 20.6945L382.609 21.7193L385.618 20.6479L388.627 21.7193L391.406 20.7014L391.427 20.6932L393.723 18.9029L394.29 15.8134L396.756 13.8338L397.238 10.9817ZM396.956 10.9817L396.5 13.6939L394.035 15.6721L393.468 18.7602L391.288 20.4599L388.626 21.434L385.618 20.3625L382.611 21.434L379.948 20.4599L377.744 18.7232L377.201 15.6735L374.735 13.6953L374.279 10.9831L374.735 8.27093L377.199 6.29269L377.742 3.24304L379.948 1.50489L382.609 0.530856L385.617 1.60228L388.624 0.530856L391.287 1.50489L393.491 3.24166L394.034 6.29132L396.5 8.26955L396.956 10.9817Z" fill="url(#paint8_linear_205_3627)"/>
<path d="M393.723 8.8069L391.519 7.69157L391.619 5.29081L389.571 4.37165L387.722 3.11914L385.619 4.40458L383.515 3.11914L381.666 4.37165L379.618 5.29081L379.718 7.69157L377.514 8.8069L377.713 10.9786L377.514 13.1516L379.718 14.2669L379.618 16.6677L381.666 17.5868L383.515 18.8394L385.619 17.5539L387.722 18.8394L389.57 17.5882L391.563 16.75L391.517 14.2683L393.725 13.1516L393.526 10.9799L393.723 8.8069ZM393.172 10.9799L393.354 12.9568L391.162 14.0653L391.207 16.5305L389.414 17.285L389.398 17.2919L387.714 18.4333L385.62 17.1547L383.526 18.4333L381.843 17.2933L379.979 16.4564L380.079 14.0666L377.885 12.9568L378.065 10.9799L377.883 9.00307L380.078 7.89323L379.977 5.50344L381.842 4.66661L383.525 3.52659L385.619 4.80517L387.712 3.52659L389.395 4.66661L391.26 5.50344L391.159 7.89323L393.354 9.00307L393.172 10.9799Z" fill="url(#paint9_linear_205_3627)"/>
<path d="M441.238 10.9817L440.757 8.12825L438.291 6.14865L437.748 3.09762L435.429 1.26892L432.629 0.244141L429.62 1.31557L426.611 0.244141L423.811 1.26892L421.489 3.09762L420.946 6.14865L418.48 8.12825L418 10.9817L418.48 13.8352L420.946 15.8148L421.489 18.8658L423.809 20.6945L426.609 21.7193L429.618 20.6479L432.627 21.7193L435.406 20.7014L435.427 20.6932L437.723 18.9029L438.29 15.8134L440.756 13.8338L441.238 10.9817ZM440.956 10.9817L440.5 13.6939L438.035 15.6721L437.468 18.7602L435.288 20.4599L432.626 21.434L429.618 20.3625L426.611 21.434L423.948 20.4599L421.744 18.7232L421.201 15.6735L418.735 13.6953L418.279 10.9831L418.735 8.27093L421.199 6.29269L421.742 3.24304L423.948 1.50489L426.609 0.530856L429.617 1.60228L432.624 0.530856L435.287 1.50489L437.491 3.24166L438.034 6.29132L440.5 8.26955L440.956 10.9817Z" fill="url(#paint10_linear_205_3627)"/>
<path d="M437.723 8.8069L435.519 7.69157L435.619 5.29081L433.571 4.37165L431.722 3.11914L429.619 4.40458L427.515 3.11914L425.666 4.37165L423.618 5.29081L423.718 7.69157L421.514 8.8069L421.713 10.9786L421.514 13.1516L423.718 14.2669L423.618 16.6677L425.666 17.5868L427.515 18.8394L429.619 17.5539L431.722 18.8394L433.57 17.5882L435.563 16.75L435.517 14.2683L437.725 13.1516L437.526 10.9799L437.723 8.8069ZM437.172 10.9799L437.354 12.9568L435.162 14.0653L435.207 16.5305L433.414 17.285L433.398 17.2919L431.714 18.4333L429.62 17.1547L427.526 18.4333L425.843 17.2933L423.979 16.4564L424.079 14.0666L421.885 12.9568L422.065 10.9799L421.883 9.00307L424.078 7.89323L423.977 5.50344L425.842 4.66661L427.525 3.52659L429.619 4.80517L431.712 3.52659L433.395 4.66661L435.26 5.50344L435.159 7.89323L437.354 9.00307L437.172 10.9799Z" fill="url(#paint11_linear_205_3627)"/>
<path d="M485.238 10.9817L484.757 8.12825L482.291 6.14865L481.748 3.09762L479.429 1.26892L476.629 0.244141L473.62 1.31557L470.611 0.244141L467.811 1.26892L465.489 3.09762L464.946 6.14865L462.48 8.12825L462 10.9817L462.48 13.8352L464.946 15.8148L465.489 18.8658L467.809 20.6945L470.609 21.7193L473.618 20.6479L476.627 21.7193L479.406 20.7014L479.427 20.6932L481.723 18.9029L482.29 15.8134L484.756 13.8338L485.238 10.9817ZM484.956 10.9817L484.5 13.6939L482.035 15.6721L481.468 18.7602L479.288 20.4599L476.626 21.434L473.618 20.3625L470.611 21.434L467.948 20.4599L465.744 18.7232L465.201 15.6735L462.735 13.6953L462.279 10.9831L462.735 8.27093L465.199 6.29269L465.742 3.24304L467.948 1.50489L470.609 0.530856L473.617 1.60228L476.624 0.530856L479.287 1.50489L481.491 3.24166L482.034 6.29132L484.5 8.26955L484.956 10.9817Z" fill="url(#paint12_linear_205_3627)"/>
<path d="M481.723 8.8069L479.519 7.69157L479.619 5.29081L477.571 4.37165L475.722 3.11914L473.619 4.40458L471.515 3.11914L469.666 4.37165L467.618 5.29081L467.718 7.69157L465.514 8.8069L465.713 10.9786L465.514 13.1516L467.718 14.2669L467.618 16.6677L469.666 17.5868L471.515 18.8394L473.619 17.5539L475.722 18.8394L477.57 17.5882L479.563 16.75L479.517 14.2683L481.725 13.1516L481.526 10.9799L481.723 8.8069ZM481.172 10.9799L481.354 12.9568L479.162 14.0653L479.207 16.5305L477.414 17.285L477.398 17.2919L475.714 18.4333L473.62 17.1547L471.526 18.4333L469.843 17.2933L467.979 16.4564L468.079 14.0666L465.885 12.9568L466.065 10.9799L465.883 9.00307L468.078 7.89323L467.977 5.50344L469.842 4.66661L471.525 3.52659L473.619 4.80517L475.712 3.52659L477.395 4.66661L479.26 5.50344L479.159 7.89323L481.354 9.00307L481.172 10.9799Z" fill="url(#paint13_linear_205_3627)"/>
<path d="M45.2378 10.9817L44.7574 8.12825L42.2913 6.14865L41.7484 3.09762L39.4287 1.26892L36.6286 0.244141L33.6196 1.31557L30.6106 0.244141L27.8105 1.26892L25.4894 3.09762L24.9465 6.14865L22.4804 8.12825L22 10.9817L22.4804 13.8352L24.9465 15.8148L25.4894 18.8658L27.8091 20.6945L30.6092 21.7193L33.6182 20.6479L36.6272 21.7193L39.406 20.7014L39.4273 20.6932L41.7228 18.9029L42.2899 15.8134L44.756 13.8338L45.2378 10.9817ZM44.9564 10.9817L44.5001 13.6939L42.0355 15.6721L41.4684 18.7602L39.288 20.4599L36.6258 21.434L33.6182 20.3625L30.6106 21.434L27.9484 20.4599L25.7439 18.7232L25.2009 15.6735L22.7348 13.6953L22.2786 10.9831L22.7348 8.27093L25.1995 6.29269L25.7424 3.24304L27.9484 1.50489L30.6092 0.530856L33.6168 1.60228L36.6244 0.530856L39.2866 1.50489L41.4911 3.24166L42.0341 6.29132L44.5001 8.26955L44.9564 10.9817Z" fill="url(#paint14_linear_205_3627)"/>
<path d="M41.7231 8.8069L39.5186 7.69157L39.6195 5.29081L37.5713 4.37165L35.7221 3.11914L33.6185 4.40458L31.5149 3.11914L29.6657 4.37165L27.6175 5.29081L27.7184 7.69157L25.5139 8.8069L25.7129 10.9786L25.5139 13.1516L27.7184 14.2669L27.6175 16.6677L29.6657 17.5868L31.5149 18.8394L33.6185 17.5539L35.7221 18.8394L37.5699 17.5882L39.5626 16.75L39.5172 14.2683L41.7245 13.1516L41.5255 10.9799L41.7231 8.8069ZM41.1716 10.9799L41.3536 12.9568L39.1618 14.0653L39.2073 16.5305L37.4135 17.285L37.3979 17.2919L35.7136 18.4333L33.6199 17.1547L31.5263 18.4333L29.8434 17.2933L27.9786 16.4564L28.0795 14.0666L25.8849 12.9568L26.0654 10.9799L25.8835 9.00307L28.078 7.89323L27.9771 5.50344L29.842 4.66661L31.5248 3.52659L33.6185 4.80517L35.7122 3.52659L37.3951 4.66661L39.2599 5.50344L39.159 7.89323L41.3536 9.00307L41.1716 10.9799Z" fill="url(#paint15_linear_205_3627)"/>
<path d="M265.238 10.9817L264.757 8.12825L262.291 6.14865L261.748 3.09762L259.429 1.26892L256.629 0.244141L253.62 1.31557L250.611 0.244141L247.811 1.26892L245.489 3.09762L244.946 6.14865L242.48 8.12825L242 10.9817L242.48 13.8352L244.946 15.8148L245.489 18.8658L247.809 20.6945L250.609 21.7193L253.618 20.6479L256.627 21.7193L259.406 20.7014L259.427 20.6932L261.723 18.9029L262.29 15.8134L264.756 13.8338L265.238 10.9817ZM264.956 10.9817L264.5 13.6939L262.035 15.6721L261.468 18.7602L259.288 20.4599L256.626 21.434L253.618 20.3625L250.611 21.434L247.948 20.4599L245.744 18.7232L245.201 15.6735L242.735 13.6953L242.279 10.9831L242.735 8.27093L245.199 6.29269L245.742 3.24304L247.948 1.50489L250.609 0.530856L253.617 1.60228L256.624 0.530856L259.287 1.50489L261.491 3.24166L262.034 6.29132L264.5 8.26955L264.956 10.9817Z" fill="url(#paint16_linear_205_3627)"/>
<path d="M261.723 8.8069L259.519 7.69157L259.619 5.29081L257.571 4.37165L255.722 3.11914L253.619 4.40458L251.515 3.11914L249.666 4.37165L247.618 5.29081L247.718 7.69157L245.514 8.8069L245.713 10.9786L245.514 13.1516L247.718 14.2669L247.618 16.6677L249.666 17.5868L251.515 18.8394L253.619 17.5539L255.722 18.8394L257.57 17.5882L259.563 16.75L259.517 14.2683L261.725 13.1516L261.526 10.9799L261.723 8.8069ZM261.172 10.9799L261.354 12.9568L259.162 14.0653L259.207 16.5305L257.414 17.285L257.398 17.2919L255.714 18.4333L253.62 17.1547L251.526 18.4333L249.843 17.2933L247.979 16.4564L248.079 14.0666L245.885 12.9568L246.065 10.9799L245.883 9.00307L248.078 7.89323L247.977 5.50344L249.842 4.66661L251.525 3.52659L253.619 4.80517L255.712 3.52659L257.395 4.66661L259.26 5.50344L259.159 7.89323L261.354 9.00307L261.172 10.9799Z" fill="url(#paint17_linear_205_3627)"/>
<path d="M177.238 10.9817L176.757 8.12825L174.291 6.14865L173.748 3.09762L171.429 1.26892L168.629 0.244141L165.62 1.31557L162.611 0.244141L159.811 1.26892L157.489 3.09762L156.946 6.14865L154.48 8.12825L154 10.9817L154.48 13.8352L156.946 15.8148L157.489 18.8658L159.809 20.6945L162.609 21.7193L165.618 20.6479L168.627 21.7193L171.406 20.7014L171.427 20.6932L173.723 18.9029L174.29 15.8134L176.756 13.8338L177.238 10.9817ZM176.956 10.9817L176.5 13.6939L174.035 15.6721L173.468 18.7602L171.288 20.4599L168.626 21.434L165.618 20.3625L162.611 21.434L159.948 20.4599L157.744 18.7232L157.201 15.6735L154.735 13.6953L154.279 10.9831L154.735 8.27093L157.199 6.29269L157.742 3.24304L159.948 1.50489L162.609 0.530856L165.617 1.60228L168.624 0.530856L171.287 1.50489L173.491 3.24166L174.034 6.29132L176.5 8.26955L176.956 10.9817Z" fill="url(#paint18_linear_205_3627)"/>
<path d="M173.723 8.8069L171.519 7.69157L171.619 5.29081L169.571 4.37165L167.722 3.11914L165.619 4.40458L163.515 3.11914L161.666 4.37165L159.618 5.29081L159.718 7.69157L157.514 8.8069L157.713 10.9786L157.514 13.1516L159.718 14.2669L159.618 16.6677L161.666 17.5868L163.515 18.8394L165.619 17.5539L167.722 18.8394L169.57 17.5882L171.563 16.75L171.517 14.2683L173.725 13.1516L173.526 10.9799L173.723 8.8069ZM173.172 10.9799L173.354 12.9568L171.162 14.0653L171.207 16.5305L169.414 17.285L169.398 17.2919L167.714 18.4333L165.62 17.1547L163.526 18.4333L161.843 17.2933L159.979 16.4564L160.079 14.0666L157.885 12.9568L158.065 10.9799L157.883 9.00307L160.078 7.89323L159.977 5.50344L161.842 4.66661L163.525 3.52659L165.619 4.80517L167.712 3.52659L169.395 4.66661L171.26 5.50344L171.159 7.89323L173.354 9.00307L173.172 10.9799Z" fill="url(#paint19_linear_205_3627)"/>
<path d="M89.2378 10.9817L88.7574 8.12825L86.2913 6.14865L85.7484 3.09762L83.4287 1.26892L80.6286 0.244141L77.6196 1.31557L74.6106 0.244141L71.8105 1.26892L69.4894 3.09762L68.9465 6.14865L66.4804 8.12825L66 10.9817L66.4804 13.8352L68.9465 15.8148L69.4894 18.8658L71.8091 20.6945L74.6092 21.7193L77.6182 20.6479L80.6272 21.7193L83.406 20.7014L83.4273 20.6932L85.7228 18.9029L86.2899 15.8134L88.756 13.8338L89.2378 10.9817ZM88.9564 10.9817L88.5001 13.6939L86.0355 15.6721L85.4684 18.7602L83.288 20.4599L80.6258 21.434L77.6182 20.3625L74.6106 21.434L71.9484 20.4599L69.7439 18.7232L69.2009 15.6735L66.7348 13.6953L66.2786 10.9831L66.7348 8.27093L69.1995 6.29269L69.7424 3.24304L71.9484 1.50489L74.6092 0.530856L77.6168 1.60228L80.6244 0.530856L83.2866 1.50489L85.4911 3.24166L86.0341 6.29132L88.5001 8.26955L88.9564 10.9817Z" fill="url(#paint20_linear_205_3627)"/>
<path d="M85.7231 8.8069L83.5186 7.69157L83.6195 5.29081L81.5713 4.37165L79.7221 3.11914L77.6185 4.40458L75.5149 3.11914L73.6657 4.37165L71.6175 5.29081L71.7184 7.69157L69.5139 8.8069L69.7129 10.9786L69.5139 13.1516L71.7184 14.2669L71.6175 16.6677L73.6657 17.5868L75.5149 18.8394L77.6185 17.5539L79.7221 18.8394L81.5699 17.5882L83.5626 16.75L83.5172 14.2683L85.7245 13.1516L85.5255 10.9799L85.7231 8.8069ZM85.1716 10.9799L85.3536 12.9568L83.1618 14.0653L83.2073 16.5305L81.4135 17.285L81.3979 17.2919L79.7136 18.4333L77.6199 17.1547L75.5263 18.4333L73.8434 17.2933L71.9786 16.4564L72.0795 14.0666L69.8849 12.9568L70.0654 10.9799L69.8835 9.00307L72.078 7.89323L71.9771 5.50344L73.842 4.66661L75.5248 3.52659L77.6185 4.80517L79.7122 3.52659L81.3951 4.66661L83.2599 5.50344L83.159 7.89323L85.3536 9.00307L85.1716 10.9799Z" fill="url(#paint21_linear_205_3627)"/>
<path d="M243.238 10.9817L242.757 8.12825L240.291 6.14865L239.748 3.09762L237.429 1.26892L234.629 0.244141L231.62 1.31557L228.611 0.244141L225.811 1.26892L223.489 3.09762L222.946 6.14865L220.48 8.12825L220 10.9817L220.48 13.8352L222.946 15.8148L223.489 18.8658L225.809 20.6945L228.609 21.7193L231.618 20.6479L234.627 21.7193L237.406 20.7014L237.427 20.6932L239.723 18.9043L240.29 15.8148L242.756 13.8352L243.238 10.9817ZM242.956 10.9817L242.5 13.6939L240.035 15.6721L239.468 18.7602L237.288 20.4599L234.626 21.434L231.618 20.3625L228.611 21.434L225.948 20.4599L223.744 18.7232L223.201 15.6735L220.735 13.6953L220.279 10.9831L220.735 8.27093L223.199 6.29269L223.742 3.24304L225.948 1.50489L228.609 0.530856L231.617 1.60228L234.624 0.530856L237.287 1.50489L239.491 3.24166L240.034 6.29132L242.5 8.26955L242.956 10.9817Z" fill="url(#paint22_linear_205_3627)"/>
<path d="M155.238 10.9817L154.757 8.12825L152.291 6.14865L151.748 3.09762L149.429 1.26892L146.629 0.244141L143.62 1.31557L140.611 0.244141L137.811 1.26892L135.489 3.09762L134.946 6.14865L132.48 8.12825L132 10.9817L132.48 13.8352L134.946 15.8148L135.489 18.8658L137.809 20.6945L140.609 21.7193L143.618 20.6479L146.627 21.7193L149.406 20.7014L149.427 20.6932L151.723 18.9043L152.29 15.8148L154.756 13.8352L155.238 10.9817ZM154.956 10.9817L154.5 13.6939L152.035 15.6721L151.468 18.7602L149.288 20.4599L146.626 21.434L143.618 20.3625L140.611 21.434L137.948 20.4599L135.744 18.7232L135.201 15.6735L132.735 13.6953L132.279 10.9831L132.735 8.27093L135.199 6.29269L135.742 3.24304L137.948 1.50489L140.609 0.530856L143.617 1.60228L146.624 0.530856L149.287 1.50489L151.491 3.24166L152.034 6.29132L154.5 8.26955L154.956 10.9817Z" fill="url(#paint23_linear_205_3627)"/>
<path d="M287.238 10.9817L286.757 8.12825L284.291 6.14865L283.748 3.09762L281.429 1.26892L278.629 0.244141L275.62 1.31557L272.611 0.244141L269.811 1.26892L267.489 3.09762L266.946 6.14865L264.48 8.12825L264 10.9817L264.48 13.8352L266.946 15.8148L267.489 18.8658L269.809 20.6945L272.609 21.7193L275.618 20.6479L278.627 21.7193L281.406 20.7014L281.427 20.6932L283.723 18.9043L284.29 15.8148L286.756 13.8352L287.238 10.9817ZM286.956 10.9817L286.5 13.6939L284.035 15.6721L283.468 18.7602L281.288 20.4599L278.626 21.434L275.618 20.3625L272.611 21.434L269.948 20.4599L267.744 18.7232L267.201 15.6735L264.735 13.6953L264.279 10.9831L264.735 8.27093L267.199 6.29269L267.742 3.24304L269.948 1.50489L272.609 0.530856L275.617 1.60228L278.624 0.530856L281.287 1.50489L283.491 3.24166L284.034 6.29132L286.5 8.26955L286.956 10.9817Z" fill="url(#paint24_linear_205_3627)"/>
<path d="M67.2378 10.9817L66.7574 8.12825L64.2913 6.14865L63.7484 3.09762L61.4287 1.26892L58.6286 0.244141L55.6196 1.31557L52.6106 0.244141L49.8105 1.26892L47.4894 3.09762L46.9465 6.14865L44.4804 8.12825L44 10.9817L44.4804 13.8352L46.9465 15.8148L47.4894 18.8658L49.8091 20.6945L52.6092 21.7193L55.6182 20.6479L58.6272 21.7193L61.406 20.7014L61.4273 20.6932L63.7228 18.9043L64.2899 15.8148L66.756 13.8352L67.2378 10.9817ZM66.9564 10.9817L66.5001 13.6939L64.0355 15.6721L63.4684 18.7602L61.288 20.4599L58.6258 21.434L55.6182 20.3625L52.6106 21.434L49.9484 20.4599L47.7439 18.7232L47.2009 15.6735L44.7348 13.6953L44.2786 10.9831L44.7348 8.27093L47.1995 6.29269L47.7424 3.24304L49.9484 1.50489L52.6092 0.530856L55.6168 1.60228L58.6244 0.530856L61.2866 1.50489L63.4911 3.24166L64.0341 6.29132L66.5001 8.26955L66.9564 10.9817Z" fill="url(#paint25_linear_205_3627)"/>
<path d="M331.238 10.9817L330.757 8.12825L328.291 6.14865L327.748 3.09762L325.429 1.26892L322.629 0.244141L319.62 1.31557L316.611 0.244141L313.811 1.26892L311.489 3.09762L310.946 6.14865L308.48 8.12825L308 10.9817L308.48 13.8352L310.946 15.8148L311.489 18.8658L313.809 20.6945L316.609 21.7193L319.618 20.6479L322.627 21.7193L325.406 20.7014L325.427 20.6932L327.723 18.9043L328.29 15.8148L330.756 13.8352L331.238 10.9817ZM330.956 10.9817L330.5 13.6939L328.035 15.6721L327.468 18.7602L325.288 20.4599L322.626 21.434L319.618 20.3625L316.611 21.434L313.948 20.4599L311.744 18.7232L311.201 15.6735L308.735 13.6953L308.279 10.9831L308.735 8.27093L311.199 6.29269L311.742 3.24304L313.948 1.50489L316.609 0.530856L319.617 1.60228L322.624 0.530856L325.287 1.50489L327.491 3.24166L328.034 6.29132L330.5 8.26955L330.956 10.9817Z" fill="url(#paint26_linear_205_3627)"/>
<path d="M375.238 10.9817L374.757 8.12825L372.291 6.14865L371.748 3.09762L369.429 1.26892L366.629 0.244141L363.62 1.31557L360.611 0.244141L357.811 1.26892L355.489 3.09762L354.946 6.14865L352.48 8.12825L352 10.9817L352.48 13.8352L354.946 15.8148L355.489 18.8658L357.809 20.6945L360.609 21.7193L363.618 20.6479L366.627 21.7193L369.406 20.7014L369.427 20.6932L371.723 18.9043L372.29 15.8148L374.756 13.8352L375.238 10.9817ZM374.956 10.9817L374.5 13.6939L372.035 15.6721L371.468 18.7602L369.288 20.4599L366.626 21.434L363.618 20.3625L360.611 21.434L357.948 20.4599L355.744 18.7232L355.201 15.6735L352.735 13.6953L352.279 10.9831L352.735 8.27093L355.199 6.29269L355.742 3.24304L357.948 1.50489L360.609 0.530856L363.617 1.60228L366.624 0.530856L369.287 1.50489L371.491 3.24166L372.034 6.29132L374.5 8.26955L374.956 10.9817Z" fill="url(#paint27_linear_205_3627)"/>
<path d="M419.238 10.9817L418.757 8.12825L416.291 6.14865L415.748 3.09762L413.429 1.26892L410.629 0.244141L407.62 1.31557L404.611 0.244141L401.811 1.26892L399.489 3.09762L398.946 6.14865L396.48 8.12825L396 10.9817L396.48 13.8352L398.946 15.8148L399.489 18.8658L401.809 20.6945L404.609 21.7193L407.618 20.6479L410.627 21.7193L413.406 20.7014L413.427 20.6932L415.723 18.9043L416.29 15.8148L418.756 13.8352L419.238 10.9817ZM418.956 10.9817L418.5 13.6939L416.035 15.6721L415.468 18.7602L413.288 20.4599L410.626 21.434L407.618 20.3625L404.611 21.434L401.948 20.4599L399.744 18.7232L399.201 15.6735L396.735 13.6953L396.279 10.9831L396.735 8.27093L399.199 6.29269L399.742 3.24304L401.948 1.50489L404.609 0.530856L407.617 1.60228L410.624 0.530856L413.287 1.50489L415.491 3.24166L416.034 6.29132L418.5 8.26955L418.956 10.9817Z" fill="url(#paint28_linear_205_3627)"/>
<path d="M463.238 10.9817L462.757 8.12825L460.291 6.14865L459.748 3.09762L457.429 1.26892L454.629 0.244141L451.62 1.31557L448.611 0.244141L445.811 1.26892L443.489 3.09762L442.946 6.14865L440.48 8.12825L440 10.9817L440.48 13.8352L442.946 15.8148L443.489 18.8658L445.809 20.6945L448.609 21.7193L451.618 20.6479L454.627 21.7193L457.406 20.7014L457.427 20.6932L459.723 18.9043L460.29 15.8148L462.756 13.8352L463.238 10.9817ZM462.956 10.9817L462.5 13.6939L460.035 15.6721L459.468 18.7602L457.288 20.4599L454.626 21.434L451.618 20.3625L448.611 21.434L445.948 20.4599L443.744 18.7232L443.201 15.6735L440.735 13.6953L440.279 10.9831L440.735 8.27093L443.199 6.29269L443.742 3.24304L445.948 1.50489L448.609 0.530856L451.617 1.60228L454.624 0.530856L457.287 1.50489L459.491 3.24166L460.034 6.29132L462.5 8.26955L462.956 10.9817Z" fill="url(#paint29_linear_205_3627)"/>
<path d="M23.2378 10.9817L22.7574 8.12825L20.2913 6.14865L19.7484 3.09762L17.4287 1.26892L14.6286 0.244141L11.6196 1.31557L8.6106 0.244141L5.81052 1.26892L3.48944 3.09762L2.94648 6.14865L0.480418 8.12825L0 10.9817L0.480418 13.8352L2.94648 15.8148L3.48944 18.8658L5.80909 20.6945L8.60917 21.7193L11.6182 20.6479L14.6272 21.7193L17.406 20.7014L17.4273 20.6932L19.7228 18.9043L20.2899 15.8148L22.756 13.8352L23.2378 10.9817ZM22.9564 10.9817L22.5001 13.6939L20.0355 15.6721L19.4684 18.7602L17.288 20.4599L14.6258 21.434L11.6182 20.3625L8.6106 21.434L5.94839 20.4599L3.74386 18.7232L3.2009 15.6735L0.734843 13.6953L0.278585 10.9831L0.734843 8.27093L3.19948 6.29269L3.74244 3.24304L5.94839 1.50489L8.60917 0.530856L11.6168 1.60228L14.6244 0.530856L17.2866 1.50489L19.4911 3.24166L20.0341 6.29132L22.5001 8.26955L22.9564 10.9817Z" fill="url(#paint30_linear_205_3627)"/>
<path d="M199.238 10.9817L198.757 8.12825L196.291 6.14865L195.748 3.09762L193.429 1.26892L190.629 0.244141L187.62 1.31557L184.611 0.244141L181.811 1.26892L179.489 3.09762L178.946 6.14865L176.48 8.12825L176 10.9817L176.48 13.8352L178.946 15.8148L179.489 18.8658L181.809 20.6945L184.609 21.7193L187.618 20.6479L190.627 21.7193L193.406 20.7014L193.427 20.6932L195.723 18.9043L196.29 15.8148L198.756 13.8352L199.238 10.9817ZM198.956 10.9817L198.5 13.6939L196.035 15.6721L195.468 18.7602L193.288 20.4599L190.626 21.434L187.618 20.3625L184.611 21.434L181.948 20.4599L179.744 18.7232L179.201 15.6735L176.735 13.6953L176.279 10.9831L176.735 8.27093L179.199 6.29269L179.742 3.24304L181.948 1.50489L184.609 0.530856L187.617 1.60228L190.624 0.530856L193.287 1.50489L195.491 3.24166L196.034 6.29132L198.5 8.26955L198.956 10.9817Z" fill="url(#paint31_linear_205_3627)"/>
<path d="M111.238 10.9817L110.757 8.12825L108.291 6.14865L107.748 3.09762L105.429 1.26892L102.629 0.244141L99.6196 1.31557L96.6106 0.244141L93.8105 1.26892L91.4894 3.09762L90.9465 6.14865L88.4804 8.12825L88 10.9817L88.4804 13.8352L90.9465 15.8148L91.4894 18.8658L93.8091 20.6945L96.6092 21.7193L99.6182 20.6479L102.627 21.7193L105.406 20.7014L105.427 20.6932L107.723 18.9043L108.29 15.8148L110.756 13.8352L111.238 10.9817ZM110.956 10.9817L110.5 13.6939L108.035 15.6721L107.468 18.7602L105.288 20.4599L102.626 21.434L99.6182 20.3625L96.6106 21.434L93.9484 20.4599L91.7439 18.7232L91.2009 15.6735L88.7348 13.6953L88.2786 10.9831L88.7348 8.27093L91.1995 6.29269L91.7424 3.24304L93.9484 1.50489L96.6092 0.530856L99.6168 1.60228L102.624 0.530856L105.287 1.50489L107.491 3.24166L108.034 6.29132L110.5 8.26955L110.956 10.9817Z" fill="url(#paint32_linear_205_3627)"/>
<defs>
<linearGradient id="paint0_linear_205_3627" x1="396.302" y1="-138.045" x2="648.598" y2="-354.257" gradientUnits="userSpaceOnUse">
<stop offset="0.398" stop-color="#CFB36B"/>
<stop offset="1" stop-color="#785F22"/>
</linearGradient>
<linearGradient id="paint1_linear_205_3627" x1="396.307" y1="-138.042" x2="648.603" y2="-354.253" gradientUnits="userSpaceOnUse">
<stop offset="0.398" stop-color="#CFB36B"/>
<stop offset="1" stop-color="#785F22"/>
</linearGradient>
<linearGradient id="paint2_linear_205_3627" x1="308.302" y1="-138.045" x2="560.598" y2="-354.257" gradientUnits="userSpaceOnUse">
<stop offset="0.398" stop-color="#CFB36B"/>
<stop offset="1" stop-color="#785F22"/>
</linearGradient>
<linearGradient id="paint3_linear_205_3627" x1="308.307" y1="-138.042" x2="560.603" y2="-354.253" gradientUnits="userSpaceOnUse">
<stop offset="0.398" stop-color="#CFB36B"/>
<stop offset="1" stop-color="#785F22"/>
</linearGradient>
<linearGradient id="paint4_linear_205_3627" x1="484.302" y1="-138.045" x2="736.598" y2="-354.257" gradientUnits="userSpaceOnUse">
<stop offset="0.398" stop-color="#CFB36B"/>
<stop offset="1" stop-color="#785F22"/>
</linearGradient>
<linearGradient id="paint5_linear_205_3627" x1="484.307" y1="-138.042" x2="736.603" y2="-354.253" gradientUnits="userSpaceOnUse">
<stop offset="0.398" stop-color="#CFB36B"/>
<stop offset="1" stop-color="#785F22"/>
</linearGradient>
<linearGradient id="paint6_linear_205_3627" x1="528.302" y1="-138.045" x2="780.598" y2="-354.257" gradientUnits="userSpaceOnUse">
<stop offset="0.398" stop-color="#CFB36B"/>
<stop offset="1" stop-color="#785F22"/>
</linearGradient>
<linearGradient id="paint7_linear_205_3627" x1="528.307" y1="-138.042" x2="780.603" y2="-354.253" gradientUnits="userSpaceOnUse">
<stop offset="0.398" stop-color="#CFB36B"/>
<stop offset="1" stop-color="#785F22"/>
</linearGradient>
<linearGradient id="paint8_linear_205_3627" x1="572.302" y1="-138.045" x2="824.598" y2="-354.257" gradientUnits="userSpaceOnUse">
<stop offset="0.398" stop-color="#CFB36B"/>
<stop offset="1" stop-color="#785F22"/>
</linearGradient>
<linearGradient id="paint9_linear_205_3627" x1="572.307" y1="-138.042" x2="824.603" y2="-354.253" gradientUnits="userSpaceOnUse">
<stop offset="0.398" stop-color="#CFB36B"/>
<stop offset="1" stop-color="#785F22"/>
</linearGradient>
<linearGradient id="paint10_linear_205_3627" x1="616.302" y1="-138.045" x2="868.598" y2="-354.257" gradientUnits="userSpaceOnUse">
<stop offset="0.398" stop-color="#CFB36B"/>
<stop offset="1" stop-color="#785F22"/>
</linearGradient>
<linearGradient id="paint11_linear_205_3627" x1="616.307" y1="-138.042" x2="868.603" y2="-354.253" gradientUnits="userSpaceOnUse">
<stop offset="0.398" stop-color="#CFB36B"/>
<stop offset="1" stop-color="#785F22"/>
</linearGradient>
<linearGradient id="paint12_linear_205_3627" x1="660.302" y1="-138.045" x2="912.598" y2="-354.257" gradientUnits="userSpaceOnUse">
<stop offset="0.398" stop-color="#CFB36B"/>
<stop offset="1" stop-color="#785F22"/>
</linearGradient>
<linearGradient id="paint13_linear_205_3627" x1="660.307" y1="-138.042" x2="912.603" y2="-354.253" gradientUnits="userSpaceOnUse">
<stop offset="0.398" stop-color="#CFB36B"/>
<stop offset="1" stop-color="#785F22"/>
</linearGradient>
<linearGradient id="paint14_linear_205_3627" x1="220.302" y1="-138.045" x2="472.598" y2="-354.257" gradientUnits="userSpaceOnUse">
<stop offset="0.398" stop-color="#CFB36B"/>
<stop offset="1" stop-color="#785F22"/>
</linearGradient>
<linearGradient id="paint15_linear_205_3627" x1="220.307" y1="-138.042" x2="472.603" y2="-354.253" gradientUnits="userSpaceOnUse">
<stop offset="0.398" stop-color="#CFB36B"/>
<stop offset="1" stop-color="#785F22"/>
</linearGradient>
<linearGradient id="paint16_linear_205_3627" x1="440.302" y1="-138.045" x2="692.598" y2="-354.257" gradientUnits="userSpaceOnUse">
<stop offset="0.398" stop-color="#CFB36B"/>
<stop offset="1" stop-color="#785F22"/>
</linearGradient>
<linearGradient id="paint17_linear_205_3627" x1="440.307" y1="-138.042" x2="692.603" y2="-354.253" gradientUnits="userSpaceOnUse">
<stop offset="0.398" stop-color="#CFB36B"/>
<stop offset="1" stop-color="#785F22"/>
</linearGradient>
<linearGradient id="paint18_linear_205_3627" x1="352.302" y1="-138.045" x2="604.598" y2="-354.257" gradientUnits="userSpaceOnUse">
<stop offset="0.398" stop-color="#CFB36B"/>
<stop offset="1" stop-color="#785F22"/>
</linearGradient>
<linearGradient id="paint19_linear_205_3627" x1="352.307" y1="-138.042" x2="604.603" y2="-354.253" gradientUnits="userSpaceOnUse">
<stop offset="0.398" stop-color="#CFB36B"/>
<stop offset="1" stop-color="#785F22"/>
</linearGradient>
<linearGradient id="paint20_linear_205_3627" x1="264.302" y1="-138.045" x2="516.598" y2="-354.257" gradientUnits="userSpaceOnUse">
<stop offset="0.398" stop-color="#CFB36B"/>
<stop offset="1" stop-color="#785F22"/>
</linearGradient>
<linearGradient id="paint21_linear_205_3627" x1="264.307" y1="-138.042" x2="516.603" y2="-354.253" gradientUnits="userSpaceOnUse">
<stop offset="0.398" stop-color="#CFB36B"/>
<stop offset="1" stop-color="#785F22"/>
</linearGradient>
<linearGradient id="paint22_linear_205_3627" x1="432.101" y1="-149.062" x2="684.397" y2="-365.273" gradientUnits="userSpaceOnUse">
<stop offset="0.398" stop-color="#CFB36B"/>
<stop offset="1" stop-color="#785F22"/>
</linearGradient>
<linearGradient id="paint23_linear_205_3627" x1="344.101" y1="-149.062" x2="596.397" y2="-365.273" gradientUnits="userSpaceOnUse">
<stop offset="0.398" stop-color="#CFB36B"/>
<stop offset="1" stop-color="#785F22"/>
</linearGradient>
<linearGradient id="paint24_linear_205_3627" x1="476.101" y1="-149.062" x2="728.397" y2="-365.273" gradientUnits="userSpaceOnUse">
<stop offset="0.398" stop-color="#CFB36B"/>
<stop offset="1" stop-color="#785F22"/>
</linearGradient>
<linearGradient id="paint25_linear_205_3627" x1="256.101" y1="-149.062" x2="508.397" y2="-365.273" gradientUnits="userSpaceOnUse">
<stop offset="0.398" stop-color="#CFB36B"/>
<stop offset="1" stop-color="#785F22"/>
</linearGradient>
<linearGradient id="paint26_linear_205_3627" x1="520.101" y1="-149.062" x2="772.397" y2="-365.273" gradientUnits="userSpaceOnUse">
<stop offset="0.398" stop-color="#CFB36B"/>
<stop offset="1" stop-color="#785F22"/>
</linearGradient>
<linearGradient id="paint27_linear_205_3627" x1="564.101" y1="-149.062" x2="816.397" y2="-365.273" gradientUnits="userSpaceOnUse">
<stop offset="0.398" stop-color="#CFB36B"/>
<stop offset="1" stop-color="#785F22"/>
</linearGradient>
<linearGradient id="paint28_linear_205_3627" x1="608.101" y1="-149.062" x2="860.397" y2="-365.273" gradientUnits="userSpaceOnUse">
<stop offset="0.398" stop-color="#CFB36B"/>
<stop offset="1" stop-color="#785F22"/>
</linearGradient>
<linearGradient id="paint29_linear_205_3627" x1="652.101" y1="-149.062" x2="904.397" y2="-365.273" gradientUnits="userSpaceOnUse">
<stop offset="0.398" stop-color="#CFB36B"/>
<stop offset="1" stop-color="#785F22"/>
</linearGradient>
<linearGradient id="paint30_linear_205_3627" x1="212.101" y1="-149.062" x2="464.397" y2="-365.273" gradientUnits="userSpaceOnUse">
<stop offset="0.398" stop-color="#CFB36B"/>
<stop offset="1" stop-color="#785F22"/>
</linearGradient>
<linearGradient id="paint31_linear_205_3627" x1="388.101" y1="-149.062" x2="640.397" y2="-365.273" gradientUnits="userSpaceOnUse">
<stop offset="0.398" stop-color="#CFB36B"/>
<stop offset="1" stop-color="#785F22"/>
</linearGradient>
<linearGradient id="paint32_linear_205_3627" x1="300.101" y1="-149.062" x2="552.397" y2="-365.273" gradientUnits="userSpaceOnUse">
<stop offset="0.398" stop-color="#CFB36B"/>
<stop offset="1" stop-color="#785F22"/>
</linearGradient>
</defs>
</svg>
