<svg width="267" height="216" viewBox="0 0 267 216" fill="none" xmlns="http://www.w3.org/2000/svg">
<mask id="mask0_817_4060" style="mask-type:alpha" maskUnits="userSpaceOnUse" x="0" y="0" width="267" height="216">
<rect width="267" height="216" fill="#D9D9D9"/>
</mask>
<g mask="url(#mask0_817_4060)">
<g opacity="0.2">
<path d="M77.5826 202.484L77.5499 202.528H77.5391L77.5826 202.484Z" fill="url(#paint0_linear_817_4060)"/>
<path d="M110.086 159.409L110.12 159.375H110.108L110.086 159.409Z" fill="url(#paint1_linear_817_4060)"/>
<path d="M40.0303 115.299L40.0078 115.266L40.0303 115.299Z" fill="url(#paint2_linear_817_4060)"/>
<path d="M81.4484 161.262L81.4375 161.219L81.4484 161.262Z" fill="url(#paint3_linear_817_4060)"/>
<path d="M63.9973 81.2969C9.48239 81.2969 -34.7031 125.482 -34.7031 179.997C-34.7031 234.512 9.48239 278.698 63.9973 278.698C118.512 278.698 162.698 234.512 162.698 179.997C162.698 125.482 118.512 81.2969 63.9973 81.2969ZM131.17 247.17C113.973 264.368 90.2304 274.989 63.9973 274.999C37.7534 274.999 14.0217 264.368 -3.17594 247.17C-20.3736 229.973 -30.994 206.23 -31.0048 179.997C-31.0048 153.753 -20.3736 130.022 -3.17594 112.824C14.0217 95.6264 37.7641 85.006 63.9973 84.9952C90.2304 84.9952 113.973 95.6264 131.17 112.824C148.368 130.022 158.989 153.764 158.999 179.997C158.999 206.241 148.368 229.973 131.17 247.17Z" fill="url(#paint4_linear_817_4060)"/>
<path d="M64.0036 57.2188C-3.80571 57.2188 -58.7734 112.186 -58.7734 179.996C-58.7734 247.805 -3.80571 302.773 64.0036 302.773C131.813 302.773 186.781 247.805 186.781 179.996C186.781 112.186 131.813 57.2188 64.0036 57.2188ZM148.644 264.636C126.983 286.298 97.0619 299.689 64.0036 299.689C30.9454 299.689 1.03549 286.298 -20.6368 264.636C-42.2982 242.975 -55.6897 213.054 -55.6897 179.996C-55.6897 146.938 -42.2982 117.028 -20.6368 95.3554C1.02471 73.694 30.9454 60.3025 64.0036 60.3025C97.0619 60.3025 126.972 73.694 148.644 95.3554C170.305 117.017 183.697 146.938 183.697 179.996C183.697 213.054 170.305 242.964 148.644 264.636Z" fill="url(#paint5_linear_817_4060)"/>
<path d="M64.0013 39.7031C-13.4797 39.7031 -76.2969 102.52 -76.2969 180.001C-76.2969 257.493 -13.4797 320.299 64.0013 320.299C141.482 320.299 204.299 257.482 204.299 180.001C204.299 102.52 141.493 39.7031 64.0013 39.7031ZM162.141 278.141C137.029 303.253 102.332 318.79 64.0121 318.79C25.6813 318.79 -9.00508 303.253 -34.1276 278.141C-59.2394 253.029 -74.7766 218.332 -74.7766 180.012C-74.7766 141.681 -59.2394 106.995 -34.1276 81.8831C-9.00508 56.7714 25.6813 41.2342 64.0121 41.2342C102.343 41.2342 137.029 56.7714 162.141 81.8831C187.253 106.995 202.79 141.692 202.79 180.012C202.779 218.332 187.253 253.018 162.141 278.141Z" fill="url(#paint6_linear_817_4060)"/>
<path d="M64 19C-24.9209 19 -97 91.0791 -97 180C-97 268.921 -24.9209 341 64 341C152.921 341 225 268.921 225 180C225 91.0791 152.921 19 64 19ZM177.526 293.526C148.468 322.584 108.336 340.547 64 340.547C19.6635 340.547 -20.4679 322.573 -49.5259 293.526C-78.5732 264.468 -96.5471 224.336 -96.5471 180C-96.5471 135.664 -78.5732 95.5321 -49.5259 66.4741C-20.4679 37.4268 19.6635 19.4529 64 19.4529C108.336 19.4529 148.468 37.4268 177.526 66.4741C206.584 95.5321 224.547 135.664 224.547 180C224.547 224.336 206.584 264.468 177.526 293.526Z" fill="url(#paint7_linear_817_4060)"/>
<path d="M126.169 156.833C125.835 156.833 125.565 156.941 125.328 157.081L125.317 157.092L125.328 157.081C124.94 157.307 124.616 157.588 124.325 157.868C123.516 158.655 122.708 159.453 121.91 160.283C121.36 160.876 121.058 161.2 120.961 161.254L120.886 161.286C120.842 161.297 120.724 161.307 120.519 161.307C120.282 161.307 119.948 161.297 119.495 161.297C118.158 161.286 116.831 161.286 115.505 161.286C113.64 161.286 111.775 161.297 109.909 161.297C109.607 161.297 109.349 161.307 109.068 161.318C109.305 161.092 109.532 160.865 109.78 160.617C110.718 159.669 111.624 158.72 112.551 157.792C113.608 156.736 114.707 155.69 115.786 154.622C116.217 154.191 116.616 153.76 117.004 153.339C117.155 153.178 117.295 153.081 117.435 153.016C117.575 152.951 117.726 152.919 117.942 152.919H118.018C118.514 152.94 119.009 152.94 119.495 152.94C120.12 152.94 120.745 152.93 121.36 152.93H121.522C121.845 152.93 122.212 152.962 122.622 152.962C122.74 152.962 122.859 152.962 122.977 152.951C123.376 152.93 123.775 152.854 124.142 152.574C124.325 152.434 124.476 152.25 124.573 152.035C124.67 151.819 124.702 151.603 124.702 151.388C124.702 151.097 124.638 150.838 124.552 150.579C124.433 150.256 124.282 149.965 124.142 149.706C123.56 148.66 122.977 147.592 122.341 146.536L122.298 146.46L122.341 146.536C121.425 145.016 120.497 143.463 119.495 141.964C117.888 139.538 116.109 137.242 114.125 135.107C111.839 132.638 109.489 130.168 106.761 128.055C105.1 126.761 103.472 125.306 101.499 124.163C99.9465 123.257 98.4262 122.222 96.8197 121.262C95.8601 120.691 94.8789 120.216 93.984 119.71C93.8438 119.634 93.6821 119.526 93.4557 119.419C93.24 119.311 92.9489 119.203 92.5931 119.203C92.3235 119.203 92.0216 119.278 91.7629 119.429C91.407 119.623 91.1375 119.968 91.0297 120.292C90.911 120.615 90.911 120.885 90.911 121.101C90.911 121.23 90.911 121.349 90.911 121.435V121.456C90.911 122.017 90.911 122.589 90.911 123.149C90.911 124.184 90.9111 125.219 90.9326 126.254V126.265C90.9326 126.416 90.911 126.502 90.8787 126.589C90.8464 126.675 90.7924 126.761 90.6738 126.869C88.0322 129.522 85.4121 132.174 82.7813 134.826C82.7813 134.061 82.7813 133.284 82.7813 132.519C82.7813 132.012 82.7813 131.516 82.7813 131.009C82.7813 128.497 82.7813 125.985 82.7705 123.473V123.462C82.7813 123.085 82.846 122.944 83.0293 122.729C83.4713 122.254 83.9242 121.791 84.3878 121.327C85.0347 120.68 85.7356 120.044 86.4041 119.332C86.7707 118.944 87.0295 118.47 87.0402 117.909C87.0402 117.521 86.8785 117.122 86.6197 116.842C86.361 116.561 86.0375 116.378 85.6817 116.259C84.6897 115.936 83.6762 115.537 82.5656 115.257C80.4954 114.739 78.4252 114.286 76.3551 113.833C75.665 113.682 75.0612 113.65 74.5652 113.542C72.0637 112.992 69.5407 112.788 67.0285 112.744C65.6699 112.723 64.2898 112.68 62.8989 112.68C61.5619 112.68 60.2033 112.723 58.834 112.874C57.8312 112.992 56.6991 112.949 55.5023 113.154C52.7205 113.661 49.8524 114.049 47.0275 114.836C45.4317 115.278 43.8467 115.763 42.2725 116.259C41.9275 116.367 41.604 116.561 41.3668 116.842C41.1296 117.122 40.9894 117.499 40.9894 117.866C40.9894 118.405 41.2482 118.879 41.604 119.257C42.4342 120.109 43.286 120.939 44.1055 121.769C44.4182 122.093 44.7416 122.47 45.1082 122.847C45.27 123.031 45.3023 123.128 45.3131 123.376V123.473C45.27 124.023 45.2376 124.594 45.2376 125.176C45.2376 126.405 45.2376 127.645 45.2376 128.875C45.2376 130.427 45.2376 131.991 45.2376 133.543C45.2376 133.953 45.2376 134.363 45.2376 134.762C44.4289 133.953 43.6203 133.144 42.8116 132.325C40.9247 130.438 39.0378 128.551 37.1186 126.675C36.9892 126.556 36.9353 126.459 36.8922 126.352C36.849 126.244 36.8275 126.125 36.8275 125.931V125.909V125.899C36.849 124.411 36.8383 122.912 36.849 121.435V121.187C36.849 121.025 36.849 120.831 36.8059 120.615C36.7412 120.281 36.6118 119.947 36.3531 119.677C36.0943 119.397 35.6954 119.224 35.318 119.235C35.0053 119.235 34.7142 119.332 34.4554 119.462C32.9998 120.238 31.5334 121.014 30.0886 121.845C27.5979 123.3 25.1503 124.864 22.8861 126.729C21.3658 127.98 19.8132 129.241 18.336 130.6C16.9127 131.904 15.5757 133.284 14.2711 134.675C13.236 135.775 12.2548 136.94 11.3383 138.126C10.1199 139.7 8.94469 141.317 7.83412 142.967C6.90685 144.336 6.0874 145.77 5.26795 147.15C4.70727 148.099 4.21129 149.059 3.70453 150.008C3.55358 150.299 3.43497 150.622 3.37028 150.967C3.34871 151.075 3.33793 151.183 3.33793 151.291C3.33793 151.657 3.46732 152.046 3.72609 152.337C3.98486 152.628 4.3299 152.8 4.67493 152.865C4.90136 152.908 5.09544 152.908 5.24639 152.908H5.49437C6.31382 152.908 7.13327 152.919 7.9635 152.919C8.61043 152.919 9.24659 152.908 9.9043 152.887H9.99056C10.2386 152.887 10.4111 152.93 10.562 152.994C10.713 153.07 10.8747 153.178 11.0472 153.372C11.6726 154.051 12.3195 154.709 12.9664 155.356C13.9476 156.337 14.9396 157.286 15.91 158.256C16.9235 159.27 17.937 160.272 18.9506 161.286C18.3036 161.275 17.6459 161.264 16.9774 161.264H16.8373V162.127V161.264C13.7212 161.275 10.6159 161.297 7.49987 161.329H7.48909C7.31657 161.329 7.21953 161.307 7.12249 161.264C7.02545 161.221 6.92841 161.157 6.8098 161.038C5.73158 159.927 4.6318 158.838 3.55358 157.749C3.39185 157.588 3.19776 157.361 2.88508 157.146C2.59396 156.941 2.24893 156.79 1.8392 156.779C1.51574 156.779 1.17071 156.898 0.933503 157.102C0.685512 157.307 0.523773 157.555 0.405169 157.814V157.825V157.814C0.221871 158.224 0.0924854 158.633 -0.0153368 159.022C-0.554447 160.952 -1.08277 162.882 -1.6111 164.812C-1.7297 165.243 -1.88065 165.728 -1.95613 166.267C-2.20412 167.906 -2.35507 169.513 -2.65698 171.033C-3.15296 173.534 -3.17452 176.004 -3.21765 178.408C-3.22843 179.26 -3.25 180.122 -3.25 180.985C-3.25 181.955 -3.22843 182.937 -3.15296 183.929C-3.04513 185.449 -2.98044 187.001 -2.72167 188.597C-2.36585 190.743 -2.08551 192.942 -1.60031 195.142C-1.16903 197.104 -0.543659 198.97 -0.026113 200.824C0.0601447 201.105 0.135614 201.417 0.254219 201.741C0.372823 202.086 0.523777 202.388 0.771768 202.657C1.00898 202.927 1.42948 203.153 1.8392 203.142C2.13032 203.142 2.3891 203.056 2.61553 202.938C2.84195 202.819 3.03603 202.679 3.2409 202.506L3.30559 202.452L3.32716 202.431L3.34872 202.409C4.28677 201.45 5.24638 200.501 6.18443 199.509C6.48634 199.196 6.75589 198.927 7.00389 198.765C7.25188 198.603 7.43517 198.538 7.68316 198.528C7.7802 198.528 7.89881 198.538 8.03898 198.582H8.04976H8.06054C8.20071 198.614 8.30853 198.614 8.39479 198.625C8.52418 198.625 8.58887 198.614 8.59966 198.614C10.5512 198.614 12.5136 198.603 14.4652 198.603C15.9639 198.603 17.4626 198.603 18.9614 198.614C18.1743 199.379 17.3872 200.145 16.5893 200.943C14.7239 202.808 12.8586 204.684 11.0041 206.582C10.8424 206.754 10.7022 206.841 10.562 206.905C10.4218 206.959 10.2709 207.002 10.0553 207.002H10.0229C9.32206 206.992 8.62121 206.992 7.92037 206.992C7.10092 206.992 6.28148 206.992 5.46203 206.992C4.95526 207.002 4.5132 207.035 4.06035 207.272C3.8447 207.391 3.61827 207.585 3.48888 207.833C3.34871 208.081 3.2948 208.35 3.2948 208.587C3.2948 209.03 3.43497 209.407 3.61827 209.838L3.62906 209.871L3.72609 210.043L3.73688 210.054C4.71806 211.801 5.65611 213.634 6.76667 215.391C7.95272 217.267 9.21424 219.1 10.562 220.879C11.7804 222.486 13.1282 223.909 14.3358 225.397C15.9963 227.435 17.9478 229.074 19.7916 230.734C20.762 231.597 21.7647 232.405 22.7998 233.171C24.5142 234.443 26.2501 235.737 28.0831 236.923L28.1909 236.988L28.0831 236.923C29.8406 238.055 31.6628 238.993 33.3987 239.996C33.6252 240.125 33.9271 240.352 34.3584 240.535C34.6063 240.643 34.8759 240.708 35.1562 240.708C35.566 240.718 36.0188 240.535 36.2991 240.222C36.5903 239.91 36.7304 239.522 36.7844 239.133C36.8059 238.983 36.8059 238.864 36.8059 238.756V238.681V238.497C36.8059 237.775 36.8167 237.053 36.8167 236.33C36.8167 235.597 36.8059 234.853 36.7844 234.109V234.044C36.7844 233.829 36.8167 233.678 36.8706 233.559C36.9245 233.44 37 233.322 37.1509 233.192C37.593 232.804 38.0243 232.395 38.4556 231.974C39.2966 231.122 40.1053 230.26 40.9247 229.429C42.3372 228.006 43.7497 226.583 45.1729 225.181C45.1945 225.16 45.216 225.138 45.2376 225.117C45.216 226.055 45.1945 227.003 45.1945 227.963V228.114C45.2053 230.896 45.2376 233.678 45.2699 236.459V236.481C45.2592 236.783 45.2053 236.912 45.0651 237.074C44.4613 237.732 43.8251 238.368 43.189 239.026C42.5636 239.683 41.8736 240.341 41.2374 241.107C41.0002 241.398 40.7953 241.732 40.7846 242.206C40.7738 242.551 40.9463 242.907 41.1727 243.123C41.3884 243.349 41.6364 243.468 41.8951 243.565C42.9518 243.953 44.0623 244.417 45.2699 244.708C47.1029 245.15 48.9898 245.818 51.0924 246.023C51.3188 246.045 51.556 246.099 51.8148 246.174C54.5534 246.983 57.3352 247.123 60.0308 247.199C61.6158 247.242 63.2115 247.296 64.8289 247.296C66.4786 247.296 68.139 247.242 69.7995 247.069C71.1041 246.94 72.4735 246.886 73.8752 246.627C76.1502 246.217 78.436 245.765 80.7003 245.225C82.5225 244.783 84.2584 244.18 85.962 243.608C86.2316 243.511 86.4796 243.414 86.7275 243.198C86.8462 243.091 86.9648 242.95 87.051 242.778C87.1373 242.605 87.1804 242.411 87.1804 242.228C87.1696 241.775 86.9971 241.484 86.8138 241.193L86.803 241.182C86.5658 240.837 86.307 240.621 86.1453 240.46C85.0779 239.381 84.0104 238.314 82.9646 237.225C82.7921 237.042 82.7381 236.912 82.7274 236.643C82.7381 232.815 82.7381 228.987 82.7381 225.16C83.5684 225.979 84.3878 226.82 85.2288 227.661C86.954 229.386 88.6791 231.133 90.4474 232.847C90.6954 233.085 90.8571 233.3 90.965 233.505C91.062 233.71 91.1159 233.904 91.1159 234.184V234.281C91.0728 235.295 91.062 236.319 91.062 237.322C91.062 237.786 91.062 238.239 91.062 238.702C91.0728 239.187 91.1483 239.651 91.4286 240.061C91.5688 240.266 91.7628 240.449 92 240.557C92.2265 240.675 92.4853 240.729 92.7332 240.729C93.1538 240.729 93.5311 240.589 93.8977 240.395C94.8142 239.899 95.7415 239.414 96.6687 238.864C98.1243 237.98 99.6015 237.106 101.046 236.125C102.901 234.853 104.799 233.581 106.588 232.114C108.486 230.562 110.276 228.88 111.99 227.154C113.575 225.559 115.085 223.866 116.486 222.098C118.363 219.758 120.098 217.299 121.619 214.679C122.104 213.849 122.643 213.008 123.139 212.113C123.603 211.272 124.077 210.388 124.455 209.428C124.573 209.127 124.649 208.846 124.649 208.512C124.649 208.296 124.605 208.048 124.476 207.811C124.293 207.466 123.959 207.24 123.667 207.143C123.366 207.035 123.074 207.013 122.751 207.002C121.899 207.002 121.037 206.992 120.185 206.992C119.462 206.992 118.74 207.002 118.018 207.013H117.964C117.726 207.013 117.565 206.97 117.414 206.905C117.263 206.841 117.101 206.722 116.918 206.539L116.303 205.924L116.907 206.539C114.287 203.886 111.656 201.266 109.025 198.625C110.341 198.625 111.656 198.614 112.971 198.614C114.06 198.614 115.16 198.614 116.249 198.614C116.939 198.614 117.673 198.657 118.427 198.657C118.912 198.657 119.398 198.635 119.904 198.582L120.174 198.571C120.476 198.571 120.681 198.635 120.896 198.743C121.112 198.862 121.338 199.045 121.597 199.336L121.63 199.369L121.597 199.336C122.524 200.361 123.506 201.32 124.498 202.248C124.756 202.485 124.983 202.679 125.231 202.83C125.479 202.981 125.759 203.121 126.147 203.132C126.395 203.132 126.654 203.056 126.859 202.916C127.161 202.711 127.323 202.463 127.452 202.215C127.581 201.956 127.678 201.687 127.775 201.374C128.261 199.746 128.584 198.129 129.112 196.673C129.759 194.862 129.932 193.061 130.255 191.39C130.59 189.568 130.784 187.735 130.956 185.923C131.107 184.435 131.226 182.926 131.237 181.406C131.237 181.287 131.237 181.168 131.237 181.05C131.237 179.001 131.161 176.963 131.086 174.936C131.053 174.041 130.935 173.168 130.827 172.316C130.708 171.443 130.557 170.602 130.428 169.772C130.158 168.133 129.921 166.461 129.608 164.79C129.457 163.992 129.156 163.324 128.983 162.731C128.519 161.178 128.067 159.625 127.603 158.073L127.592 158.04L127.484 157.771L127.463 157.728L127.441 157.685C127.333 157.48 127.193 157.264 126.967 157.092C126.794 156.951 126.471 156.833 126.169 156.833ZM84.9161 241.732C85.0563 241.872 85.1641 241.969 85.2396 242.066C83.5792 242.616 81.951 243.177 80.2906 243.587C78.0694 244.126 75.816 244.557 73.5625 244.967C72.3225 245.193 70.9963 245.247 69.627 245.387C68.042 245.549 66.4462 245.603 64.8397 245.603C63.2655 245.603 61.6805 245.549 60.0955 245.506C57.4323 245.43 54.8014 245.279 52.3215 244.546C51.9981 244.449 51.6422 244.363 51.2756 244.33C49.4535 244.158 47.642 243.533 45.6905 243.058C44.7416 242.832 43.782 242.454 42.7685 242.077C43.286 241.473 43.879 240.891 44.4829 240.266C45.0974 239.619 45.7444 238.972 46.3697 238.292C46.8442 237.796 47.0382 237.139 47.0382 236.524V236.492V236.47V236.481C47.0059 233.699 46.9735 230.928 46.9628 228.146V228.006C46.9628 226.842 47.0167 225.656 47.0167 224.448V224.383L47.0059 224.319C46.9735 223.92 46.8765 223.65 46.8442 223.456L46.6609 222.54L45.7659 222.788C45.3131 222.906 44.9357 223.133 44.6554 223.359C44.3643 223.586 44.1594 223.812 43.9761 223.984C42.5528 225.397 41.1296 226.82 39.7171 228.243C38.8761 229.095 38.0674 229.958 37.248 230.788C36.8598 231.176 36.4501 231.564 36.0188 231.942C35.7061 232.211 35.4581 232.546 35.2964 232.912C35.1347 233.29 35.07 233.688 35.07 234.087V234.217C35.0915 234.928 35.1023 235.651 35.1023 236.384C35.1023 237.106 35.0915 237.829 35.0915 238.551V238.735V238.799L35.0808 238.961L35.07 239.004L35.0376 238.993C34.8651 238.929 34.6279 238.756 34.2829 238.551C32.493 237.527 30.7032 236.6 29.0319 235.521C27.2637 234.389 25.5601 233.106 23.8349 231.834C22.8322 231.09 21.8618 230.314 20.9453 229.494C19.0692 227.812 17.1931 226.227 15.6836 224.351C14.422 222.798 13.0851 221.386 11.9529 219.887C10.6375 218.151 9.39754 216.361 8.24384 214.528C7.18718 212.857 6.27069 211.067 5.26795 209.278L5.21404 209.17C5.14935 209.019 5.10622 208.889 5.08465 208.803C5.18169 208.792 5.31108 208.782 5.4836 208.782C6.30305 208.782 7.12249 208.782 7.94194 208.782C8.632 208.782 9.32206 208.782 10.0121 208.792H10.066C10.4758 208.792 10.8855 208.717 11.2629 208.555C11.6402 208.393 11.9637 208.145 12.2548 207.854C14.0878 205.967 15.9531 204.102 17.8184 202.237C18.7781 201.277 19.77 200.328 20.762 199.347C21.0639 199.045 21.2041 198.765 21.3227 198.625L21.7108 198.107L21.3119 197.59C21.1394 197.352 20.8914 197.158 20.6434 197.061C20.3954 196.964 20.1582 196.943 19.9965 196.943C19.8239 196.943 19.7053 196.953 19.673 196.953C17.937 196.943 16.2011 196.943 14.4652 196.943C12.5028 196.943 10.5512 196.943 8.59966 196.953C8.47027 196.953 8.40557 196.964 8.39479 196.964C8.15758 196.91 7.92037 196.867 7.68316 196.867C7.03623 196.867 6.47555 197.094 6.03348 197.396C5.59141 197.697 5.24638 198.053 4.92292 198.387C4.01721 199.347 3.06838 200.285 2.13033 201.245L2.09798 201.277C2.04407 201.32 2.00094 201.363 1.95781 201.385C1.93625 201.342 1.91468 201.309 1.89312 201.245C1.80686 200.997 1.73138 200.716 1.64512 200.425C1.10601 198.517 0.491434 196.684 0.0924919 194.84C-0.360361 192.748 -0.651485 190.57 -1.0073 188.382C-1.24451 186.937 -1.3092 185.427 -1.4278 183.875C-1.4925 182.937 -1.51406 181.999 -1.51406 181.06C-1.51406 180.219 -1.4925 179.368 -1.48172 178.516C-1.43859 176.101 -1.41702 173.739 -0.953384 171.454C-0.619135 169.804 -0.478971 168.176 -0.241762 166.602C-0.187851 166.224 -0.0584636 165.804 0.0709229 165.329C0.599251 163.399 1.12758 161.469 1.65591 159.539C1.74217 159.226 1.83921 158.935 1.95781 158.655C2.04407 158.731 2.16268 158.838 2.32441 159.011C3.41341 160.1 4.50241 161.189 5.56985 162.289C5.81784 162.547 6.10896 162.752 6.44321 162.903C6.77746 163.043 7.13327 163.108 7.49987 163.108H7.52143C10.6267 163.076 13.732 163.054 16.848 163.043H16.9774C17.84 163.043 18.7242 163.076 19.6191 163.076H19.7377C20.2013 163.065 20.4816 162.957 20.8914 162.903L22.3901 162.655L21.4089 161.491C21.107 161.124 20.9129 160.865 20.6326 160.574C19.4681 159.399 18.3036 158.235 17.1284 157.081C16.1472 156.11 15.1552 155.151 14.1956 154.191C13.5595 153.544 12.9233 152.908 12.3303 152.261C12.0392 151.938 11.6941 151.668 11.2952 151.485C10.8963 151.302 10.4542 151.215 9.99056 151.215H9.8396C9.22502 151.237 8.59965 151.248 7.9635 151.248C7.14405 151.248 6.3246 151.237 5.49437 151.237H5.24639C5.17091 151.237 5.13857 151.237 5.09544 151.226C5.12778 151.107 5.16013 150.989 5.21404 150.881C5.72081 149.932 6.206 148.994 6.73433 148.099C7.56456 146.698 8.36244 145.307 9.24659 144.002C10.3356 142.385 11.5001 140.8 12.6969 139.247C13.581 138.093 14.5299 136.983 15.5218 135.915C16.8049 134.546 18.1203 133.198 19.4897 131.937C20.9129 130.621 22.444 129.392 23.9751 128.131C26.1315 126.352 28.4928 124.831 30.9404 123.408C32.2882 122.621 33.6791 121.888 35.0808 121.144C35.0808 121.176 35.0915 121.198 35.0915 121.252V121.489C35.0915 122.977 35.0915 124.465 35.07 125.942V125.996C35.07 126.341 35.1131 126.697 35.2533 127.042C35.3827 127.387 35.6091 127.71 35.8786 127.969C37.7871 129.834 39.6632 131.721 41.5609 133.597C42.4881 134.524 43.4154 135.463 44.3535 136.401C44.5044 136.552 44.6985 136.735 44.9573 136.897C45.216 137.058 45.5395 137.188 45.9061 137.242L46.8442 137.382L46.8981 136.433C46.9196 136.12 46.952 135.818 46.952 135.463C46.952 134.837 46.952 134.201 46.952 133.576C46.952 132.023 46.952 130.46 46.952 128.907C46.952 127.678 46.952 126.449 46.952 125.219C46.952 124.702 46.9843 124.174 47.0275 123.634L47.0382 123.419C47.049 122.804 46.8118 122.157 46.3482 121.694C46.0355 121.359 45.712 120.982 45.3346 120.594C44.4936 119.742 43.6526 118.923 42.8332 118.092L42.7469 117.974L42.7685 117.963C44.3319 117.467 45.8953 116.993 47.4695 116.561C50.1543 115.817 52.9577 115.429 55.7934 114.912C56.7422 114.739 57.842 114.771 59.0173 114.642C60.2896 114.491 61.5834 114.459 62.8881 114.459C64.2466 114.459 65.616 114.502 66.9961 114.523C69.4221 114.556 71.8373 114.761 74.1878 115.278C74.8671 115.418 75.4817 115.451 75.9777 115.569C78.0479 116.022 80.1073 116.475 82.1343 116.982C83.0939 117.219 84.0859 117.607 85.121 117.952C85.1857 117.974 85.2288 117.995 85.2612 118.017C85.2396 118.06 85.1965 118.125 85.121 118.2C84.5172 118.847 83.8271 119.483 83.1479 120.152C82.6842 120.626 82.2098 121.101 81.7569 121.586C81.2394 122.114 81.0022 122.837 81.013 123.516V123.527C81.0238 126.039 81.0238 128.551 81.0238 131.063C81.0238 131.57 81.0238 132.066 81.0238 132.573C81.0238 133.576 81.0238 134.578 81.0238 135.592C81.0238 135.905 81.0561 136.153 81.0777 136.422L81.1316 137.252L81.9618 137.231C82.4147 137.22 82.8352 137.069 83.1263 136.875C83.4282 136.681 83.633 136.465 83.7948 136.304C86.4903 133.586 89.1751 130.869 91.8814 128.163C92.1187 127.926 92.3235 127.645 92.4529 127.322C92.5823 127.009 92.647 126.664 92.647 126.319V126.287V126.265V126.287C92.6362 125.263 92.6254 124.227 92.6254 123.203C92.6254 122.642 92.6254 122.071 92.6254 121.51V121.435V121.424C92.6254 121.295 92.6254 121.187 92.6254 121.101C92.6254 121.036 92.6254 120.993 92.6362 120.96C92.7225 120.993 92.895 121.09 93.1322 121.23C94.0918 121.769 95.0514 122.233 95.9248 122.75C97.4774 123.678 98.9977 124.723 100.626 125.661C102.394 126.686 103.968 128.087 105.693 129.424C108.281 131.441 110.578 133.834 112.842 136.282C114.751 138.352 116.486 140.573 118.039 142.924C119.009 144.39 119.926 145.91 120.842 147.442C121.446 148.455 122.029 149.512 122.622 150.568C122.74 150.784 122.848 151 122.913 151.183C122.923 151.205 122.923 151.215 122.923 151.226H122.88L122.622 151.237C122.298 151.237 121.942 151.215 121.533 151.205H121.36C120.735 151.205 120.109 151.215 119.495 151.215C119.02 151.215 118.557 151.205 118.093 151.194H117.942C117.511 151.194 117.101 151.269 116.724 151.442C116.346 151.614 116.012 151.862 115.742 152.164C115.344 152.595 114.966 153.016 114.578 153.393C113.511 154.45 112.411 155.496 111.333 156.574C110.384 157.512 109.478 158.472 108.551 159.41C108.163 159.809 107.742 160.197 107.322 160.617C107.084 160.865 106.89 161.081 106.588 161.426L105.877 162.213L105.068 162.116C104.701 162.073 104.443 162.008 104.044 162.008C96.9922 162.008 89.9407 162.008 82.8891 162.008C82.7381 162.008 82.598 162.008 82.4686 162.008L82.2098 161.998L82.1451 161.987L82.1343 161.954C82.0912 161.782 82.0804 161.523 82.0804 161.243C82.0804 160.607 82.0804 159.96 82.0804 159.313C82.0804 158.58 82.0804 157.846 82.0804 157.113C82.0804 155.216 82.0804 153.318 82.0804 151.409C82.0804 147.614 82.0804 143.808 82.0804 140.013C82.0804 139.592 82.0157 139.279 81.9834 138.794L81.8432 137.188L80.5817 138.19C80.2582 138.449 80.0318 138.579 79.7515 138.859C78.8889 139.732 78.0587 140.606 77.2176 141.447C76.2149 142.449 75.1906 143.441 74.1771 144.455C72.991 145.641 71.8158 146.838 70.6297 148.024C69.379 149.285 68.1067 150.536 66.8452 151.808C65.9826 152.671 65.1523 153.544 64.2898 154.364C64.1712 154.482 64.0741 154.547 64.0202 154.569L63.9987 154.579C63.9771 154.569 63.8693 154.525 63.686 154.342C63.2655 153.943 62.8557 153.512 62.4245 153.081C60.1494 150.784 57.8744 148.466 55.5777 146.169C53.6693 144.261 51.7393 142.385 49.8308 140.487C49.3133 139.969 48.7957 139.398 48.2351 138.827L48.2243 138.816L48.2351 138.827C48.2243 138.827 48.1488 138.708 47.9763 138.557C47.8146 138.406 47.4695 138.212 47.0921 138.212C46.8981 138.212 46.7148 138.255 46.5423 138.32L46.0139 138.525L45.9924 139.096C45.9816 139.441 45.9385 139.862 45.9385 140.315C45.9385 142.633 45.9385 144.962 45.9385 147.28C45.9385 148.444 45.9385 149.598 45.9385 150.762C45.9385 154.245 45.9385 157.728 45.9385 161.21C45.9385 161.448 45.9061 161.717 45.8522 162.008C45.5503 162.041 45.3023 162.073 45.1082 162.073H45.0867C44.4721 162.062 43.8144 162.008 43.1027 162.008C41.6903 161.998 40.2886 161.998 38.8761 161.998C37.9488 161.998 37.0108 161.998 36.0835 162.008C34.0025 162.019 31.9431 162.073 29.8945 162.073C27.9322 162.073 25.9698 162.03 23.9859 162.008H23.7594C23.6408 162.008 23.4791 162.019 23.2958 162.062C23.2958 162.062 23.2958 162.062 23.285 162.062C23.285 162.062 23.285 162.062 23.2742 162.062C23.0694 162.116 22.8322 162.213 22.6381 162.418C22.4332 162.634 22.3362 162.936 22.347 163.184C22.347 163.442 22.4224 163.636 22.5087 163.809C22.6812 164.132 22.8753 164.262 22.94 164.337L22.9508 164.348C24.1045 165.459 25.269 166.548 26.3795 167.658C28.2017 169.48 30.0023 171.335 31.8353 173.168C34.0241 175.357 36.2237 177.513 38.4017 179.68C38.5526 179.842 38.5742 179.939 38.5742 180.004C38.5742 180.079 38.5419 180.198 38.3693 180.37C38.1321 180.586 37.841 180.823 37.5499 181.114C34.9945 183.659 32.4499 186.214 29.9053 188.77C28.4713 190.204 27.0264 191.638 25.5924 193.083C24.7514 193.913 23.9212 194.754 23.0802 195.595C23.0263 195.649 22.9184 195.746 22.7783 195.918C22.6489 196.08 22.4979 196.371 22.4979 196.716C22.4979 197.007 22.595 197.266 22.7351 197.493L22.9616 197.859L23.3929 197.902C23.5546 197.913 23.8241 197.967 24.1584 197.967C24.9671 197.967 25.7757 197.967 26.5844 197.967C27.3176 197.967 28.0508 197.967 28.784 197.967C32.4715 197.967 36.1698 197.967 39.8573 197.967C41.701 197.967 43.5448 197.967 45.3886 197.967C45.6365 197.967 45.8091 197.989 45.8845 198.01H45.8953C45.9169 198.086 45.9492 198.258 45.9492 198.528V198.625V198.84C45.9492 203.444 45.9492 208.038 45.9492 212.642C45.9492 213.569 45.9492 214.496 45.9492 215.434C45.9492 216.987 45.9492 218.529 45.96 220.081C45.96 220.103 45.9492 220.232 45.9385 220.437C45.9385 220.61 45.96 220.868 46.0894 221.127C46.2188 221.386 46.4452 221.612 46.6932 221.763L47.2539 222.098L47.7283 221.656C47.8792 221.505 48.0949 221.332 48.3105 221.106C49.8416 219.564 51.3619 218.011 52.893 216.469L52.9038 216.458C53.8849 215.467 54.8769 214.485 55.8689 213.493C57.0549 212.307 58.241 211.121 59.4162 209.935C60.7748 208.577 62.1441 207.229 63.4919 205.827C63.6644 205.644 63.8046 205.536 63.8908 205.493L64.0094 205.45L64.0957 205.482C64.1712 205.525 64.3006 205.622 64.4515 205.795C64.9367 206.323 65.4327 206.852 65.961 207.369C67.5999 208.997 69.2604 210.604 70.8885 212.221C72.6352 213.968 74.3604 215.725 76.0963 217.494C77.3902 218.809 78.684 220.114 79.9779 221.418C80.1396 221.58 80.2906 221.656 80.3876 221.699L80.614 221.806L81.3796 222.227L81.1855 223.424C81.1316 223.769 81.0561 223.995 81.0453 224.405C81.0346 228.513 81.0453 232.621 81.0345 236.718C81.0238 237.398 81.3041 238.055 81.7569 238.508C82.7813 239.586 83.8595 240.665 84.9161 241.732ZM95.2886 171.551C92.9812 173.836 90.6846 176.133 88.3772 178.419C88.14 178.656 87.9459 178.926 87.8058 179.228C87.8058 176.726 87.8058 174.225 87.8166 171.723V171.712V171.702C87.8166 171.281 87.7626 170.85 87.6117 170.429C87.4607 170.009 87.1912 169.599 86.8246 169.254C85.8865 168.359 84.9808 167.367 84.0104 166.386C81.11 163.485 78.2096 160.585 75.3092 157.685C74.9857 157.361 74.6623 157.092 74.3819 156.833C73.8859 156.348 73.1959 156.143 72.5921 156.154H72.5813C69.9397 156.154 67.2872 156.154 64.6456 156.154C64.6995 156.132 64.7534 156.121 64.8073 156.089C65.0553 155.959 65.2602 155.798 65.465 155.604C66.3599 154.752 67.201 153.868 68.042 153.016C69.3035 151.754 70.565 150.504 71.8265 149.231C73.0126 148.035 74.1878 146.849 75.3631 145.662C76.3659 144.66 77.3902 143.668 78.4037 142.643C79.0506 141.997 79.676 141.35 80.3014 140.703C80.3014 144.261 80.3014 147.83 80.3014 151.388C80.3014 153.285 80.3014 155.183 80.3014 157.092C80.3014 157.825 80.3014 158.558 80.3014 159.291C80.3014 159.938 80.3014 160.585 80.3014 161.221C80.3014 161.534 80.3121 161.9 80.3984 162.31C80.4415 162.483 80.4954 162.655 80.5817 162.839C80.7111 163.108 80.9591 163.367 81.2394 163.507C81.5197 163.647 81.7893 163.69 82.0373 163.712C82.1775 163.723 82.3068 163.723 82.4255 163.723C82.5764 163.723 82.7166 163.723 82.846 163.723C89.6064 163.723 96.3776 163.723 103.138 163.723C100.54 166.343 97.9195 168.941 95.2886 171.551ZM91.5472 184.716C92.3235 185.503 93.1106 186.279 93.8869 187.055C95.9787 189.158 98.0704 191.271 100.173 193.374C101.143 194.333 102.114 195.282 103.073 196.22C96.2806 196.22 89.4878 196.22 82.695 196.209C82.6195 196.209 82.5333 196.209 82.4255 196.209C82.3392 196.209 82.2314 196.209 82.1236 196.22C81.9079 196.242 81.6815 196.285 81.455 196.371C81.8755 195.951 82.2961 195.541 82.7274 195.12C83.9242 193.934 85.0887 192.727 86.2855 191.584C86.7383 191.142 87.1373 190.667 87.4176 190.096C87.6979 189.525 87.8597 188.867 87.8597 188.155V187.972C87.8166 186.786 87.8058 185.589 87.8058 184.381C87.8058 183.163 87.8166 181.945 87.8273 180.715C87.8597 180.78 87.8705 180.856 87.9028 180.91C88.0538 181.179 88.2478 181.416 88.4743 181.643C89.4986 182.635 90.5121 183.681 91.5472 184.716ZM80.3553 197.87C80.3229 198.118 80.3121 198.334 80.3121 198.517V198.657C80.3121 205.353 80.3121 212.038 80.3121 218.734C80.3121 218.938 80.3121 219.122 80.3121 219.316C79.3094 218.302 78.2959 217.289 77.2931 216.264C75.5572 214.507 73.832 212.739 72.0745 210.981C70.4356 209.342 68.7752 207.736 67.1471 206.118C66.6511 205.633 66.1767 205.116 65.6915 204.598C65.4542 204.35 65.217 204.134 64.9367 203.973C64.8397 203.919 64.7211 203.876 64.6132 203.833C66.1443 203.833 67.6862 203.833 69.2172 203.833C70.2955 203.833 71.3845 203.833 72.4627 203.833C72.7538 203.833 73.0988 203.833 73.4762 203.746C73.8536 203.66 74.2633 203.477 74.6084 203.153C75.32 202.474 76.0424 201.784 76.754 201.072C77.6597 200.167 78.5223 199.25 79.4064 198.377C79.7622 198.021 80.1288 197.665 80.4954 197.298C80.4415 197.471 80.3876 197.676 80.3553 197.87ZM58.1763 208.706C56.9902 209.892 55.815 211.078 54.6289 212.264C53.637 213.245 52.645 214.237 51.653 215.24C50.3268 216.577 49.0006 217.925 47.6744 219.262C47.6744 217.979 47.6636 216.696 47.6636 215.413C47.6636 214.485 47.6636 213.558 47.6636 212.62C47.6636 208.027 47.6636 203.423 47.6636 198.83V198.614V198.485C47.6528 198.172 47.6313 197.881 47.5666 197.59C47.545 197.503 47.5127 197.406 47.4695 197.309C49.3133 199.153 51.1678 200.997 53.0116 202.851C53.3351 203.186 53.7124 203.444 54.1222 203.606C54.5319 203.779 54.9739 203.843 55.4268 203.843H55.4699C56.5374 203.833 57.6048 203.833 58.6615 203.833C59.9661 203.833 61.2815 203.833 62.5862 203.833H62.7156C62.9204 203.833 63.1253 203.833 63.3302 203.833C63.2115 203.876 63.0929 203.919 62.9851 203.983C62.694 204.156 62.446 204.361 62.2088 204.62L62.1441 204.684L62.2088 204.62C60.9042 205.989 59.5348 207.337 58.1763 208.706ZM31.1129 189.977C33.6683 187.422 36.2129 184.877 38.7575 182.322C38.9624 182.117 39.2319 181.891 39.523 181.632C39.8034 181.373 40.019 181.05 40.1484 180.694C40.1484 181.999 40.1484 183.303 40.1484 184.608C40.1484 185.891 40.1484 187.174 40.1376 188.457V188.5C40.1376 188.964 40.2131 189.417 40.3856 189.848C40.5581 190.279 40.8277 190.657 41.1619 191.002C42.9733 192.802 44.774 194.614 46.5746 196.414C46.5099 196.382 46.4344 196.339 46.3697 196.317C46.0355 196.22 45.7228 196.199 45.367 196.199C43.5232 196.199 41.6795 196.199 39.8357 196.199C36.1482 196.199 32.4499 196.199 28.7624 196.199C28.0292 196.199 27.296 196.199 26.5628 196.199C26.0021 196.199 25.4415 196.199 24.8808 196.199C25.5169 195.563 26.1531 194.916 26.8 194.279C28.2341 192.856 29.6681 191.411 31.1129 189.977ZM33.0429 171.917C31.2207 170.095 29.4201 168.24 27.5871 166.407C26.6814 165.502 25.7542 164.618 24.8377 163.744C26.5197 163.766 28.2017 163.798 29.8945 163.798C31.9755 163.798 34.0349 163.744 36.0943 163.733C37.0216 163.733 37.9488 163.723 38.8761 163.723C40.2778 163.723 41.6903 163.723 43.0919 163.733C43.7065 163.733 44.3642 163.787 45.0651 163.798H45.1082C45.4856 163.798 45.8091 163.744 46.0678 163.723C46.4129 163.69 46.7902 163.55 47.0706 163.281C47.3509 163.011 47.5019 162.666 47.5558 162.321C47.6097 161.987 47.6744 161.609 47.6744 161.2C47.6744 157.717 47.6744 154.234 47.6744 150.752C47.6744 149.587 47.6744 148.434 47.6744 147.269C47.6744 145.091 47.6744 142.924 47.6744 140.746C47.9763 141.069 48.2782 141.382 48.6016 141.705C50.5209 143.603 52.4401 145.479 54.3378 147.377C56.6236 149.663 58.8987 151.981 61.1737 154.288C61.5942 154.72 62.0255 155.162 62.4784 155.593C62.6832 155.787 62.8881 155.949 63.1361 156.089C63.19 156.121 63.2547 156.132 63.3086 156.154C60.6454 156.154 57.993 156.154 55.3298 156.143H55.3405H55.3298C54.6073 156.132 53.8849 156.423 53.389 156.951C51.9765 158.375 50.5532 159.787 49.1408 161.21C47.9116 162.44 46.704 163.669 45.4856 164.898C44.0084 166.375 42.5528 167.863 41.0649 169.308C40.7306 169.631 40.4826 170.009 40.3425 170.408C40.2023 170.807 40.1592 171.206 40.1592 171.604V171.637C40.17 172.952 40.17 174.278 40.17 175.594C40.17 176.812 40.17 178.041 40.17 179.26C40.0514 178.947 39.8681 178.656 39.6309 178.419C37.4205 176.252 35.2209 174.095 33.0429 171.917ZM74.0908 158.914C76.9912 161.814 79.8916 164.704 82.792 167.615C83.7193 168.542 84.625 169.556 85.6385 170.515C85.8218 170.699 85.9189 170.85 85.9836 171.022C86.0483 171.195 86.0806 171.421 86.0806 171.702V171.723C86.0698 174.343 86.0698 176.952 86.0698 179.573C86.0698 181.168 86.0483 182.764 86.0483 184.381C86.0483 185.589 86.0591 186.807 86.1022 188.026V188.144C86.1022 188.619 86.0051 188.975 85.8434 189.32C85.6709 189.654 85.4229 189.988 85.0563 190.333C83.8379 191.508 82.6627 192.716 81.4874 193.891C80.3984 194.97 79.2878 196.037 78.1988 197.137C77.2931 198.042 76.4198 198.959 75.5356 199.843C74.8456 200.533 74.1339 201.212 73.4115 201.892C73.3145 201.978 73.239 202.01 73.0988 202.053C72.9479 202.086 72.743 202.097 72.4735 202.097C71.3952 202.097 70.3062 202.097 69.228 202.097C67.0608 202.097 64.8936 202.097 62.7263 202.097H62.597C61.2923 202.097 59.9769 202.097 58.6722 202.097C57.6048 202.097 56.5266 202.097 55.4591 202.107H55.4268C55.1572 202.107 54.9524 202.064 54.7799 202C54.6073 201.924 54.4348 201.816 54.2408 201.622C50.3052 197.665 46.3482 193.719 42.3803 189.783C42.1862 189.578 42.0676 189.406 41.9814 189.212C41.9059 189.018 41.8628 188.802 41.8628 188.511V188.5V188.489V188.479C41.8735 187.185 41.8736 185.902 41.8736 184.608C41.8736 183.088 41.8736 181.567 41.8736 180.047C41.8736 178.559 41.8736 177.071 41.8736 175.583C41.8736 174.257 41.8735 172.941 41.8628 171.615V171.594C41.8628 171.335 41.8951 171.141 41.949 170.99C42.0029 170.839 42.0784 170.71 42.2509 170.548C43.7604 169.092 45.2268 167.593 46.6932 166.116C47.9116 164.887 49.13 163.658 50.3484 162.429C51.7608 161.006 53.1841 159.593 54.6073 158.17C54.8446 157.943 54.9739 157.89 55.3082 157.879C58.2409 157.879 61.1737 157.89 64.0957 157.89C66.9206 157.89 69.7456 157.89 72.5705 157.879C72.894 157.89 72.991 157.933 73.1743 158.084C73.5193 158.407 73.832 158.666 74.0908 158.914ZM127.926 165.146C128.228 166.774 128.465 168.424 128.735 170.084C128.875 170.936 129.026 171.766 129.134 172.575C129.242 173.416 129.35 174.235 129.382 175.033C129.457 177.06 129.533 179.077 129.533 181.082C129.533 181.201 129.533 181.319 129.533 181.438C129.522 182.872 129.414 184.338 129.263 185.794C129.08 187.595 128.897 189.374 128.584 191.109C128.261 192.878 128.077 194.581 127.517 196.123C126.934 197.751 126.611 199.39 126.147 200.911C126.104 201.061 126.061 201.18 126.018 201.277C125.932 201.212 125.835 201.126 125.716 201.018C124.746 200.113 123.797 199.185 122.913 198.215C122.578 197.848 122.201 197.514 121.748 197.266C121.295 197.018 120.767 196.878 120.196 196.878C120.045 196.878 119.883 196.889 119.732 196.91H119.721H119.732C119.322 196.953 118.891 196.975 118.449 196.975C117.759 196.975 117.026 196.932 116.271 196.932C115.182 196.932 114.082 196.932 112.993 196.932C111.44 196.932 109.888 196.932 108.335 196.943C107.925 196.943 107.613 196.997 107.128 197.04L105.564 197.18L106.513 198.431C106.739 198.722 106.847 198.927 107.117 199.218C109.974 202.086 112.842 204.943 115.678 207.811C115.969 208.113 116.303 208.372 116.691 208.544C117.079 208.717 117.511 208.803 117.964 208.803H118.061C118.762 208.782 119.473 208.782 120.185 208.782C121.037 208.782 121.888 208.792 122.74 208.792C122.783 208.792 122.805 208.803 122.848 208.803C122.837 208.825 122.837 208.825 122.837 208.846C122.514 209.666 122.072 210.485 121.608 211.326C121.155 212.156 120.616 212.976 120.109 213.86C118.643 216.383 116.95 218.777 115.117 221.062C113.748 222.777 112.281 224.427 110.74 225.979C109.058 227.683 107.3 229.311 105.467 230.82C103.774 232.211 101.92 233.462 100.054 234.734C98.6742 235.672 97.2294 236.535 95.763 237.419C94.9005 237.937 93.9948 238.422 93.0675 238.918C92.9597 238.972 92.8734 239.004 92.8195 239.026C92.8087 238.961 92.7872 238.875 92.7872 238.735C92.7872 238.282 92.7872 237.829 92.7872 237.376C92.7872 236.384 92.7979 235.392 92.8411 234.411V234.238C92.8411 233.71 92.7225 233.203 92.496 232.772C92.2804 232.341 91.9785 231.974 91.6442 231.651C89.8975 229.969 88.1832 228.222 86.4472 226.486C85.5199 225.559 84.6034 224.61 83.6438 223.672C83.2449 223.294 82.8891 223.122 82.5009 222.842L81.5521 222.162L81.8217 221.278C81.8432 221.192 81.8863 221.095 81.9295 220.955C81.9726 220.825 82.0373 220.653 82.0481 220.405V220.394C82.0589 220.211 82.0589 220.027 82.0589 219.855C82.0589 219.456 82.0481 219.079 82.0481 218.712C82.0481 212.016 82.0481 205.331 82.0481 198.635V198.495C82.0481 198.334 82.0481 198.204 82.0696 198.107L82.1128 197.945C82.1451 197.935 82.1882 197.924 82.2637 197.924H82.4039C82.4794 197.924 82.5656 197.924 82.6734 197.924C89.725 197.924 96.7766 197.935 103.828 197.935C104.141 197.935 104.4 197.902 104.615 197.892L105.208 197.859L105.392 197.288C105.445 197.115 105.489 196.932 105.489 196.738C105.499 196.339 105.305 195.983 105.133 195.789C104.96 195.595 104.831 195.498 104.799 195.455C103.656 194.323 102.513 193.223 101.391 192.101C99.2888 189.999 97.1971 187.896 95.1053 185.794C94.329 185.007 93.5419 184.241 92.7656 183.454C91.7413 182.43 90.7277 181.373 89.6603 180.349C89.5201 180.219 89.4447 180.112 89.4015 180.036L89.3692 179.939L89.3908 179.864C89.4123 179.81 89.477 179.723 89.5956 179.605C91.903 177.319 94.1996 175.022 96.507 172.737L96.6148 172.64L96.5178 172.737C99.3859 169.89 102.254 167.033 105.122 164.186C105.413 163.874 105.478 163.669 105.661 163.41L106.2 162.601L106.987 162.806C107.138 162.849 107.268 162.892 107.419 162.936C107.57 162.979 107.753 163.033 108.001 163.033H108.206C108.81 163.033 109.381 163 109.909 163C111.775 163 113.64 162.989 115.505 162.989C116.831 162.989 118.158 162.989 119.484 163C119.915 163 120.239 163.011 120.53 163.011C120.778 163.011 121.004 163 121.263 162.946C121.651 162.871 122.007 162.634 122.255 162.396C122.514 162.148 122.762 161.868 123.171 161.448C123.937 160.65 124.735 159.863 125.533 159.076C125.694 158.925 125.845 158.795 126.007 158.677C126.449 160.186 126.891 161.706 127.344 163.227C127.56 163.992 127.829 164.607 127.926 165.146Z" fill="url(#paint8_linear_817_4060)"/>
</g>
</g>
<defs>
<linearGradient id="paint0_linear_817_4060" x1="77.5417" y1="202.507" x2="77.5823" y2="202.507" gradientUnits="userSpaceOnUse">
<stop offset="0.005618" stop-color="#EDC981"/>
<stop offset="0.1854" stop-color="#E4BF80"/>
<stop offset="0.5955" stop-color="#C3862B"/>
<stop offset="0.8103" stop-color="#E0B570"/>
<stop offset="0.8708" stop-color="#EBC586"/>
<stop offset="1" stop-color="#EFE4CE"/>
</linearGradient>
<linearGradient id="paint1_linear_817_4060" x1="110.089" y1="159.393" x2="110.114" y2="159.393" gradientUnits="userSpaceOnUse">
<stop offset="0.005618" stop-color="#EDC981"/>
<stop offset="0.1854" stop-color="#E4BF80"/>
<stop offset="0.5955" stop-color="#C3862B"/>
<stop offset="0.8103" stop-color="#E0B570"/>
<stop offset="0.8708" stop-color="#EBC586"/>
<stop offset="1" stop-color="#EFE4CE"/>
</linearGradient>
<linearGradient id="paint2_linear_817_4060" x1="40.0071" y1="115.283" x2="40.0335" y2="115.283" gradientUnits="userSpaceOnUse">
<stop offset="0.005618" stop-color="#EDC981"/>
<stop offset="0.1854" stop-color="#E4BF80"/>
<stop offset="0.5955" stop-color="#C3862B"/>
<stop offset="0.8103" stop-color="#E0B570"/>
<stop offset="0.8708" stop-color="#EBC586"/>
<stop offset="1" stop-color="#EFE4CE"/>
</linearGradient>
<linearGradient id="paint3_linear_817_4060" x1="81.4419" y1="161.237" x2="81.4522" y2="161.237" gradientUnits="userSpaceOnUse">
<stop offset="0.005618" stop-color="#EDC981"/>
<stop offset="0.1854" stop-color="#E4BF80"/>
<stop offset="0.5955" stop-color="#C3862B"/>
<stop offset="0.8103" stop-color="#E0B570"/>
<stop offset="0.8708" stop-color="#EBC586"/>
<stop offset="1" stop-color="#EFE4CE"/>
</linearGradient>
<linearGradient id="paint4_linear_817_4060" x1="-34.7011" y1="179.998" x2="162.698" y2="179.998" gradientUnits="userSpaceOnUse">
<stop offset="0.005618" stop-color="#EDC981"/>
<stop offset="0.1854" stop-color="#E4BF80"/>
<stop offset="0.5955" stop-color="#C3862B"/>
<stop offset="0.8103" stop-color="#E0B570"/>
<stop offset="0.8708" stop-color="#EBC586"/>
<stop offset="1" stop-color="#EFE4CE"/>
</linearGradient>
<linearGradient id="paint5_linear_817_4060" x1="-58.7721" y1="179.997" x2="186.781" y2="179.997" gradientUnits="userSpaceOnUse">
<stop offset="0.005618" stop-color="#EDC981"/>
<stop offset="0.1854" stop-color="#E4BF80"/>
<stop offset="0.5955" stop-color="#C3862B"/>
<stop offset="0.8103" stop-color="#E0B570"/>
<stop offset="0.8708" stop-color="#EBC586"/>
<stop offset="1" stop-color="#EFE4CE"/>
</linearGradient>
<linearGradient id="paint6_linear_817_4060" x1="-76.2992" y1="180.002" x2="204.304" y2="180.002" gradientUnits="userSpaceOnUse">
<stop offset="0.005618" stop-color="#EDC981"/>
<stop offset="0.1854" stop-color="#E4BF80"/>
<stop offset="0.5955" stop-color="#C3862B"/>
<stop offset="0.8103" stop-color="#E0B570"/>
<stop offset="0.8708" stop-color="#EBC586"/>
<stop offset="1" stop-color="#EFE4CE"/>
</linearGradient>
<linearGradient id="paint7_linear_817_4060" x1="-97" y1="180.001" x2="225.002" y2="180.001" gradientUnits="userSpaceOnUse">
<stop offset="0.005618" stop-color="#EDC981"/>
<stop offset="0.1854" stop-color="#E4BF80"/>
<stop offset="0.5955" stop-color="#C3862B"/>
<stop offset="0.8103" stop-color="#E0B570"/>
<stop offset="0.8708" stop-color="#EBC586"/>
<stop offset="1" stop-color="#EFE4CE"/>
</linearGradient>
<linearGradient id="paint8_linear_817_4060" x1="-3.26229" y1="180.005" x2="131.262" y2="180.005" gradientUnits="userSpaceOnUse">
<stop offset="0.005618" stop-color="#EDC981"/>
<stop offset="0.1854" stop-color="#E4BF80"/>
<stop offset="0.5955" stop-color="#C3862B"/>
<stop offset="0.8103" stop-color="#E0B570"/>
<stop offset="0.8708" stop-color="#EBC586"/>
<stop offset="1" stop-color="#EFE4CE"/>
</linearGradient>
</defs>
</svg>
