<svg width="183" height="133" viewBox="0 0 183 133" fill="none" xmlns="http://www.w3.org/2000/svg">
<g clip-path="url(#clip0_248_11617)">
<path d="M104.048 44.6904C106.456 37.4124 116.865 32.084 128.247 32.084C140.449 32.084 153.358 39.3025 152.455 49.1964C151.733 57.1284 142.673 63.6632 131.945 66.4203C136.296 67.7357 139.95 69.487 142.778 71.7066C139.087 75.2217 135.338 78.4693 131.647 81.271C129.485 74.4885 122.025 69.1254 111.062 66.8439C124.257 62.7441 134.112 56.4446 135.785 48.6489C137.254 41.802 131.855 38.2918 125.809 38.5569C121.87 38.7303 115.724 40.8309 114.67 47.2741C114.044 51.1187 117.359 52.6471 120.15 50.6406C119.691 53.3531 115.892 56.0285 111.528 56.0285C105.397 56.0285 102.351 49.8157 104.046 44.6904H104.048ZM146.678 77.0028C141.346 81.7219 136.457 85.6135 131.968 88.5465C130.258 97.1523 123.598 103.33 115.47 103.33C109.347 103.33 102.514 99.3694 102.902 92.3317C103.487 81.7392 113.502 78.7319 113.502 78.7319C109.876 76.5024 91.3597 76.0615 88.0446 88.9825C84.7697 101.747 96.6332 111.084 113.71 111.084C131.818 111.084 147.493 102.463 149.293 88.0684C149.857 83.5649 149.085 79.7525 147.167 76.5693C147.004 76.7155 146.843 76.8592 146.678 77.0053V77.0028Z" fill="white"/>
<path d="M132 89.5842C132.8 84.7842 132 81.5842 131.5 80.5842C131.833 79.9175 132.5 78.484 132.5 78.084C132.5 77.584 133.5 75.584 134.5 73.584C135.5 71.584 135 72.0842 135.5 72.0842C136 72.0842 140.5 70.0842 142.5 71.5842C144.1 72.7842 146.167 75.4176 147 76.5842C146.5 78.9176 145.4 83.7842 145 84.5842C144.6 85.3842 140.5 88.9176 138.5 90.5842C136 92.2509 131.2 94.3842 132 89.5842Z" fill="white"/>
<path d="M141.755 99.8115C141.755 99.3833 143.143 98.2158 146.584 98.2158C160.889 97.933 180.383 96.9675 185.946 95.4082L177.966 107.955L185.946 117.356C180.383 118.911 160.889 119.877 146.584 120.163C143.143 120.163 141.953 121.339 141.755 121.759V99.8115Z" fill="url(#paint0_linear_248_11617)"/>
<path d="M184.909 97.0323C179.266 98.43 160.034 99.2986 146.58 99.5652C143.139 99.5652 141.751 100.733 141.751 101.161V99.8076C141.751 99.3794 143.139 98.2119 146.58 98.2119C160.885 97.9291 180.379 96.9636 185.942 95.4043L184.909 97.0323Z" fill="url(#paint1_linear_248_11617)"/>
<path d="M185.006 116.248C179.362 117.646 160.038 118.543 146.584 118.813C143.143 118.813 141.755 119.981 141.755 120.409V121.758C141.755 121.33 143.143 120.163 146.584 120.163C160.889 119.88 180.383 118.914 185.946 117.355L185.006 116.248Z" fill="url(#paint2_linear_248_11617)"/>
<path d="M141.755 123.2H167.913V104.452C167.913 101.406 148.9 101.406 146.584 101.406C143.143 101.406 141.755 100.263 141.755 99.8105V123.2Z" fill="url(#paint3_linear_248_11617)"/>
<path d="M167.913 104.448C167.913 101.402 148.9 101.402 146.584 101.402C143.143 101.402 141.755 100.259 141.755 99.8066V101.16C141.755 101.612 143.143 102.756 146.584 102.756C148.9 102.756 167.913 102.756 167.913 105.802V104.448Z" fill="url(#paint4_linear_248_11617)"/>
<path d="M167.562 29.2402C167.562 39.7273 172.02 48.2308 177.519 48.2308C172.02 48.2308 167.562 56.7344 167.562 67.2214C167.562 56.7344 163.104 48.2308 157.605 48.2308C163.104 48.2308 167.562 39.7273 167.562 29.2402Z" fill="url(#paint5_linear_248_11617)"/>
<path d="M157.609 48.2308H167.566V29.2402C167.562 39.7273 163.104 48.2308 157.609 48.2308Z" fill="url(#paint6_linear_248_11617)"/>
<path d="M177.518 48.2324H167.562V67.223C167.562 56.736 172.019 48.2324 177.518 48.2324Z" fill="url(#paint7_linear_248_11617)"/>
<path d="M152.761 0.0839844C152.761 5.30326 155.613 9.53282 159.131 9.53282C155.613 9.53282 152.761 13.7624 152.761 18.9817C152.761 13.7624 149.908 9.53282 146.391 9.53282C149.908 9.53282 152.761 5.30326 152.761 0.0839844Z" fill="url(#paint8_linear_248_11617)"/>
<path d="M146.387 9.53282H152.757V0.0839844C152.761 5.30326 149.909 9.53282 146.387 9.53282Z" fill="url(#paint9_linear_248_11617)"/>
<path d="M159.131 9.5332H152.761V18.982C152.761 13.7668 155.613 9.5332 159.131 9.5332Z" fill="url(#paint10_linear_248_11617)"/>
<path d="M60.8877 132.034H136.695C161.45 132.034 167.917 129.78 167.917 126.734V104.447C167.917 107.493 161.45 109.747 136.695 109.747H78.5214L75.4151 119.786L60.8917 121.85V132.034H60.8877Z" fill="url(#paint11_linear_248_11617)"/>
<path d="M60.8877 132.033H136.695C161.45 132.033 167.917 129.779 167.917 126.733V125.529C167.917 128.575 161.45 130.829 136.695 130.829H60.8877V132.033Z" fill="url(#paint12_linear_248_11617)"/>
<path d="M138.055 67.5716C123.237 49.1466 110.287 67.3333 77.5656 98.6853C48.289 126.729 15.6599 139.72 0.402344 124.442C18.1692 137.184 49.5355 110.085 80.2725 79.618C107.157 52.9722 131.044 43.3779 138.055 67.5716Z" fill="url(#paint13_linear_248_11617)"/>
<path d="M0.402344 124.442C18.1692 137.184 49.5355 110.085 80.2725 79.618C107.153 52.9722 131.044 43.3779 138.051 67.5716C127.138 46.2622 108.718 60.1547 78.917 89.1516C48.9143 118.407 16.9146 138.452 0.402344 124.442Z" fill="url(#paint14_linear_248_11617)"/>
<path d="M145.236 109.638C142.666 109.711 139.826 109.747 136.692 109.747H124.355H96.2604H90.4874H78.5178L78.1426 110.951H90.9312H95.1873H128.623H136.692C138.85 110.951 140.871 110.935 142.759 110.903C162.523 110.551 167.913 108.431 167.913 105.651V104.443C167.913 107.106 162.979 109.162 145.236 109.638Z" fill="url(#paint15_linear_248_11617)"/>
<path d="M103.707 20.4672C103.449 19.9986 103.215 19.6108 103.009 19.2997C102.388 18.8836 101.92 18.6251 101.61 18.52C101.194 18.314 100.726 18.209 100.21 18.209C99.1728 18.209 98.2369 18.6251 97.4099 19.4532L96.4779 20.7015C95.3362 22.1558 93.5208 24.4382 91.0317 27.5528C88.5426 30.6674 85.7428 33.887 82.6324 37.2076C80.1473 39.8052 77.9405 41.8816 76.0243 43.4368C74.104 44.9962 72.4459 46.1919 71.046 47.0201C69.6461 47.8522 68.4802 48.3976 67.5483 48.6561C66.6123 48.9147 65.8862 49.0439 65.3698 49.0439C64.8494 49.0439 64.4863 48.9955 64.2805 48.8904C66.1484 47.8522 67.0803 46.1919 67.0803 43.9055C67.0803 42.1401 66.5074 40.6899 65.3698 39.5466C64.2281 38.4034 62.7758 37.8338 61.0128 37.8338C59.8711 37.8338 58.9674 38.0398 58.2937 38.4559C57.616 38.872 57.0713 39.3366 56.6598 39.8577C56.6598 40.0637 56.5549 40.1687 56.3492 40.1687C55.2075 41.9341 54.6387 43.8529 54.6387 45.9293C54.6387 49.254 55.6714 51.904 57.7491 53.8714C59.8227 55.8468 62.5176 56.8325 65.8378 56.8325C67.7016 56.8325 69.6461 56.4204 71.6673 55.5882C73.6925 54.7561 75.8911 53.4593 78.2794 51.694L67.3506 88.241C71.0379 84.7467 74.697 81.1756 78.2875 77.6126C82.9632 72.9751 87.5138 68.8829 91.887 65.3845L104.099 23.3475V22.1032C104.099 21.4771 103.966 20.9317 103.707 20.4672ZM58.4712 117.945L55.4173 128.161C55.1026 129.098 55.3124 130.084 56.0386 131.122C56.8656 132.056 57.9024 132.653 59.149 132.912C60.3915 133.175 61.5857 133.304 62.7274 133.304C64.5912 133.304 66.6123 132.989 68.7908 132.367C70.9693 131.744 72.6274 130.137 73.7691 127.539C73.7691 127.333 73.8216 127.228 73.9224 127.228L82.4387 97.9161C81.4826 98.8452 80.5063 99.7824 79.5179 100.732C72.583 107.373 65.4828 113.158 58.4712 117.945Z" fill="white"/>
<path d="M93.4059 118.413C93.5202 118.418 93.6697 118.422 93.8545 118.426C94.0392 118.431 94.2239 118.433 94.4086 118.433C94.6197 118.433 94.8243 118.431 95.0222 118.426C95.2201 118.422 95.3608 118.42 95.4444 118.42C95.9898 118.42 96.3966 118.516 96.6649 118.71C96.9376 118.904 97.0739 119.152 97.0739 119.455C97.0739 119.609 97.0277 119.766 96.9354 119.924C96.843 120.082 96.7001 120.223 96.5066 120.346C96.313 120.469 96.0623 120.559 95.7545 120.617V120.63C96.1679 120.661 96.4956 120.735 96.7375 120.854C96.9794 120.973 97.1531 121.116 97.2587 121.283C97.3642 121.45 97.417 121.624 97.417 121.804C97.417 122.081 97.3444 122.314 97.1993 122.503C97.0541 122.693 96.8452 122.838 96.5725 122.939C96.2998 123.036 95.9744 123.084 95.5961 123.084C95.4906 123.084 95.3388 123.082 95.1409 123.077C94.943 123.069 94.7033 123.064 94.4218 123.064C94.2283 123.064 94.0392 123.066 93.8545 123.071C93.6697 123.071 93.5202 123.075 93.4059 123.084V122.952C93.5466 122.943 93.6521 122.926 93.7225 122.899C93.7929 122.873 93.8391 122.82 93.8611 122.741C93.8875 122.662 93.9006 122.543 93.9006 122.385V119.112C93.9006 118.95 93.8875 118.831 93.8611 118.756C93.8391 118.677 93.7907 118.624 93.7159 118.598C93.6456 118.567 93.5422 118.549 93.4059 118.545V118.413ZM95.3586 118.545C95.1871 118.545 95.075 118.582 95.0222 118.657C94.9738 118.732 94.9496 118.884 94.9496 119.112V122.385C94.9496 122.539 94.9606 122.655 94.9826 122.734C95.009 122.813 95.053 122.866 95.1145 122.893C95.1805 122.919 95.2773 122.932 95.4048 122.932C95.7215 122.932 95.9524 122.833 96.0975 122.635C96.2471 122.433 96.3218 122.147 96.3218 121.778C96.3218 121.439 96.2361 121.177 96.0645 120.993C95.8974 120.808 95.6181 120.716 95.2267 120.716H94.6659C94.6659 120.716 94.6659 120.698 94.6659 120.663C94.6659 120.623 94.6659 120.603 94.6659 120.603H95.2333C95.44 120.603 95.5983 120.555 95.7083 120.458C95.8182 120.357 95.8952 120.225 95.9392 120.062C95.9832 119.895 96.0052 119.717 96.0052 119.528C96.0052 119.203 95.9546 118.958 95.8534 118.796C95.7523 118.629 95.5873 118.545 95.3586 118.545ZM99.9187 118.4L101.522 122.53C101.583 122.688 101.652 122.798 101.726 122.86C101.806 122.917 101.876 122.948 101.937 122.952V123.084C101.806 123.075 101.649 123.071 101.469 123.071C101.293 123.066 101.115 123.064 100.935 123.064C100.732 123.064 100.541 123.066 100.361 123.071C100.18 123.071 100.037 123.075 99.9319 123.084V122.952C100.156 122.943 100.297 122.906 100.354 122.84C100.416 122.77 100.402 122.622 100.315 122.398L99.193 119.33L99.3117 119.159L98.309 121.771C98.2122 122.013 98.1528 122.211 98.1308 122.365C98.1132 122.519 98.1242 122.638 98.1638 122.721C98.2078 122.805 98.276 122.864 98.3683 122.899C98.4651 122.93 98.5794 122.948 98.7114 122.952V123.084C98.5662 123.075 98.4277 123.071 98.2958 123.071C98.1638 123.066 98.0297 123.064 97.8933 123.064C97.7966 123.064 97.7042 123.066 97.6162 123.071C97.5327 123.071 97.4579 123.075 97.3919 123.084V122.952C97.4843 122.934 97.5789 122.875 97.6756 122.774C97.7724 122.673 97.8669 122.501 97.9593 122.259L99.4635 118.4C99.5338 118.404 99.6086 118.407 99.6878 118.407C99.7713 118.407 99.8483 118.404 99.9187 118.4ZM100.38 121.184V121.316H98.4145L98.4805 121.184H100.38ZM104.413 118.321C104.879 118.321 105.286 118.415 105.633 118.604C105.985 118.794 106.258 119.066 106.451 119.423C106.645 119.774 106.742 120.203 106.742 120.709C106.742 121.202 106.643 121.633 106.445 122.002C106.247 122.371 105.97 122.66 105.614 122.866C105.262 123.073 104.859 123.176 104.406 123.176C103.94 123.176 103.531 123.082 103.179 122.893C102.832 122.704 102.561 122.431 102.368 122.075C102.174 121.718 102.077 121.29 102.077 120.788C102.077 120.296 102.176 119.865 102.374 119.495C102.577 119.126 102.852 118.838 103.199 118.631C103.551 118.424 103.956 118.321 104.413 118.321ZM104.387 118.44C104.14 118.44 103.925 118.538 103.74 118.736C103.56 118.934 103.419 119.207 103.318 119.554C103.221 119.902 103.173 120.304 103.173 120.762C103.173 121.228 103.228 121.635 103.338 121.982C103.452 122.325 103.604 122.591 103.793 122.781C103.986 122.965 104.2 123.058 104.433 123.058C104.679 123.058 104.892 122.959 105.073 122.761C105.257 122.563 105.398 122.29 105.495 121.943C105.596 121.591 105.647 121.188 105.647 120.735C105.647 120.265 105.589 119.858 105.475 119.515C105.365 119.172 105.213 118.908 105.02 118.723C104.831 118.534 104.62 118.44 104.387 118.44ZM112.58 118.413C112.562 118.637 112.549 118.853 112.54 119.06C112.536 119.266 112.534 119.425 112.534 119.535C112.534 119.631 112.536 119.724 112.54 119.812C112.545 119.9 112.549 119.974 112.553 120.036H112.402C112.331 119.667 112.241 119.374 112.131 119.159C112.026 118.943 111.898 118.791 111.749 118.703C111.599 118.611 111.423 118.565 111.221 118.565H111.069V122.332C111.069 122.508 111.087 122.64 111.122 122.728C111.161 122.816 111.232 122.875 111.333 122.906C111.434 122.932 111.581 122.948 111.775 122.952V123.084C111.639 123.08 111.456 123.075 111.227 123.071C111.003 123.066 110.768 123.064 110.522 123.064C110.28 123.064 110.051 123.066 109.835 123.071C109.62 123.075 109.446 123.08 109.314 123.084V122.952C109.512 122.948 109.662 122.932 109.763 122.906C109.864 122.875 109.932 122.816 109.967 122.728C110.003 122.64 110.02 122.508 110.02 122.332V118.565H109.875C109.673 118.565 109.497 118.611 109.347 118.703C109.198 118.791 109.07 118.943 108.965 119.159C108.859 119.37 108.767 119.662 108.687 120.036H108.536C108.545 119.974 108.549 119.9 108.549 119.812C108.553 119.724 108.556 119.631 108.556 119.535C108.556 119.425 108.551 119.266 108.542 119.06C108.538 118.853 108.527 118.637 108.509 118.413C108.712 118.418 108.932 118.422 109.169 118.426C109.411 118.431 109.653 118.433 109.895 118.433C110.137 118.433 110.354 118.433 110.548 118.433C110.746 118.433 110.964 118.433 111.201 118.433C111.443 118.433 111.685 118.431 111.927 118.426C112.169 118.422 112.386 118.418 112.58 118.413ZM114.981 118.413V118.545C114.84 118.549 114.733 118.567 114.658 118.598C114.587 118.624 114.541 118.677 114.519 118.756C114.497 118.831 114.486 118.95 114.486 119.112V122.385C114.486 122.543 114.497 122.662 114.519 122.741C114.546 122.82 114.594 122.873 114.664 122.899C114.735 122.926 114.84 122.943 114.981 122.952V123.084C114.862 123.075 114.713 123.071 114.532 123.071C114.352 123.066 114.17 123.064 113.985 123.064C113.769 123.064 113.569 123.066 113.385 123.071C113.204 123.071 113.057 123.075 112.942 123.084V122.952C113.083 122.943 113.189 122.926 113.259 122.899C113.33 122.873 113.376 122.82 113.398 122.741C113.424 122.662 113.437 122.543 113.437 122.385V119.112C113.437 118.95 113.424 118.831 113.398 118.756C113.376 118.677 113.327 118.624 113.253 118.598C113.182 118.567 113.079 118.549 112.942 118.545V118.413C113.057 118.418 113.204 118.422 113.385 118.426C113.569 118.431 113.769 118.433 113.985 118.433C114.17 118.433 114.352 118.431 114.532 118.426C114.713 118.422 114.862 118.418 114.981 118.413ZM119.738 118.413V118.545C119.597 118.563 119.491 118.6 119.421 118.657C119.35 118.71 119.302 118.796 119.276 118.915C119.254 119.033 119.243 119.2 119.243 119.416V123.097C119.19 123.093 119.135 123.091 119.078 123.091C119.025 123.091 118.968 123.093 118.906 123.097L116.043 119.469V122.002C116.043 122.244 116.056 122.431 116.083 122.563C116.109 122.69 116.166 122.783 116.254 122.84C116.347 122.893 116.489 122.93 116.683 122.952V123.084C116.599 123.075 116.489 123.071 116.353 123.071C116.217 123.066 116.089 123.064 115.97 123.064C115.869 123.064 115.766 123.066 115.66 123.071C115.555 123.071 115.467 123.075 115.397 123.084V122.952C115.537 122.93 115.643 122.893 115.713 122.84C115.784 122.787 115.83 122.701 115.852 122.583C115.878 122.459 115.891 122.292 115.891 122.081V119.112C115.891 118.95 115.878 118.831 115.852 118.756C115.83 118.677 115.781 118.624 115.707 118.598C115.636 118.567 115.533 118.549 115.397 118.545V118.413C115.467 118.418 115.555 118.422 115.66 118.426C115.766 118.431 115.869 118.433 115.97 118.433C116.076 118.433 116.177 118.431 116.274 118.426C116.371 118.422 116.459 118.418 116.538 118.413L119.091 121.56V119.495C119.091 119.253 119.078 119.068 119.051 118.941C119.025 118.809 118.966 118.714 118.873 118.657C118.785 118.6 118.645 118.563 118.451 118.545V118.413C118.535 118.418 118.645 118.422 118.781 118.426C118.917 118.431 119.045 118.433 119.164 118.433C119.269 118.433 119.372 118.431 119.474 118.426C119.579 118.422 119.667 118.418 119.738 118.413ZM124.072 118.321C124.372 118.321 124.616 118.363 124.805 118.446C124.994 118.53 125.163 118.631 125.313 118.75C125.366 118.789 125.409 118.809 125.445 118.809C125.528 118.809 125.583 118.677 125.61 118.413H125.761C125.753 118.585 125.746 118.794 125.742 119.04C125.737 119.282 125.735 119.605 125.735 120.01H125.583C125.552 119.746 125.504 119.517 125.438 119.324C125.376 119.126 125.26 118.956 125.088 118.816C124.983 118.714 124.851 118.635 124.693 118.578C124.539 118.521 124.383 118.492 124.224 118.492C123.982 118.492 123.776 118.556 123.604 118.684C123.433 118.807 123.292 118.976 123.182 119.192C123.072 119.407 122.99 119.651 122.938 119.924C122.885 120.192 122.859 120.471 122.859 120.762C122.859 121.553 122.966 122.132 123.182 122.497C123.402 122.862 123.716 123.044 124.125 123.044C124.231 123.044 124.323 123.031 124.402 123.005C124.481 122.978 124.545 122.948 124.594 122.912C124.655 122.868 124.697 122.822 124.719 122.774C124.741 122.721 124.752 122.653 124.752 122.569V121.923C124.752 121.721 124.734 121.571 124.699 121.474C124.668 121.373 124.605 121.305 124.508 121.27C124.411 121.235 124.27 121.215 124.086 121.21V121.078C124.178 121.083 124.288 121.087 124.415 121.092C124.547 121.092 124.684 121.094 124.825 121.098C124.965 121.098 125.095 121.098 125.214 121.098C125.398 121.098 125.568 121.096 125.722 121.092C125.876 121.087 126.001 121.083 126.098 121.078V121.21C126.014 121.215 125.95 121.23 125.906 121.257C125.867 121.283 125.838 121.336 125.821 121.415C125.808 121.494 125.801 121.615 125.801 121.778V123.084H125.669C125.665 123.009 125.647 122.928 125.616 122.84C125.59 122.752 125.544 122.708 125.478 122.708C125.447 122.708 125.405 122.717 125.352 122.734C125.304 122.748 125.227 122.785 125.121 122.846C124.959 122.939 124.787 123.018 124.607 123.084C124.426 123.146 124.237 123.176 124.039 123.176C123.529 123.176 123.098 123.082 122.746 122.893C122.395 122.704 122.128 122.433 121.948 122.081C121.772 121.725 121.684 121.298 121.684 120.801C121.684 120.3 121.785 119.865 121.988 119.495C122.194 119.126 122.476 118.838 122.832 118.631C123.193 118.424 123.606 118.321 124.072 118.321ZM126.443 118.413C126.553 118.418 126.7 118.422 126.885 118.426C127.074 118.431 127.261 118.433 127.446 118.433C127.657 118.433 127.862 118.431 128.06 118.426C128.257 118.422 128.398 118.42 128.482 118.42C128.891 118.42 129.229 118.466 129.498 118.558C129.77 118.646 129.973 118.776 130.105 118.948C130.241 119.119 130.309 119.326 130.309 119.568C130.309 119.717 130.278 119.869 130.217 120.023C130.155 120.172 130.05 120.313 129.9 120.445C129.755 120.573 129.555 120.676 129.3 120.755C129.045 120.83 128.724 120.867 128.337 120.867H127.703V120.735H128.271C128.53 120.735 128.726 120.687 128.858 120.59C128.994 120.489 129.086 120.357 129.135 120.194C129.188 120.027 129.214 119.843 129.214 119.64C129.214 119.293 129.152 119.024 129.029 118.835C128.906 118.642 128.695 118.545 128.396 118.545C128.224 118.545 128.112 118.582 128.06 118.657C128.011 118.732 127.987 118.884 127.987 119.112V122.385C127.987 122.543 127.998 122.662 128.02 122.741C128.046 122.82 128.095 122.873 128.165 122.899C128.235 122.926 128.341 122.943 128.482 122.952V123.084C128.363 123.075 128.213 123.071 128.033 123.071C127.853 123.066 127.67 123.064 127.486 123.064C127.274 123.064 127.074 123.066 126.885 123.071C126.7 123.071 126.553 123.075 126.443 123.084V122.952C126.584 122.943 126.689 122.926 126.76 122.899C126.83 122.873 126.876 122.82 126.898 122.741C126.925 122.662 126.938 122.543 126.938 122.385V119.112C126.938 118.95 126.925 118.831 126.898 118.756C126.876 118.677 126.828 118.624 126.753 118.598C126.683 118.567 126.58 118.549 126.443 118.545V118.413ZM127.69 120.755C127.879 120.76 128.042 120.768 128.178 120.782C128.319 120.795 128.442 120.808 128.548 120.821C128.653 120.83 128.748 120.837 128.831 120.841C129.232 120.876 129.526 120.962 129.715 121.098C129.909 121.235 130.034 121.439 130.091 121.712L130.243 122.391C130.283 122.567 130.325 122.69 130.369 122.761C130.413 122.831 130.476 122.866 130.56 122.866C130.617 122.862 130.663 122.849 130.698 122.827C130.738 122.8 130.78 122.763 130.824 122.715L130.916 122.794C130.797 122.93 130.67 123.027 130.533 123.084C130.397 123.146 130.232 123.176 130.039 123.176C129.801 123.176 129.605 123.126 129.452 123.025C129.298 122.923 129.196 122.737 129.148 122.464L129.029 121.804C128.999 121.619 128.961 121.459 128.917 121.323C128.873 121.182 128.812 121.072 128.732 120.993C128.658 120.909 128.552 120.867 128.416 120.867H127.703L127.69 120.755ZM133.373 118.321C133.839 118.321 134.246 118.415 134.593 118.604C134.945 118.794 135.218 119.066 135.411 119.423C135.605 119.774 135.702 120.203 135.702 120.709C135.702 121.202 135.603 121.633 135.405 122.002C135.207 122.371 134.93 122.66 134.574 122.866C134.222 123.073 133.819 123.176 133.366 123.176C132.9 123.176 132.491 123.082 132.139 122.893C131.792 122.704 131.521 122.431 131.328 122.075C131.134 121.718 131.037 121.29 131.037 120.788C131.037 120.296 131.136 119.865 131.334 119.495C131.537 119.126 131.811 118.838 132.159 118.631C132.511 118.424 132.915 118.321 133.373 118.321ZM133.346 118.44C133.1 118.44 132.885 118.538 132.7 118.736C132.52 118.934 132.379 119.207 132.278 119.554C132.181 119.902 132.133 120.304 132.133 120.762C132.133 121.228 132.188 121.635 132.297 121.982C132.412 122.325 132.564 122.591 132.753 122.781C132.946 122.965 133.16 123.058 133.393 123.058C133.639 123.058 133.852 122.959 134.033 122.761C134.217 122.563 134.358 122.29 134.455 121.943C134.556 121.591 134.607 121.188 134.607 120.735C134.607 120.265 134.549 119.858 134.435 119.515C134.325 119.172 134.173 118.908 133.98 118.723C133.791 118.534 133.58 118.44 133.346 118.44ZM140.347 118.413V118.545C140.206 118.563 140.098 118.6 140.023 118.657C139.953 118.71 139.907 118.796 139.885 118.915C139.863 119.033 139.852 119.2 139.852 119.416V121.164C139.852 121.45 139.832 121.712 139.793 121.949C139.753 122.187 139.683 122.391 139.581 122.563C139.467 122.752 139.3 122.901 139.08 123.011C138.86 123.121 138.581 123.176 138.242 123.176C138.04 123.176 137.833 123.152 137.622 123.104C137.411 123.06 137.222 122.974 137.055 122.846C136.914 122.728 136.806 122.594 136.731 122.444C136.657 122.295 136.606 122.119 136.58 121.916C136.553 121.71 136.54 121.465 136.54 121.184V119.112C136.54 118.95 136.527 118.831 136.5 118.756C136.479 118.677 136.432 118.624 136.362 118.598C136.292 118.567 136.186 118.549 136.045 118.545V118.413C136.155 118.418 136.303 118.422 136.487 118.426C136.676 118.431 136.872 118.433 137.074 118.433C137.277 118.433 137.47 118.431 137.655 118.426C137.844 118.422 138 118.418 138.123 118.413V118.545C137.974 118.549 137.86 118.567 137.78 118.598C137.706 118.624 137.655 118.677 137.629 118.756C137.602 118.831 137.589 118.95 137.589 119.112V121.6C137.589 121.82 137.602 122.015 137.629 122.187C137.659 122.354 137.708 122.495 137.774 122.609C137.844 122.719 137.939 122.803 138.057 122.86C138.176 122.917 138.324 122.945 138.499 122.945C138.807 122.945 139.047 122.873 139.219 122.728C139.394 122.583 139.518 122.382 139.588 122.127C139.663 121.868 139.7 121.571 139.7 121.237V119.495C139.7 119.253 139.685 119.068 139.654 118.941C139.623 118.809 139.562 118.714 139.469 118.657C139.381 118.6 139.245 118.563 139.06 118.545V118.413C139.144 118.418 139.254 118.422 139.39 118.426C139.526 118.431 139.654 118.433 139.773 118.433C139.878 118.433 139.982 118.431 140.083 118.426C140.188 118.422 140.276 118.418 140.347 118.413ZM140.66 118.413C140.77 118.418 140.917 118.422 141.102 118.426C141.291 118.431 141.478 118.433 141.663 118.433C141.874 118.433 142.078 118.431 142.276 118.426C142.474 118.422 142.615 118.42 142.698 118.42C143.31 118.42 143.767 118.541 144.071 118.783C144.374 119.024 144.526 119.337 144.526 119.719C144.526 119.878 144.495 120.045 144.433 120.221C144.372 120.392 144.266 120.553 144.117 120.702C143.972 120.848 143.771 120.966 143.516 121.059C143.261 121.151 142.94 121.197 142.553 121.197H141.88V121.065H142.487C142.747 121.065 142.942 121.006 143.074 120.887C143.211 120.768 143.303 120.612 143.351 120.419C143.404 120.225 143.431 120.016 143.431 119.792C143.431 119.374 143.369 119.062 143.246 118.855C143.123 118.648 142.912 118.545 142.613 118.545C142.441 118.545 142.329 118.582 142.276 118.657C142.228 118.732 142.204 118.884 142.204 119.112V122.345C142.204 122.517 142.221 122.644 142.256 122.728C142.291 122.811 142.36 122.866 142.461 122.893C142.562 122.919 142.712 122.934 142.909 122.939V123.084C142.773 123.08 142.597 123.075 142.382 123.071C142.166 123.066 141.94 123.064 141.702 123.064C141.513 123.064 141.328 123.066 141.148 123.071C140.968 123.075 140.805 123.08 140.66 123.084V122.952C140.8 122.943 140.906 122.926 140.976 122.899C141.047 122.873 141.093 122.82 141.115 122.741C141.141 122.662 141.155 122.543 141.155 122.385V119.112C141.155 118.95 141.141 118.831 141.115 118.756C141.093 118.677 141.045 118.624 140.97 118.598C140.899 118.567 140.796 118.549 140.66 118.545V118.413Z" fill="white"/>
</g>
<defs>
<linearGradient id="paint0_linear_248_11617" x1="204.607" y1="108.583" x2="157.575" y2="108.583" gradientUnits="userSpaceOnUse">
<stop offset="0.0955" stop-color="#956338"/>
<stop offset="0.1658" stop-color="#A3703A"/>
<stop offset="0.3436" stop-color="#C59143"/>
<stop offset="0.4815" stop-color="#DCA94C"/>
<stop offset="0.5618" stop-color="#E6B350"/>
<stop offset="0.9326" stop-color="#956338"/>
</linearGradient>
<linearGradient id="paint1_linear_248_11617" x1="204.608" y1="98.2854" x2="157.575" y2="98.2854" gradientUnits="userSpaceOnUse">
<stop offset="0.0955" stop-color="#956338"/>
<stop offset="0.1658" stop-color="#A3703A"/>
<stop offset="0.3436" stop-color="#C59143"/>
<stop offset="0.4815" stop-color="#DCA94C"/>
<stop offset="0.5618" stop-color="#E6B350"/>
<stop offset="0.9326" stop-color="#956338"/>
</linearGradient>
<linearGradient id="paint2_linear_248_11617" x1="204.607" y1="119.001" x2="157.575" y2="119.001" gradientUnits="userSpaceOnUse">
<stop offset="0.0955" stop-color="#956338"/>
<stop offset="0.1658" stop-color="#A3703A"/>
<stop offset="0.3436" stop-color="#C59143"/>
<stop offset="0.4815" stop-color="#DCA94C"/>
<stop offset="0.5618" stop-color="#E6B350"/>
<stop offset="0.9326" stop-color="#956338"/>
</linearGradient>
<linearGradient id="paint3_linear_248_11617" x1="123.578" y1="111.504" x2="165.069" y2="111.504" gradientUnits="userSpaceOnUse">
<stop offset="0.011" stop-color="#57281C"/>
<stop offset="0.5332" stop-color="#984D2D"/>
<stop offset="0.9835" stop-color="#4B2015"/>
</linearGradient>
<linearGradient id="paint4_linear_248_11617" x1="123.578" y1="102.806" x2="165.069" y2="102.806" gradientUnits="userSpaceOnUse">
<stop offset="0.011" stop-color="#57281C"/>
<stop offset="0.5332" stop-color="#984D2D"/>
<stop offset="0.9835" stop-color="#4B2015"/>
</linearGradient>
<linearGradient id="paint5_linear_248_11617" x1="177.519" y1="48.2315" x2="154.605" y2="48.2315" gradientUnits="userSpaceOnUse">
<stop stop-color="#C58936"/>
<stop offset="0.0124" stop-color="#C88D38"/>
<stop offset="0.0996" stop-color="#D9A545"/>
<stop offset="0.1844" stop-color="#E7B851"/>
<stop offset="0.2652" stop-color="#EFC45A"/>
<stop offset="0.3374" stop-color="#F2C85D"/>
<stop offset="0.7055" stop-color="#C58936"/>
<stop offset="1" stop-color="#833F1F"/>
</linearGradient>
<linearGradient id="paint6_linear_248_11617" x1="157.844" y1="48.468" x2="174.508" y2="31.827" gradientUnits="userSpaceOnUse">
<stop stop-color="#C58936"/>
<stop offset="0.0124" stop-color="#C88D38"/>
<stop offset="0.0996" stop-color="#D9A545"/>
<stop offset="0.1844" stop-color="#E7B851"/>
<stop offset="0.2652" stop-color="#EFC45A"/>
<stop offset="0.3374" stop-color="#F2C85D"/>
<stop offset="0.7055" stop-color="#C58936"/>
<stop offset="1" stop-color="#833F1F"/>
</linearGradient>
<linearGradient id="paint7_linear_248_11617" x1="162.822" y1="62.4758" x2="179.485" y2="45.8344" gradientUnits="userSpaceOnUse">
<stop stop-color="#C58936"/>
<stop offset="0.0124" stop-color="#C88D38"/>
<stop offset="0.0996" stop-color="#D9A545"/>
<stop offset="0.1844" stop-color="#E7B851"/>
<stop offset="0.2652" stop-color="#EFC45A"/>
<stop offset="0.3374" stop-color="#F2C85D"/>
<stop offset="0.7055" stop-color="#C58936"/>
<stop offset="1" stop-color="#833F1F"/>
</linearGradient>
<linearGradient id="paint8_linear_248_11617" x1="159.131" y1="9.53443" x2="144.466" y2="9.53443" gradientUnits="userSpaceOnUse">
<stop stop-color="#C58936"/>
<stop offset="0.0124" stop-color="#C88D38"/>
<stop offset="0.0996" stop-color="#D9A545"/>
<stop offset="0.1844" stop-color="#E7B851"/>
<stop offset="0.2652" stop-color="#EFC45A"/>
<stop offset="0.3374" stop-color="#F2C85D"/>
<stop offset="0.7055" stop-color="#C58936"/>
<stop offset="1" stop-color="#833F1F"/>
</linearGradient>
<linearGradient id="paint9_linear_248_11617" x1="147.215" y1="10.3617" x2="156.324" y2="1.26496" gradientUnits="userSpaceOnUse">
<stop stop-color="#C58936"/>
<stop offset="0.0124" stop-color="#C88D38"/>
<stop offset="0.0996" stop-color="#D9A545"/>
<stop offset="0.1844" stop-color="#E7B851"/>
<stop offset="0.2652" stop-color="#EFC45A"/>
<stop offset="0.3374" stop-color="#F2C85D"/>
<stop offset="0.7055" stop-color="#C58936"/>
<stop offset="1" stop-color="#833F1F"/>
</linearGradient>
<linearGradient id="paint10_linear_248_11617" x1="150.4" y1="16.6226" x2="159.51" y2="7.52557" gradientUnits="userSpaceOnUse">
<stop stop-color="#C58936"/>
<stop offset="0.0124" stop-color="#C88D38"/>
<stop offset="0.0996" stop-color="#D9A545"/>
<stop offset="0.1844" stop-color="#E7B851"/>
<stop offset="0.2652" stop-color="#EFC45A"/>
<stop offset="0.3374" stop-color="#F2C85D"/>
<stop offset="0.7055" stop-color="#C58936"/>
<stop offset="1" stop-color="#833F1F"/>
</linearGradient>
<linearGradient id="paint11_linear_248_11617" x1="167.913" y1="118.243" x2="60.8858" y2="118.243" gradientUnits="userSpaceOnUse">
<stop offset="0.00549451" stop-color="#A25723"/>
<stop offset="0.2363" stop-color="#FDBA63"/>
<stop offset="0.5055" stop-color="#D77D39"/>
<stop offset="0.7692" stop-color="#FDBA63"/>
<stop offset="0.9835" stop-color="#A25723"/>
</linearGradient>
<linearGradient id="paint12_linear_248_11617" x1="167.913" y1="128.782" x2="60.8858" y2="128.782" gradientUnits="userSpaceOnUse">
<stop offset="0.00549451" stop-color="#A25723"/>
<stop offset="0.2363" stop-color="#FDBA63"/>
<stop offset="0.5055" stop-color="#D77D39"/>
<stop offset="0.7692" stop-color="#FDBA63"/>
<stop offset="0.9835" stop-color="#A25723"/>
</linearGradient>
<linearGradient id="paint13_linear_248_11617" x1="69.2284" y1="130.924" x2="69.2284" y2="53.6844" gradientUnits="userSpaceOnUse">
<stop offset="0.0955" stop-color="#956338"/>
<stop offset="0.1658" stop-color="#A3703A"/>
<stop offset="0.3436" stop-color="#C59143"/>
<stop offset="0.4815" stop-color="#DCA94C"/>
<stop offset="0.5618" stop-color="#E6B350"/>
<stop offset="0.9326" stop-color="#956338"/>
</linearGradient>
<linearGradient id="paint14_linear_248_11617" x1="69.2284" y1="129.009" x2="69.2284" y2="53.6844" gradientUnits="userSpaceOnUse">
<stop offset="0.0955" stop-color="#CF8B2D"/>
<stop offset="0.1658" stop-color="#D59938"/>
<stop offset="0.3436" stop-color="#E5BC5D"/>
<stop offset="0.4815" stop-color="#F0D377"/>
<stop offset="0.5618" stop-color="#F4DC80"/>
<stop offset="0.9326" stop-color="#BB8732"/>
</linearGradient>
<linearGradient id="paint15_linear_248_11617" x1="167.914" y1="107.697" x2="78.145" y2="107.697" gradientUnits="userSpaceOnUse">
<stop stop-color="#C58936"/>
<stop offset="0.0124" stop-color="#C88D38"/>
<stop offset="0.0996" stop-color="#D9A545"/>
<stop offset="0.1844" stop-color="#E7B851"/>
<stop offset="0.2652" stop-color="#EFC45A"/>
<stop offset="0.3374" stop-color="#F2C85D"/>
<stop offset="0.5379" stop-color="#C58936"/>
<stop offset="0.8296" stop-color="#E7B952"/>
<stop offset="1" stop-color="#E9BC54"/>
</linearGradient>
<clipPath id="clip0_248_11617">
<rect width="182" height="132" fill="white" transform="translate(0.232422 0.0839844)"/>
</clipPath>
</defs>
</svg>
