<svg width="183" height="133" viewBox="0 0 183 133" fill="none" xmlns="http://www.w3.org/2000/svg">
<path d="M143.765 88.4177C143.765 88.0384 144.991 87.0044 148.032 87.0044C160.674 86.7539 177.9 85.8987 182.816 84.5176L175.765 95.6312L182.816 103.957C177.9 105.335 160.674 106.19 148.032 106.444C144.991 106.444 143.939 107.485 143.765 107.858V88.4177V88.4177Z" fill="url(#paint0_linear_205_1153)"/>
<g style="mix-blend-mode:screen">
<path style="mix-blend-mode:screen" d="M181.904 85.9556C176.916 87.1937 159.922 87.963 148.032 88.1991C144.991 88.1991 143.765 89.2332 143.765 89.6125V88.4138C143.765 88.0345 144.991 87.0005 148.032 87.0005C160.674 86.75 177.9 85.8948 182.816 84.5137L181.904 85.9521V85.9556Z" fill="url(#paint1_linear_205_1153)"/>
<path style="mix-blend-mode:screen" d="M181.986 102.977C176.998 104.215 159.922 105.009 148.032 105.249C144.991 105.249 143.765 106.283 143.765 106.662V107.857C143.765 107.478 144.991 106.444 148.032 106.444C160.674 106.193 177.9 105.338 182.816 103.957L181.986 102.977Z" fill="url(#paint2_linear_205_1153)"/>
</g>
<path d="M143.765 109.137H166.881V92.5312C166.881 89.8333 150.078 89.8333 148.032 89.8333C144.991 89.8333 143.765 88.8207 143.765 88.4199V109.137V109.137Z" fill="url(#paint3_linear_205_1153)"/>
<path style="mix-blend-mode:screen" d="M166.884 92.5282C166.884 89.8303 150.082 89.8303 148.036 89.8303C144.995 89.8303 143.769 88.8177 143.769 88.417V89.6157C143.769 90.0128 144.995 91.029 148.036 91.029C150.082 91.029 166.884 91.029 166.884 93.7269V92.5282Z" fill="url(#paint4_linear_205_1153)"/>
<path d="M145.51 18.627C145.51 23.5039 149.45 27.4577 154.309 27.4577C149.45 27.4577 145.51 31.4115 145.51 36.2885C145.51 31.4115 141.571 27.4577 136.712 27.4577C141.571 27.4577 145.51 23.5039 145.51 18.627V18.627Z" fill="url(#paint5_linear_205_1153)"/>
<path d="M136.712 27.4577H145.51V18.627C145.51 23.5039 141.571 27.4577 136.712 27.4577Z" fill="url(#paint6_linear_205_1153)"/>
<path d="M154.306 27.4561H145.508V36.2868C145.508 31.4099 149.447 27.4561 154.306 27.4561V27.4561Z" fill="url(#paint7_linear_205_1153)"/>
<path d="M166.575 25.9189C166.575 35.2077 170.514 42.7396 175.374 42.7396C170.514 42.7396 166.575 50.2716 166.575 59.5603C166.575 50.2716 162.636 42.7396 157.776 42.7396C162.636 42.7396 166.575 35.2077 166.575 25.9189Z" fill="url(#paint8_linear_205_1153)"/>
<path d="M157.777 42.7396H166.576V25.9189C166.576 35.2077 162.637 42.7396 157.777 42.7396Z" fill="url(#paint9_linear_205_1153)"/>
<path d="M175.376 42.7412H166.577V59.5619C166.577 50.2731 170.517 42.7412 175.376 42.7412Z" fill="url(#paint10_linear_205_1153)"/>
<path d="M153.492 0.0908203C153.492 4.71374 156.012 8.46002 159.121 8.46002C156.012 8.46002 153.492 12.2063 153.492 16.8292C153.492 12.2063 150.971 8.46002 147.862 8.46002C150.971 8.46002 153.492 4.71374 153.492 0.0908203Z" fill="url(#paint11_linear_205_1153)"/>
<path d="M147.862 8.46002H153.492V0.0908203C153.492 4.71374 150.971 8.46002 147.862 8.46002Z" fill="url(#paint12_linear_205_1153)"/>
<path d="M159.125 8.45801H153.496V16.8272C153.496 12.2043 156.017 8.45801 159.125 8.45801Z" fill="url(#paint13_linear_205_1153)"/>
<path d="M128.341 35.1299C107.164 34.0994 87.8097 48.5693 85.1109 67.4474C85.0004 68.2238 84.922 68.9967 84.8721 69.766C85.0432 69.5907 85.2179 69.4118 85.389 69.2365C100.412 53.7182 114.455 43.975 127.172 44.2076C134.213 44.2076 139.296 50.6231 140.476 59.7366C140.483 59.7795 140.491 59.8224 140.494 59.8654L140.487 59.8547C140.854 62.7744 140.826 65.9625 140.33 69.308C138.277 83.1696 129.371 94.412 120.049 94.412C110.726 94.412 104.516 83.1732 106.569 69.308C107.022 66.2523 107.824 63.3254 108.897 60.6168C102.612 66.1736 95.2999 73.4658 86.4763 81.4807C90.8364 93.7322 103.286 102.728 118.922 103.49C140.098 104.52 159.093 90.0503 161.792 71.1722C164.491 52.2941 149.514 36.1568 128.337 35.1299H128.341Z" fill="white"/>
<path d="M65.4219 116.958H139.294C161.169 116.958 166.884 114.962 166.884 112.264V92.5234C166.884 95.2213 161.169 97.2179 139.294 97.2179H65.4219V116.958Z" fill="url(#paint14_linear_205_1153)"/>
<g style="mix-blend-mode:screen">
<path style="mix-blend-mode:screen" d="M65.4219 116.955H139.294C161.169 116.955 166.884 114.959 166.884 112.261V111.194C166.884 113.892 161.169 115.889 139.294 115.889H65.4219V116.955Z" fill="url(#paint15_linear_205_1153)"/>
<path style="mix-blend-mode:screen" d="M65.4219 98.2842H139.294C161.169 98.2842 166.884 96.2876 166.884 93.5897V92.5234C166.884 95.2213 161.169 97.2179 139.294 97.2179H65.4219" fill="url(#paint16_linear_205_1153)"/>
</g>
<path d="M24.3444 36.1904C27.7669 25.678 42.5654 17.9814 58.7473 17.9814C76.0948 17.9814 94.4478 28.4081 93.1644 42.699C92.1376 54.1561 79.2571 63.5952 64.0057 67.5776C70.1911 69.4776 75.3854 72.0073 79.4068 75.2133C74.159 80.2906 68.8293 84.9815 63.5815 89.0284C60.5084 79.2315 49.9023 71.4849 34.3159 68.1895C53.0752 62.2677 67.0859 53.1686 69.4638 41.9083C71.553 32.0184 63.8774 26.9482 55.282 27.331C49.6813 27.5815 40.9433 30.6157 39.446 39.9224C38.5547 45.4756 43.2678 47.6833 47.2357 44.7851C46.5833 48.7031 41.1822 52.5674 34.979 52.5674C26.2624 52.5674 21.9309 43.5935 24.3408 36.1904H24.3444ZM84.9505 82.8633C77.3711 89.6796 70.4193 95.3008 64.0378 99.5373C61.6064 111.968 52.1376 120.891 40.5833 120.891C31.8774 120.891 22.1626 115.17 22.7152 105.005C23.5458 89.7046 37.7847 85.3608 37.7847 85.3608C32.6296 82.1405 6.30519 81.5036 1.59218 100.167C-3.06379 118.605 13.8025 132.091 38.0806 132.091C63.8239 132.091 86.1091 119.639 88.6688 98.8467C89.471 92.3417 88.3729 86.835 85.6456 82.2371C85.4139 82.4482 85.1858 82.6557 84.9505 82.8669V82.8633Z" fill="white"/>
<path d="M140.498 59.8619C127.403 43.5422 115.959 59.6508 87.0431 87.4205C61.1715 112.263 39.8239 116.253 26.3408 102.724C42.0414 114.009 62.2766 97.5179 89.4389 70.5318C113.193 46.9306 134.305 38.4326 140.498 59.8619V59.8619Z" fill="url(#paint17_linear_205_1153)"/>
<path d="M26.3369 102.721C42.0374 114.006 62.2727 97.515 89.435 70.5289C113.189 46.9277 134.301 38.4297 140.494 59.859C130.85 40.9845 114.572 53.2896 88.2371 78.9732C61.7202 104.886 40.9287 115.13 26.3369 102.721Z" fill="url(#paint18_linear_205_1153)"/>
<defs>
<linearGradient id="paint0_linear_205_1153" x1="199.308" y1="96.1858" x2="157.747" y2="96.1858" gradientUnits="userSpaceOnUse">
<stop offset="0.1" stop-color="#946338"/>
<stop offset="0.3" stop-color="#BF8D44"/>
<stop offset="0.47" stop-color="#DAA74C"/>
<stop offset="0.56" stop-color="#E5B250"/>
<stop offset="0.93" stop-color="#946338"/>
</linearGradient>
<linearGradient id="paint1_linear_205_1153" x1="317.155" y1="87.0649" x2="316.799" y2="87.0649" gradientUnits="userSpaceOnUse">
<stop offset="0.1" stop-color="#946338"/>
<stop offset="0.3" stop-color="#BF8D44"/>
<stop offset="0.47" stop-color="#DAA74C"/>
<stop offset="0.56" stop-color="#E5B250"/>
<stop offset="0.93" stop-color="#946338"/>
</linearGradient>
<linearGradient id="paint2_linear_205_1153" x1="317.155" y1="105.413" x2="316.799" y2="105.413" gradientUnits="userSpaceOnUse">
<stop offset="0.1" stop-color="#946338"/>
<stop offset="0.3" stop-color="#BF8D44"/>
<stop offset="0.47" stop-color="#DAA74C"/>
<stop offset="0.56" stop-color="#E5B250"/>
<stop offset="0.93" stop-color="#946338"/>
</linearGradient>
<linearGradient id="paint3_linear_205_1153" x1="127.704" y1="98.7785" x2="164.371" y2="98.7785" gradientUnits="userSpaceOnUse">
<stop offset="0.01" stop-color="#57271C"/>
<stop offset="0.53" stop-color="#984D2D"/>
<stop offset="0.98" stop-color="#4B2014"/>
</linearGradient>
<linearGradient id="paint4_linear_205_1153" x1="785.13" y1="91.0719" x2="785.487" y2="91.0719" gradientUnits="userSpaceOnUse">
<stop offset="0.01" stop-color="#57271C"/>
<stop offset="0.53" stop-color="#984D2D"/>
<stop offset="0.98" stop-color="#4B2014"/>
</linearGradient>
<linearGradient id="paint5_linear_205_1153" x1="154.306" y1="27.4577" x2="134.056" y2="27.4577" gradientUnits="userSpaceOnUse">
<stop stop-color="#C48836"/>
<stop offset="0.08" stop-color="#D59F44"/>
<stop offset="0.17" stop-color="#E5B551"/>
<stop offset="0.26" stop-color="#EEC359"/>
<stop offset="0.34" stop-color="#F2C85C"/>
<stop offset="0.71" stop-color="#C48836"/>
<stop offset="1" stop-color="#833F1F"/>
</linearGradient>
<linearGradient id="paint6_linear_205_1153" x1="138.908" y1="29.6654" x2="147.739" y2="20.8669" gradientUnits="userSpaceOnUse">
<stop stop-color="#C48836"/>
<stop offset="0.08" stop-color="#D59F44"/>
<stop offset="0.17" stop-color="#E5B551"/>
<stop offset="0.26" stop-color="#EEC359"/>
<stop offset="0.34" stop-color="#F2C85C"/>
<stop offset="0.71" stop-color="#C48836"/>
<stop offset="1" stop-color="#833F1F"/>
</linearGradient>
<linearGradient id="paint7_linear_205_1153" x1="143.308" y1="34.0791" x2="152.139" y2="25.2806" gradientUnits="userSpaceOnUse">
<stop stop-color="#C48836"/>
<stop offset="0.08" stop-color="#D59F44"/>
<stop offset="0.17" stop-color="#E5B551"/>
<stop offset="0.26" stop-color="#EEC359"/>
<stop offset="0.34" stop-color="#F2C85C"/>
<stop offset="0.71" stop-color="#C48836"/>
<stop offset="1" stop-color="#833F1F"/>
</linearGradient>
<linearGradient id="paint8_linear_205_1153" x1="175.37" y1="42.7396" x2="155.12" y2="42.7396" gradientUnits="userSpaceOnUse">
<stop stop-color="#C48836"/>
<stop offset="0.08" stop-color="#D59F44"/>
<stop offset="0.17" stop-color="#E5B551"/>
<stop offset="0.26" stop-color="#EEC359"/>
<stop offset="0.34" stop-color="#F2C85C"/>
<stop offset="0.71" stop-color="#C48836"/>
<stop offset="1" stop-color="#833F1F"/>
</linearGradient>
<linearGradient id="paint9_linear_205_1153" x1="157.988" y1="42.9507" x2="172.747" y2="28.2449" gradientUnits="userSpaceOnUse">
<stop stop-color="#C48836"/>
<stop offset="0.08" stop-color="#D59F44"/>
<stop offset="0.17" stop-color="#E5B551"/>
<stop offset="0.26" stop-color="#EEC359"/>
<stop offset="0.34" stop-color="#F2C85C"/>
<stop offset="0.71" stop-color="#C48836"/>
<stop offset="1" stop-color="#833F1F"/>
</linearGradient>
<linearGradient id="paint10_linear_205_1153" x1="162.388" y1="55.3576" x2="177.148" y2="40.6518" gradientUnits="userSpaceOnUse">
<stop stop-color="#C48836"/>
<stop offset="0.08" stop-color="#D59F44"/>
<stop offset="0.17" stop-color="#E5B551"/>
<stop offset="0.26" stop-color="#EEC359"/>
<stop offset="0.34" stop-color="#F2C85C"/>
<stop offset="0.71" stop-color="#C48836"/>
<stop offset="1" stop-color="#833F1F"/>
</linearGradient>
<linearGradient id="paint11_linear_205_1153" x1="159.121" y1="8.46002" x2="146.162" y2="8.46002" gradientUnits="userSpaceOnUse">
<stop stop-color="#C48836"/>
<stop offset="0.08" stop-color="#D59F44"/>
<stop offset="0.17" stop-color="#E5B551"/>
<stop offset="0.26" stop-color="#EEC359"/>
<stop offset="0.34" stop-color="#F2C85C"/>
<stop offset="0.71" stop-color="#C48836"/>
<stop offset="1" stop-color="#833F1F"/>
</linearGradient>
<linearGradient id="paint12_linear_205_1153" x1="148.593" y1="9.19353" x2="156.662" y2="1.15436" gradientUnits="userSpaceOnUse">
<stop stop-color="#C48836"/>
<stop offset="0.08" stop-color="#D59F44"/>
<stop offset="0.17" stop-color="#E5B551"/>
<stop offset="0.26" stop-color="#EEC359"/>
<stop offset="0.34" stop-color="#F2C85C"/>
<stop offset="0.71" stop-color="#C48836"/>
<stop offset="1" stop-color="#833F1F"/>
</linearGradient>
<linearGradient id="paint13_linear_205_1153" x1="151.411" y1="14.7376" x2="159.479" y2="6.69844" gradientUnits="userSpaceOnUse">
<stop stop-color="#C48836"/>
<stop offset="0.08" stop-color="#D59F44"/>
<stop offset="0.17" stop-color="#E5B551"/>
<stop offset="0.26" stop-color="#EEC359"/>
<stop offset="0.34" stop-color="#F2C85C"/>
<stop offset="0.71" stop-color="#C48836"/>
<stop offset="1" stop-color="#833F1F"/>
</linearGradient>
<linearGradient id="paint14_linear_205_1153" x1="166.88" y1="104.743" x2="65.4183" y2="104.743" gradientUnits="userSpaceOnUse">
<stop stop-color="#A05723"/>
<stop offset="0.24" stop-color="#FCBA63"/>
<stop offset="0.51" stop-color="#D67D39"/>
<stop offset="0.77" stop-color="#FCBA63"/>
<stop offset="0.98" stop-color="#A05723"/>
</linearGradient>
<linearGradient id="paint15_linear_205_1153" x1="171.835" y1="114.075" x2="171.479" y2="114.075" gradientUnits="userSpaceOnUse">
<stop stop-color="#A05723"/>
<stop offset="0.24" stop-color="#FCBA63"/>
<stop offset="0.51" stop-color="#D67D39"/>
<stop offset="0.77" stop-color="#FCBA63"/>
<stop offset="0.98" stop-color="#A05723"/>
</linearGradient>
<linearGradient id="paint16_linear_205_1153" x1="171.835" y1="95.4038" x2="171.479" y2="95.4038" gradientUnits="userSpaceOnUse">
<stop stop-color="#A05723"/>
<stop offset="0.24" stop-color="#FCBA63"/>
<stop offset="0.51" stop-color="#D67D39"/>
<stop offset="0.77" stop-color="#FCBA63"/>
<stop offset="0.98" stop-color="#A05723"/>
</linearGradient>
<linearGradient id="paint17_linear_205_1153" x1="83.4175" y1="110.378" x2="83.4175" y2="47.5604" gradientUnits="userSpaceOnUse">
<stop offset="0.1" stop-color="#946338"/>
<stop offset="0.3" stop-color="#BF8D44"/>
<stop offset="0.47" stop-color="#DAA74C"/>
<stop offset="0.56" stop-color="#E5B250"/>
<stop offset="0.93" stop-color="#946338"/>
</linearGradient>
<linearGradient id="paint18_linear_205_1153" x1="83.4171" y1="107.974" x2="83.4171" y2="47.561" gradientUnits="userSpaceOnUse">
<stop offset="0.1" stop-color="#CE8A2D"/>
<stop offset="0.31" stop-color="#E2B65A"/>
<stop offset="0.47" stop-color="#EED075"/>
<stop offset="0.56" stop-color="#F3DB80"/>
<stop offset="0.93" stop-color="#BB8532"/>
</linearGradient>
</defs>
</svg>
