<svg width="24" height="25" viewBox="0 0 24 25" fill="none" xmlns="http://www.w3.org/2000/svg">
<path d="M12 23.5898C6.07 23.5898 1.25 18.7698 1.25 12.8398C1.25 6.90984 6.07 2.08984 12 2.08984C17.93 2.08984 22.75 6.90984 22.75 12.8398C22.75 18.7698 17.93 23.5898 12 23.5898ZM12 3.58984C6.9 3.58984 2.75 7.73984 2.75 12.8398C2.75 17.9398 6.9 22.0898 12 22.0898C17.1 22.0898 21.25 17.9398 21.25 12.8398C21.25 7.73984 17.1 3.58984 12 3.58984Z" fill="#D4991A"/>
<path d="M14.5 13.5898H8.5C8.09 13.5898 7.75 13.2498 7.75 12.8398C7.75 12.4298 8.09 12.0898 8.5 12.0898H14.5C14.91 12.0898 15.25 12.4298 15.25 12.8398C15.25 13.2498 14.91 13.5898 14.5 13.5898Z" fill="#D4991A"/>
<path d="M12.4999 16.5903C12.3099 16.5903 12.1199 16.5203 11.9699 16.3703C11.6799 16.0803 11.6799 15.6003 11.9699 15.3103L14.4399 12.8403L11.9699 10.3703C11.6799 10.0803 11.6799 9.60027 11.9699 9.31027C12.2599 9.02027 12.7399 9.02027 13.0299 9.31027L16.0299 12.3103C16.3199 12.6003 16.3199 13.0803 16.0299 13.3703L13.0299 16.3703C12.8799 16.5203 12.6899 16.5903 12.4999 16.5903Z" fill="#D4991A"/>
</svg>
